<svg width="47" height="41" viewBox="0 0 47 41" fill="none" xmlns="http://www.w3.org/2000/svg">
<path fill-rule="evenodd" clip-rule="evenodd" d="M36.8706 8.02158H41.5338C41.7807 8.02158 42.0175 8.11922 42.1921 8.29301C42.3667 8.46681 42.4648 8.70253 42.4648 8.94831V38.4047H35.9396V8.94831C35.9396 8.70253 36.0377 8.46681 36.2123 8.29301C36.3869 8.11922 36.6237 8.02158 36.8706 8.02158ZM45.6952 39.7026C45.8681 39.7026 46.0338 39.7709 46.1561 39.8926C46.2783 40.0142 46.3469 40.1792 46.3469 40.3513C46.3469 40.5233 46.2783 40.6883 46.1561 40.81C46.0338 40.9317 45.8681 41 45.6952 41H0.998607C0.82577 41 0.660012 40.9317 0.537797 40.81C0.415583 40.6883 0.346924 40.5233 0.346924 40.3513C0.346924 40.1792 0.415583 40.0142 0.537797 39.8926C0.660012 39.7709 0.82577 39.7026 0.998607 39.7026H45.6952ZM18.06 3.26746C17.7268 3.26814 17.3989 3.3506 17.1053 3.50753C16.8118 3.66445 16.5616 3.89101 16.377 4.16713C16.1924 4.44325 16.0791 4.76042 16.047 5.09056C16.0149 5.4207 16.0651 5.75361 16.1931 6.05984L8.50031 12.805C8.08469 12.5677 7.59794 12.4851 7.12681 12.5717C6.65568 12.6584 6.23077 12.9088 5.92781 13.2783C5.62484 13.6477 5.4635 14.1123 5.47253 14.5891C5.48156 15.066 5.66039 15.5241 5.97713 15.882C6.29388 16.2398 6.72797 16.4741 7.20205 16.543C7.67613 16.6119 8.1594 16.5111 8.56574 16.2584C8.97208 16.0057 9.27509 15.6176 9.42077 15.1633C9.56646 14.7089 9.54535 14.2178 9.36122 13.7775L17.054 7.03242C17.4527 7.25989 17.9173 7.34562 18.3714 7.2755C18.8255 7.20539 19.2422 6.98362 19.553 6.64661L26.6151 9.74237C26.588 10.0471 26.6308 10.3539 26.7405 10.6397C26.8501 10.9254 27.0236 11.1826 27.2479 11.3917C27.4721 11.6008 27.7412 11.7564 28.0348 11.8466C28.3284 11.9369 28.6388 11.9594 28.9425 11.9126C29.2461 11.8657 29.5351 11.7507 29.7875 11.5762C30.0399 11.4018 30.2491 11.1724 30.3992 10.9055C30.5494 10.6386 30.6365 10.3413 30.6541 10.0359C30.6717 9.73049 30.6193 9.42513 30.5007 9.14292L38.5522 2.08466V3.73423C38.5569 3.90327 38.6276 4.06382 38.7493 4.18174C38.8711 4.29966 39.0343 4.36564 39.2041 4.36564C39.374 4.36564 39.5372 4.29966 39.6589 4.18174C39.7807 4.06382 39.8514 3.90327 39.8561 3.73423V0.648711C39.8561 0.56348 39.8392 0.479085 39.8064 0.400348C39.7736 0.321611 39.7256 0.250075 39.665 0.189831C39.6045 0.129586 39.5326 0.0818126 39.4534 0.0492406C39.3743 0.0166685 39.2895 -6.39001e-05 39.2039 1.8338e-07H36.0562C35.8834 1.8338e-07 35.7176 0.0683463 35.5954 0.190003C35.4732 0.31166 35.4045 0.476663 35.4045 0.648711C35.4045 0.82076 35.4732 0.985762 35.5954 1.10742C35.7176 1.22908 35.8834 1.29742 36.0562 1.29742H37.4772L29.6413 8.17035C29.2426 7.94287 28.778 7.85715 28.3239 7.92726C27.8698 7.99737 27.4531 8.21915 27.1424 8.55616L20.0787 5.46039C20.1032 5.18187 20.0693 4.90132 19.9791 4.63655C19.8888 4.37179 19.7443 4.12859 19.5546 3.92242C19.3649 3.71624 19.1342 3.55159 18.8771 3.43892C18.6201 3.32625 18.3423 3.26802 18.0614 3.26794L18.06 3.26746ZM5.15811 21.9255H9.82328C10.0702 21.9255 10.307 22.0231 10.4816 22.1969C10.6562 22.3707 10.7543 22.6064 10.7543 22.8522V38.4047H4.22713V22.8527C4.22713 22.6069 4.32522 22.3712 4.49981 22.1974C4.6744 22.0236 4.9112 21.9255 5.15811 21.9255ZM15.7296 12.6582H20.3928C20.6397 12.6582 20.8765 12.7558 21.0511 12.9296C21.2257 13.1034 21.3238 13.3391 21.3238 13.5849V38.4066H14.7986V13.5829C14.7986 13.3372 14.8967 13.1014 15.0713 12.9276C15.2459 12.7538 15.4827 12.6562 15.7296 12.6562V12.6582ZM26.3011 17.2918H30.9643C31.2112 17.2918 31.448 17.3894 31.6226 17.5632C31.7972 17.737 31.8952 17.9728 31.8952 18.2185V38.4047H25.3701V18.218C25.37 18.0963 25.394 17.9757 25.4408 17.8633C25.4876 17.7508 25.5561 17.6485 25.6426 17.5624C25.729 17.4763 25.8317 17.408 25.9447 17.3614C26.0577 17.3148 26.1788 17.2908 26.3011 17.2908V17.2918Z" fill="#fff"/>
</svg>
