<svg width="44" height="41" viewBox="0 0 44 41" fill="none" xmlns="http://www.w3.org/2000/svg">
<path d="M26.9189 32.0267H16.9375V34.7352H26.9189V32.0267Z" fill="#fff"/>
<path d="M40.7526 0H3.10394C2.37273 0 1.67148 0.290471 1.15444 0.807512C0.637394 1.32455 0.346924 2.02581 0.346924 2.75702V28.4604C0.346924 29.1916 0.637394 29.8929 1.15444 30.4099C1.67148 30.927 2.37273 31.2174 3.10394 31.2174H40.7526C41.4838 31.2174 42.1851 30.927 42.7021 30.4099C43.2192 29.8929 43.5096 29.1916 43.5096 28.4604V2.75702C43.5096 2.02581 43.2192 1.32455 42.7021 0.807512C42.1851 0.290471 41.4838 0 40.7526 0ZM40.4073 26.7879C40.4059 27.201 40.2411 27.5967 39.949 27.8888C39.6569 28.1809 39.2612 28.3457 38.8481 28.3471H5.0085C4.59539 28.3457 4.19962 28.1809 3.90751 27.8888C3.6154 27.5967 3.45067 27.201 3.44924 26.7879V4.43497C3.44924 4.02093 3.61335 3.62377 3.90561 3.3305C4.19787 3.03722 4.59446 2.87175 5.0085 2.87032H38.8481C39.2621 2.87175 39.6587 3.03722 39.9509 3.3305C40.2432 3.62377 40.4073 4.02093 40.4073 4.43497V26.7879Z" fill="#fff"/>
<path d="M39.598 11.7349V4.43497C39.598 4.23558 39.5192 4.04426 39.3787 3.90276C39.2382 3.76126 39.0475 3.68105 38.8481 3.67963H5.0085C4.8091 3.68105 4.61836 3.76126 4.47787 3.90276C4.33738 4.04426 4.25854 4.23558 4.25854 4.43497V11.7349H39.598ZM21.966 6.08055C22.315 6.08055 22.6561 6.18403 22.9462 6.37789C23.2364 6.57175 23.4625 6.84729 23.596 7.16967C23.7296 7.49205 23.7645 7.84679 23.6964 8.18902C23.6283 8.53126 23.4603 8.84562 23.2136 9.09236C22.9668 9.3391 22.6525 9.50713 22.3102 9.5752C21.968 9.64328 21.6133 9.60834 21.2909 9.47481C20.9685 9.34127 20.693 9.11514 20.4991 8.82501C20.3052 8.53487 20.2018 8.19377 20.2018 7.84483C20.2032 7.37735 20.3895 6.92943 20.7201 6.59887C21.0506 6.26831 21.4986 6.08198 21.966 6.08055ZM15.4539 6.1399C15.803 6.13883 16.1447 6.2414 16.4355 6.43461C16.7264 6.62782 16.9533 6.90299 17.0877 7.22527C17.2221 7.54755 17.2578 7.90246 17.1903 8.24505C17.1228 8.58764 16.9552 8.90251 16.7087 9.14979C16.4622 9.39707 16.1478 9.56563 15.8054 9.63415C15.4631 9.70266 15.1081 9.66804 14.7854 9.53466C14.4627 9.40129 14.1868 9.17516 13.9927 8.88491C13.7986 8.59466 13.695 8.25335 13.695 7.90418C13.6943 7.67274 13.7393 7.44345 13.8273 7.22943C13.9154 7.0154 14.0448 6.82087 14.2082 6.65697C14.3716 6.49307 14.5658 6.36303 14.7795 6.2743C14.9933 6.18557 15.2224 6.1399 15.4539 6.1399ZM8.92551 6.19385C9.27445 6.19385 9.61556 6.29733 9.90569 6.49119C10.1958 6.68505 10.422 6.96059 10.5555 7.28297C10.689 7.60535 10.724 7.96009 10.6559 8.30232C10.5878 8.64456 10.4198 8.95892 10.173 9.20566C9.9263 9.4524 9.61194 9.62043 9.2697 9.68851C8.92747 9.75658 8.57273 9.72164 8.25035 9.58811C7.92797 9.45457 7.65243 9.22844 7.45857 8.93831C7.26471 8.64818 7.16124 8.30707 7.16124 7.95813C7.1612 7.49393 7.34412 7.04842 7.67033 6.71817C7.99654 6.38792 8.43977 6.19953 8.90393 6.19385H8.92551Z" fill="#fff"/>
<path d="M4.25854 12.5442V26.7878C4.25996 26.9863 4.33942 27.1762 4.47976 27.3166C4.6201 27.4569 4.81003 27.5364 5.0085 27.5378H38.8481C39.0465 27.5364 39.2365 27.4569 39.3768 27.3166C39.5171 27.1762 39.5966 26.9863 39.598 26.7878V12.5442H4.25854ZM18.5562 20.9069C18.5562 21.0143 18.5136 21.1172 18.4377 21.1931C18.3618 21.2689 18.2589 21.3116 18.1515 21.3116H7.54431C7.43699 21.3116 7.33406 21.2689 7.25817 21.1931C7.18229 21.1172 7.13966 21.0143 7.13966 20.9069V15.6141C7.13966 15.5068 7.18229 15.4039 7.25817 15.328C7.33406 15.2521 7.43699 15.2095 7.54431 15.2095H18.1515C18.2589 15.2095 18.3618 15.2521 18.4377 15.328C18.5136 15.4039 18.5562 15.5068 18.5562 15.6141V20.9069ZM35.7835 23.3348H22.6027C22.4954 23.3348 22.3924 23.2922 22.3166 23.2163C22.2407 23.1404 22.198 23.0375 22.198 22.9302C22.198 22.8229 22.2407 22.7199 22.3166 22.6441C22.3924 22.5682 22.4954 22.5255 22.6027 22.5255H35.7835C35.8908 22.5255 35.9937 22.5682 36.0696 22.6441C36.1455 22.7199 36.1882 22.8229 36.1882 22.9302C36.1882 23.0375 36.1455 23.1404 36.0696 23.2163C35.9937 23.2922 35.8908 23.3348 35.7835 23.3348ZM35.7835 19.6822H22.6027C22.4954 19.6822 22.3924 19.6396 22.3166 19.5637C22.2407 19.4878 22.198 19.3849 22.198 19.2775C22.198 19.1702 22.2407 19.0673 22.3166 18.9914C22.3924 18.9155 22.4954 18.8729 22.6027 18.8729H35.7835C35.8908 18.8729 35.9937 18.9155 36.0696 18.9914C36.1455 19.0673 36.1882 19.1702 36.1882 19.2775C36.1882 19.3849 36.1455 19.4878 36.0696 19.5637C35.9937 19.6396 35.8908 19.6822 35.7835 19.6822ZM35.7835 16.0242H26.8812C26.7739 16.0242 26.671 15.9815 26.5951 15.9056C26.5192 15.8297 26.4765 15.7268 26.4765 15.6195C26.4765 15.5122 26.5192 15.4093 26.5951 15.3334C26.671 15.2575 26.7739 15.2148 26.8812 15.2148H35.7835C35.8908 15.2148 35.9937 15.2575 36.0696 15.3334C36.1455 15.4093 36.1882 15.5122 36.1882 15.6195C36.1882 15.7268 36.1455 15.8297 36.0696 15.9056C35.9937 15.9815 35.8908 16.0242 35.7835 16.0242Z" fill="#fff"/>
<path d="M35.4166 35.5445H8.43994V40.9398H35.4166V35.5445Z" fill="#fff"/>
<path d="M15.4542 8.85378C15.6436 8.85485 15.8289 8.79961 15.9868 8.69509C16.1447 8.59057 16.2679 8.44148 16.3409 8.26676C16.4138 8.09204 16.4332 7.89958 16.3965 7.71384C16.3598 7.52809 16.2688 7.35743 16.1349 7.22355C16.001 7.08967 15.8303 6.99861 15.6446 6.96194C15.4589 6.92526 15.2664 6.94463 15.0917 7.01757C14.917 7.09052 14.7679 7.21376 14.6633 7.37163C14.5588 7.5295 14.5036 7.71487 14.5047 7.9042C14.5047 8.15605 14.6047 8.39758 14.7828 8.57566C14.9609 8.75374 15.2024 8.85378 15.4542 8.85378Z" fill="#fff"/>
<path d="M21.966 8.79981C22.1548 8.79981 22.3395 8.7438 22.4965 8.63887C22.6536 8.53394 22.776 8.38479 22.8482 8.21029C22.9205 8.03579 22.9394 7.84378 22.9026 7.65853C22.8657 7.47328 22.7748 7.30312 22.6412 7.16957C22.5077 7.03601 22.3375 6.94506 22.1523 6.90821C21.967 6.87136 21.775 6.89028 21.6005 6.96256C21.426 7.03484 21.2769 7.15724 21.1719 7.31428C21.067 7.47133 21.011 7.65596 21.011 7.84484C21.011 8.09811 21.1116 8.34101 21.2907 8.52011C21.4698 8.6992 21.7127 8.79981 21.966 8.79981Z" fill="#fff"/>
<path d="M17.7469 16.0242H7.94897V20.5023H17.7469V16.0242Z" fill="#fff"/>
</svg>
