<svg width="36" height="48" viewBox="0 0 36 48" fill="none" xmlns="http://www.w3.org/2000/svg">
<path d="M33.9105 15.1946H33.9058C33.8817 15.1953 33.8576 15.1938 33.8338 15.1903H1.68877C1.66495 15.1938 1.64085 15.1953 1.61678 15.1946H1.61206C1.20099 15.2178 0.81507 15.3999 0.535905 15.7026C0.25674 16.0052 0.106223 16.4045 0.116188 16.8161C0.126152 17.2277 0.295816 17.6193 0.589298 17.9081C0.88278 18.1968 1.27707 18.3601 1.68877 18.3634H33.8359C34.2476 18.3601 34.6419 18.1968 34.9354 17.9081C35.2289 17.6193 35.3986 17.2277 35.4085 16.8161C35.4185 16.4045 35.268 16.0052 34.9888 15.7026C34.7096 15.3999 34.3237 15.2178 33.9126 15.1946H33.9105Z" fill="#fff"/>
<path d="M14.614 36.0103H20.9063L31.8777 20.1664H3.64258L14.614 36.0103Z" fill="#fff"/>
<path d="M15.0422 48L20.4782 44.7724V37.8133H15.0422V48Z" fill="#fff"/>
<path d="M9.66494 13.3873C8.7952 12.0909 8.24881 10.605 8.07157 9.05402C7.89432 7.50303 8.09138 5.93215 8.64622 4.47299C7.40885 4.55455 6.21461 4.95972 5.18305 5.64792C4.1515 6.33613 3.31881 7.28323 2.76836 8.39442C1.99426 9.94146 1.81625 11.7192 2.26822 13.389L9.66494 13.3873Z" fill="#fff"/>
<path d="M16.9172 13.3873C16.8773 13.2885 16.8574 13.1827 16.8589 13.0761V12.666C16.2718 12.5312 15.7461 12.2054 15.3643 11.7396C14.9824 11.2739 14.766 10.6945 14.749 10.0924C14.749 9.85332 14.844 9.62402 15.0131 9.45496C15.1821 9.2859 15.4114 9.19092 15.6505 9.19092C15.8896 9.19092 16.1189 9.2859 16.288 9.45496C16.457 9.62402 16.552 9.85332 16.552 10.0924C16.5894 10.353 16.7252 10.5893 16.9315 10.7527C17.1378 10.9162 17.399 10.9943 17.6612 10.971H17.8592C18.1213 10.9943 18.3825 10.9162 18.5888 10.7527C18.7951 10.5893 18.9309 10.353 18.9683 10.0924V9.72856C18.9301 9.46871 18.7939 9.23334 18.5876 9.0707C18.3814 8.90806 18.1208 8.83047 17.8592 8.85384H17.6612C16.9196 8.88266 16.1967 8.61672 15.6506 8.11415C15.1045 7.61159 14.7796 6.91327 14.7469 6.17184V5.81613C14.7637 5.2133 14.9804 4.63317 15.363 4.16699C15.7455 3.7008 16.2722 3.375 16.8602 3.24084V2.8307C16.8602 2.59161 16.9551 2.36231 17.1242 2.19324C17.2933 2.02418 17.5226 1.9292 17.7617 1.9292C18.0008 1.9292 18.23 2.02418 18.3991 2.19324C18.5682 2.36231 18.6632 2.59161 18.6632 2.8307V3.24084C19.2502 3.37569 19.7758 3.70161 20.1576 4.16747C20.5394 4.63333 20.7557 5.21277 20.7726 5.81484C20.7726 6.05394 20.6776 6.28324 20.5085 6.4523C20.3395 6.62136 20.1102 6.71634 19.8711 6.71634C19.632 6.71634 19.4027 6.62136 19.2336 6.4523C19.0646 6.28324 18.9696 6.05394 18.9696 5.81484C18.9323 5.55421 18.7966 5.31779 18.5902 5.15427C18.3839 4.99075 18.1227 4.91257 17.8604 4.93584H17.6624C17.4002 4.91257 17.139 4.99075 16.9327 5.15427C16.7263 5.31779 16.5906 5.55421 16.5533 5.81484V6.17056C16.5906 6.43119 16.7263 6.66761 16.9327 6.83113C17.139 6.99466 17.4002 7.07283 17.6624 7.04956H17.8604C18.6016 7.01981 19.3243 7.28486 19.8705 7.78669C20.4166 8.28853 20.7418 8.98629 20.7747 9.72727V10.0924C20.7575 10.6951 20.5404 11.275 20.1576 11.7409C19.7748 12.2067 19.2481 12.5322 18.6602 12.666V13.0761C18.6614 13.1827 18.6415 13.2885 18.6014 13.3873H23.5566C24.5758 12.2997 25.2692 10.9477 25.5577 9.48539C25.8462 8.02304 25.7183 6.50907 25.1886 5.11584C25.0514 4.75394 24.8871 4.40294 24.697 4.06584C24.6927 4.06113 24.688 4.05213 24.6837 4.04784C24.6767 4.03638 24.6707 4.02434 24.6657 4.01184L24.652 3.98441C24.306 3.37881 23.8783 2.82374 23.3809 2.33484C22.6438 1.59514 21.7679 1.00815 20.8036 0.607492C19.8392 0.206838 18.8053 0.000398696 17.761 5.76932e-07C16.7168 -0.000397543 15.6827 0.205254 14.718 0.605172C13.7534 1.00509 12.8771 1.59142 12.1394 2.33056C11.6428 2.82224 11.2152 3.37903 10.8683 3.9857L10.8546 4.01313C10.8496 4.02562 10.8436 4.03767 10.8366 4.04913C10.8323 4.05341 10.8276 4.06241 10.8233 4.06713C10.6332 4.40423 10.4689 4.75523 10.3317 5.11713C9.80046 6.51012 9.67177 8.02446 9.96036 9.48712C10.249 10.9498 10.9432 12.3018 11.9637 13.3886L16.9172 13.3873Z" fill="#fff"/>
<path d="M33.2522 13.3873C33.523 12.3749 33.5663 11.3152 33.3789 10.2841C33.1915 9.25304 32.778 8.27629 32.1682 7.42402C31.5584 6.57175 30.7675 5.86511 29.8521 5.35487C28.9368 4.84463 27.9198 4.54346 26.8742 4.47299V4.47771C27.4294 5.93628 27.6267 7.50676 27.4494 9.05734C27.2721 10.6079 26.7255 12.0934 25.8555 13.389L33.2522 13.3873Z" fill="#fff"/>
</svg>
