<svg width="52" height="48" viewBox="0 0 52 48" fill="none" xmlns="http://www.w3.org/2000/svg">
<path fill-rule="evenodd" clip-rule="evenodd" d="M37.8558 23.9056L43.5286 29.5402L24.9436 48H19.2707V42.3654L37.8558 23.9056ZM45.8784 15.9371L51.5513 21.5717L46.3372 26.7506L40.6644 21.116L45.8784 15.9371ZM11.2481 21.2494H27.2933C28.975 21.2494 30.566 21.6349 31.9817 22.3217L17.016 37.1865H0.55127V31.8742C0.55127 26.0063 5.3404 21.2494 11.2481 21.2494ZM19.2707 15.9371C14.84 15.9371 11.2481 12.3694 11.2481 7.96854C11.2481 3.56764 14.84 0 19.2707 0C23.7015 0 27.2933 3.56764 27.2933 7.96854C27.2933 12.3694 23.7015 15.9371 19.2707 15.9371Z" fill="#fff"/>
</svg>
