<svg width="41" height="38" viewBox="0 0 41 38" fill="none" xmlns="http://www.w3.org/2000/svg">
<path d="M10.4069 19C8.52724 18.9983 6.68931 19.5542 5.12572 20.5974C3.56212 21.6406 2.34313 23.1242 1.62302 24.8605C0.902904 26.5967 0.714032 28.5076 1.08031 30.3512C1.44658 32.1948 2.35153 33.8883 3.68064 35.2175C5.00975 36.5466 6.70328 37.4516 8.5469 37.8179C10.3905 38.1842 12.3014 37.9953 14.0376 37.2752C15.7739 36.5551 17.2575 35.3362 18.3007 33.7726C19.3439 32.209 19.8999 30.3711 19.8982 28.4914C19.8957 25.9749 18.8949 23.5622 17.1155 21.7828C15.3361 20.0033 12.9234 19.0025 10.4069 19ZM6.51539 24.6172H10.3982C10.5686 24.6165 10.7374 24.6495 10.895 24.7143C11.0526 24.779 11.1959 24.8743 11.3166 24.9945C11.4373 25.1148 11.5331 25.2577 11.5984 25.415C11.6638 25.5724 11.6974 25.7411 11.6974 25.9114C11.6974 26.0818 11.6638 26.2505 11.5984 26.4079C11.5331 26.5652 11.4373 26.7081 11.3166 26.8284C11.1959 26.9486 11.0526 27.0439 10.895 27.1086C10.7374 27.1734 10.5686 27.2064 10.3982 27.2057H6.51539C6.34501 27.2064 6.17618 27.1734 6.01858 27.1086C5.86098 27.0439 5.71772 26.9486 5.59701 26.8284C5.4763 26.7081 5.38052 26.5652 5.31517 26.4079C5.24981 26.2505 5.21617 26.0818 5.21617 25.9114C5.21617 25.7411 5.24981 25.5724 5.31517 25.415C5.38052 25.2577 5.4763 25.1148 5.59701 24.9945C5.71772 24.8743 5.86098 24.779 6.01858 24.7143C6.17618 24.6495 6.34501 24.6165 6.51539 24.6172ZM14.2811 32.3828H6.51539C6.34501 32.3835 6.17618 32.3505 6.01858 32.2857C5.86098 32.221 5.71772 32.1257 5.59701 32.0055C5.4763 31.8852 5.38052 31.7423 5.31517 31.585C5.24981 31.4276 5.21617 31.2589 5.21617 31.0885C5.21617 30.9182 5.24981 30.7495 5.31517 30.5921C5.38052 30.4348 5.4763 30.2919 5.59701 30.1716C5.71772 30.0514 5.86098 29.9561 6.01858 29.8914C6.17618 29.8266 6.34501 29.7936 6.51539 29.7943H14.2811C14.6235 29.7956 14.9514 29.9325 15.1931 30.1751C15.4347 30.4177 15.5704 30.7461 15.5704 31.0885C15.5704 31.4309 15.4347 31.7594 15.1931 32.002C14.9514 32.2446 14.6235 32.3815 14.2811 32.3828ZM31.2982 0H12.2982C6.59819 0 2.79819 2.85 2.79819 9.5V15.4595C2.80024 15.7778 2.88215 16.0905 3.03642 16.3689C3.19069 16.6473 3.41239 16.8826 3.68118 17.0531C3.94997 17.2235 4.25726 17.3238 4.57487 17.3447C4.89249 17.3656 5.21026 17.3064 5.49906 17.1726C7.50929 16.2991 9.71599 15.977 11.892 16.2396C14.0681 16.5022 16.1348 17.3399 17.8795 18.6665C19.6243 19.9931 20.984 21.7607 21.8187 23.7874C22.6534 25.814 22.933 28.0265 22.6286 30.1971C22.5966 30.4625 22.6215 30.7316 22.7018 30.9866C22.7822 31.2416 22.916 31.4764 23.0944 31.6755C23.2728 31.8746 23.4916 32.0333 23.7363 32.141C23.981 32.2487 24.2458 32.3029 24.5131 32.3H31.2982C36.9982 32.3 40.7982 29.45 40.7982 22.8V9.5C40.7982 2.85 36.9982 0 31.2982 0ZM32.1879 10.6124L26.2485 15.3633C24.9683 16.3353 23.4051 16.8616 21.7977 16.8616C20.1903 16.8616 18.6271 16.3353 17.3469 15.3633L11.4085 10.6124C11.2621 10.4956 11.1402 10.3512 11.0498 10.1873C10.9593 10.0234 10.902 9.84326 10.8812 9.65721C10.8604 9.47116 10.8764 9.28283 10.9284 9.10299C10.9805 8.92315 11.0674 8.75533 11.1844 8.60913C11.3013 8.46294 11.4459 8.34122 11.6099 8.25095C11.7739 8.16069 11.9541 8.10363 12.1402 8.08306C12.3263 8.06249 12.5146 8.0788 12.6944 8.13107C12.8741 8.18333 13.0418 8.27052 13.1879 8.38764L19.1273 13.1386C19.9033 13.7029 20.8382 14.0069 21.7977 14.0069C22.7573 14.0069 23.6922 13.7029 24.4682 13.1386L30.4085 8.38764C30.7036 8.15227 31.08 8.04364 31.4551 8.08561C31.8302 8.12758 32.1733 8.31671 32.4091 8.61147C32.6448 8.90624 32.754 9.28252 32.7125 9.65768C32.671 10.0328 32.4823 10.3762 32.1879 10.6124Z" fill="#fff"/>
</svg>
