<svg width="43" height="34" viewBox="0 0 43 34" fill="none" xmlns="http://www.w3.org/2000/svg">
<path fill-rule="evenodd" clip-rule="evenodd" d="M0.768799 9.72491H42.7688V1.47031C42.7667 1.08068 42.6093 0.707618 42.3308 0.432275C42.0522 0.156933 41.6752 0.00157742 41.2815 0H2.25653C1.86282 0.00145596 1.48561 0.156757 1.20699 0.432113C0.928375 0.707468 0.770888 1.0806 0.768799 1.47031V9.72491ZM42.7688 11.1107H0.768799V32.5274C0.770274 32.9175 0.927491 33.2912 1.20618 33.5671C1.48486 33.8429 1.86241 33.9985 2.25653 34H41.2815C41.6756 33.9984 42.053 33.8427 42.3316 33.5669C42.6102 33.2911 42.7673 32.9174 42.7688 32.5274V11.1107ZM6.3604 4.37674C6.47389 4.48888 6.54458 4.6365 6.56043 4.79446C6.57627 4.95241 6.53628 5.11091 6.44728 5.24295C6.35828 5.37498 6.22577 5.47238 6.07234 5.51854C5.91891 5.5647 5.75406 5.55676 5.60588 5.49608C5.45771 5.43539 5.33537 5.32572 5.25974 5.18576C5.18411 5.0458 5.15985 4.8842 5.19111 4.72852C5.22237 4.57283 5.3072 4.43269 5.43115 4.33199C5.55511 4.23129 5.71051 4.17625 5.87087 4.17626C5.96178 4.17612 6.05183 4.19376 6.13584 4.22816C6.21985 4.26256 6.29616 4.31306 6.3604 4.37674ZM5.87087 2.79049C6.35512 2.79041 6.82443 2.95655 7.1988 3.26059C7.57318 3.56464 7.82946 3.98777 7.92397 4.45789C8.01848 4.92802 7.94537 5.41603 7.71711 5.83878C7.48884 6.26152 7.11954 6.59284 6.67214 6.77627C6.22474 6.9597 5.72693 6.98389 5.26353 6.84471C4.80013 6.70554 4.39982 6.41162 4.13083 6.01303C3.86183 5.61445 3.74079 5.13587 3.78832 4.65885C3.83586 4.18182 4.04904 3.73587 4.39153 3.397C4.58562 3.20446 4.81621 3.05177 5.07008 2.94769C5.32395 2.8436 5.59608 2.79018 5.87087 2.79049ZM11.5488 4.37674C11.6623 4.48888 11.733 4.6365 11.7488 4.79446C11.7647 4.95241 11.7247 5.11091 11.6357 5.24295C11.5467 5.37498 11.4142 5.47238 11.2607 5.51854C11.1073 5.5647 10.9425 5.55676 10.7943 5.49608C10.6461 5.43539 10.5238 5.32572 10.4481 5.18576C10.3725 5.0458 10.3483 4.8842 10.3795 4.72852C10.4108 4.57283 10.4956 4.43269 10.6196 4.33199C10.7435 4.23129 10.8989 4.17625 11.0593 4.17626C11.1502 4.17612 11.2402 4.19376 11.3242 4.22816C11.4082 4.26256 11.4846 4.31306 11.5488 4.37674ZM11.0593 2.79049C11.5433 2.7905 12.0123 2.95663 12.3864 3.26057C12.7606 3.5645 13.0167 3.98745 13.1111 4.45734C13.2055 4.92723 13.1324 5.41498 12.9043 5.8375C12.6761 6.26002 12.307 6.59116 11.8598 6.77449C11.4126 6.95783 10.9151 6.98201 10.4519 6.84293C9.98874 6.70385 9.58862 6.41011 9.31972 6.01176C9.05083 5.6134 8.92979 5.13508 8.97724 4.6583C9.02469 4.18151 9.23768 3.73576 9.57993 3.397C9.774 3.20444 10.0046 3.05173 10.2585 2.94765C10.5123 2.84357 10.7845 2.79016 11.0593 2.79049ZM16.7358 4.37674C16.8493 4.48888 16.92 4.6365 16.9358 4.79446C16.9517 4.95241 16.9117 5.11091 16.8227 5.24295C16.7337 5.37498 16.6012 5.47238 16.4477 5.51854C16.2943 5.5647 16.1295 5.55676 15.9813 5.49608C15.8331 5.43539 15.7108 5.32572 15.6351 5.18576C15.5595 5.0458 15.5353 4.8842 15.5665 4.72852C15.5978 4.57283 15.6826 4.43269 15.8066 4.33199C15.9305 4.23129 16.0859 4.17625 16.2463 4.17626C16.3372 4.17615 16.4272 4.19379 16.5112 4.2282C16.5952 4.2626 16.6715 4.31308 16.7358 4.37674ZM16.2463 2.79049C16.7303 2.7905 17.1993 2.95663 17.5734 3.26057C17.9476 3.5645 18.2037 3.98745 18.2981 4.45734C18.3925 4.92723 18.3194 5.41498 18.0912 5.8375C17.8631 6.26002 17.494 6.59116 17.0468 6.77449C16.5996 6.95783 16.1021 6.98201 15.6389 6.84293C15.1757 6.70385 14.7756 6.41011 14.5067 6.01176C14.2378 5.6134 14.1168 5.13508 14.1642 4.6583C14.2117 4.18151 14.4247 3.73576 14.7669 3.397C14.961 3.20444 15.1916 3.05173 15.4455 2.94765C15.6993 2.84357 15.9715 2.79016 16.2463 2.79049ZM16.6103 14.643V23.0963H4.73547V14.643H16.6103ZM4.03547 13.2573H17.3103C17.4959 13.2573 17.674 13.3303 17.8052 13.4602C17.9365 13.5901 18.0103 13.7664 18.0103 13.9501V23.7891C18.0103 23.9729 17.9365 24.1491 17.8052 24.2791C17.674 24.409 17.4959 24.482 17.3103 24.482H4.03547C3.84981 24.482 3.67177 24.409 3.54049 24.2791C3.40922 24.1491 3.33547 23.9729 3.33547 23.7891V13.9501C3.33547 13.7664 3.40922 13.5901 3.54049 13.4602C3.67177 13.3303 3.84981 13.2573 4.03547 13.2573ZM21.9499 15.5207C21.7642 15.5207 21.5862 15.4477 21.4549 15.3177C21.3236 15.1878 21.2499 15.0116 21.2499 14.8278C21.2499 14.644 21.3236 14.4678 21.4549 14.3378C21.5862 14.2079 21.7642 14.1349 21.9499 14.1349H39.0565C39.2421 14.1349 39.4202 14.2079 39.5514 14.3378C39.6827 14.4678 39.7565 14.644 39.7565 14.8278C39.7565 15.0116 39.6827 15.1878 39.5514 15.3177C39.4202 15.4477 39.2421 15.5207 39.0565 15.5207H21.9499ZM21.9499 20.673C21.7642 20.673 21.5862 20.6 21.4549 20.4701C21.3236 20.3401 21.2499 20.1639 21.2499 19.9801C21.2499 19.7963 21.3236 19.6201 21.4549 19.4902C21.5862 19.3602 21.7642 19.2872 21.9499 19.2872H39.0565C39.2421 19.2872 39.4202 19.3602 39.5514 19.4902C39.6827 19.6201 39.7565 19.7963 39.7565 19.9801C39.7565 20.1639 39.6827 20.3401 39.5514 20.4701C39.4202 20.6 39.2421 20.673 39.0565 20.673H21.9499ZM21.9499 25.8253C21.7642 25.8253 21.5862 25.7523 21.4549 25.6224C21.3236 25.4924 21.2499 25.3162 21.2499 25.1324C21.2499 24.9487 21.3236 24.7724 21.4549 24.6425C21.5862 24.5125 21.7642 24.4395 21.9499 24.4395H39.0565C39.2421 24.4395 39.4202 24.5125 39.5514 24.6425C39.6827 24.7724 39.7565 24.9487 39.7565 25.1324C39.7565 25.3162 39.6827 25.4924 39.5514 25.6224C39.4202 25.7523 39.2421 25.8253 39.0565 25.8253H21.9499ZM21.9499 30.9772C21.7642 30.9772 21.5862 30.9042 21.4549 30.7742C21.3236 30.6443 21.2499 30.468 21.2499 30.2843C21.2499 30.1005 21.3236 29.9243 21.4549 29.7943C21.5862 29.6644 21.7642 29.5914 21.9499 29.5914H39.0565C39.2421 29.5914 39.4202 29.6644 39.5514 29.7943C39.6827 29.9243 39.7565 30.1005 39.7565 30.2843C39.7565 30.468 39.6827 30.6443 39.5514 30.7742C39.4202 30.9042 39.2421 30.9772 39.0565 30.9772H21.9499Z" fill="#fff"/>
</svg>
