<svg width="48" height="47" viewBox="0 0 48 47" fill="none" xmlns="http://www.w3.org/2000/svg">
<path d="M15.6554 19.5039C13.5268 19.5039 11.7942 21.2365 11.7942 23.3651C11.7942 25.4937 13.5268 27.2263 15.6554 27.2263C17.784 27.2263 19.5166 25.4937 19.5166 23.3651C19.5166 21.2365 17.784 19.5039 15.6554 19.5039Z" fill="#fff"/>
<path d="M33.3277 19.5039C31.1991 19.5039 29.4666 21.2365 29.4666 23.3651C29.4666 25.4937 31.1991 27.2263 33.3277 27.2263C35.4563 27.2263 37.1889 25.4937 37.1889 23.3651C37.1889 21.2365 35.4563 19.5039 33.3277 19.5039Z" fill="#fff"/>
<path d="M24.4669 0C11.5963 0 1.10175 10.445 1.10175 23.3651C1.10175 27.7708 2.33931 31.83 4.41841 35.3447L0.903743 44.6511C0.359218 46.0372 1.74528 47.4233 3.13135 46.8787L12.4378 43.3641C15.9525 45.4432 20.0117 46.6807 24.4174 46.6807C37.3375 46.6807 47.7825 36.2357 47.7825 23.3156C47.7825 10.3955 37.387 0 24.4669 0ZM33.3278 30.3449H15.6554C11.7943 30.3449 8.67561 27.2263 8.67561 23.3651C8.67561 19.5039 11.7943 16.3853 15.6554 16.3853C19.5166 16.3853 22.6353 19.5039 22.6353 23.3651C22.6353 24.8007 22.1898 26.1372 21.4472 27.2263H27.4865C26.744 26.1372 26.2985 24.8007 26.2985 23.3651C26.2985 19.5039 29.4171 16.3853 33.2783 16.3853C37.1395 16.3853 40.2581 19.5039 40.2581 23.3651C40.3076 27.2263 37.189 30.3449 33.3278 30.3449Z" fill="#fff"/>
</svg>
