<svg width="42" height="41" viewBox="0 0 42 41" fill="none" xmlns="http://www.w3.org/2000/svg">
<path d="M12.5358 14.987C12.8191 14.6799 13.1629 14.4348 13.5456 14.2672C13.9283 14.0996 14.3415 14.0131 14.7593 14.0131C15.1771 14.0131 15.5904 14.0996 15.973 14.2672C16.3557 14.4348 16.6995 14.6799 16.9828 14.987L20.3229 18.8893L24.5766 15.6986C25.1417 15.2783 25.8388 15.0748 26.5413 15.125C27.2437 15.1753 27.9048 15.476 28.4043 15.9724L35.8648 23.4286H41.1157V11.7143H0.115723V23.4286H5.29929L12.5358 14.987Z" fill="#fff"/>
<path d="M41.1157 4.39286C41.1157 3.2278 40.6529 2.11046 39.8291 1.28664C39.0053 0.462818 37.8879 0 36.7229 0H4.50858C3.34352 0 2.22618 0.462818 1.40236 1.28664C0.57854 2.11046 0.115723 3.2278 0.115723 4.39286V8.78571H41.1157V4.39286ZM8.90144 5.85714H7.43715C7.0488 5.85714 6.67635 5.70287 6.40175 5.42826C6.12714 5.15366 5.97287 4.78121 5.97287 4.39286C5.97287 4.0045 6.12714 3.63206 6.40175 3.35745C6.67635 3.08284 7.0488 2.92857 7.43715 2.92857H8.90144C9.28979 2.92857 9.66224 3.08284 9.93684 3.35745C10.2114 3.63206 10.3657 4.0045 10.3657 4.39286C10.3657 4.78121 10.2114 5.15366 9.93684 5.42826C9.66224 5.70287 9.28979 5.85714 8.90144 5.85714ZM14.7586 5.85714H13.2943C12.9059 5.85714 12.5335 5.70287 12.2589 5.42826C11.9843 5.15366 11.83 4.78121 11.83 4.39286C11.83 4.0045 11.9843 3.63206 12.2589 3.35745C12.5335 3.08284 12.9059 2.92857 13.2943 2.92857H14.7586C15.1469 2.92857 15.5194 3.08284 15.794 3.35745C16.0686 3.63206 16.2229 4.0045 16.2229 4.39286C16.2229 4.78121 16.0686 5.15366 15.794 5.42826C15.5194 5.70287 15.1469 5.85714 14.7586 5.85714Z" fill="#fff"/>
<path d="M0.115723 36.6071C0.115723 37.7722 0.57854 38.8895 1.40236 39.7133C2.22618 40.5372 3.34352 41 4.50858 41H36.7229C37.8879 41 39.0053 40.5372 39.8291 39.7133C40.6529 38.8895 41.1157 37.7722 41.1157 36.6071V26.3571H0.115723V36.6071ZM29.4014 30.75H32.33C32.7184 30.75 33.0908 30.9042 33.3654 31.1789C33.64 31.4535 33.7943 31.8259 33.7943 32.2143C33.7943 32.6026 33.64 32.9751 33.3654 33.2497C33.0908 33.5243 32.7184 33.6785 32.33 33.6785H29.4014C29.0131 33.6785 28.6406 33.5243 28.366 33.2497C28.0914 32.9751 27.9372 32.6026 27.9372 32.2143C27.9372 31.8259 28.0914 31.4535 28.366 31.1789C28.6406 30.9042 29.0131 30.75 29.4014 30.75ZM19.1514 30.75H22.08C22.4684 30.75 22.8408 30.9042 23.1154 31.1789C23.39 31.4535 23.5443 31.8259 23.5443 32.2143C23.5443 32.6026 23.39 32.9751 23.1154 33.2497C22.8408 33.5243 22.4684 33.6785 22.08 33.6785H19.1514C18.7631 33.6785 18.3906 33.5243 18.116 33.2497C17.8414 32.9751 17.6872 32.6026 17.6872 32.2143C17.6872 31.8259 17.8414 31.4535 18.116 31.1789C18.3906 30.9042 18.7631 30.75 19.1514 30.75ZM8.90144 30.75H11.83C12.2184 30.75 12.5908 30.9042 12.8654 31.1789C13.14 31.4535 13.2943 31.8259 13.2943 32.2143C13.2943 32.6026 13.14 32.9751 12.8654 33.2497C12.5908 33.5243 12.2184 33.6785 11.83 33.6785H8.90144C8.51308 33.6785 8.14064 33.5243 7.86603 33.2497C7.59142 32.9751 7.43715 32.6026 7.43715 32.2143C7.43715 31.8259 7.59142 31.4535 7.86603 31.1789C8.14064 30.9042 8.51308 30.75 8.90144 30.75Z" fill="#fff"/>
<path d="M9.15625 23.4285H20.361L14.7586 16.8934L9.15625 23.4285Z" fill="#fff"/>
<path d="M22.2351 21.1165L24.2177 23.4286H31.7237L26.3351 18.04L22.2351 21.1165Z" fill="#fff"/>
</svg>
