<svg width="42" height="42" viewBox="0 0 42 42" fill="none" xmlns="http://www.w3.org/2000/svg">
<path fill-rule="evenodd" clip-rule="evenodd" d="M35.3469 20.997C33.7859 28.278 28.0479 34.016 20.7659 35.578C22.5029 39.366 26.3309 42 30.7689 42C32.6109 42 34.3469 41.547 35.8719 40.746C36.1129 40.619 36.3949 40.596 36.6529 40.682L40.4529 41.949C40.8118 42.068 41.2079 41.975 41.4759 41.707C41.7439 41.439 41.8369 41.043 41.7179 40.684L40.4509 36.884C40.3649 36.626 40.3879 36.344 40.5149 36.103C41.3159 34.578 41.7689 32.842 41.7689 31C41.7689 26.562 39.1349 22.734 35.3469 20.997Z" fill="#FF0000"/>
<path fill-rule="evenodd" clip-rule="evenodd" d="M2.24301 26.11C2.33201 25.843 2.30399 25.55 2.16599 25.304C0.785985 22.848 0 20.015 0 17C0 7.617 7.617 0 17 0C26.383 0 34 7.617 34 17C34 26.383 26.383 34 17 34C13.985 34 11.152 33.214 8.69601 31.834C8.45001 31.696 8.15701 31.668 7.89001 31.757L1.31601 33.949C0.95701 34.068 0.560999 33.975 0.292999 33.707C0.0249993 33.439 -0.0680051 33.043 0.0509949 32.684L2.24301 26.11ZM7 24H27C27.552 24 28 23.552 28 23C28 22.448 27.552 22 27 22H7C6.448 22 6 22.448 6 23C6 23.552 6.448 24 7 24ZM7 18H11C11.552 18 12 17.552 12 17C12 16.448 11.552 16 11 16H7C6.448 16 6 16.448 6 17C6 17.552 6.448 18 7 18ZM15 18H27C27.552 18 28 17.552 28 17C28 16.448 27.552 16 27 16H15C14.448 16 14 16.448 14 17C14 17.552 14.448 18 15 18ZM7 12H27C27.552 12 28 11.552 28 11C28 10.448 27.552 10 27 10H7C6.448 10 6 10.448 6 11C6 11.552 6.448 12 7 12Z" fill="#FF0000"/>
</svg>
