<svg width="53" height="52" viewBox="0 0 53 52" fill="none" xmlns="http://www.w3.org/2000/svg">
<path fill-rule="evenodd" clip-rule="evenodd" d="M24.28 0H28.8226C29.47 0 29.999 0.53217 29.999 1.18216V3.33531C29.999 4.63757 30.7388 5.74972 31.9361 6.24831C33.1335 6.7469 34.4391 6.48565 35.3556 5.56474L36.8707 4.04222C37.3284 3.58233 38.0772 3.58233 38.5348 4.04222L41.747 7.26996C42.2046 7.72985 42.2046 8.48228 41.747 8.94217L40.2318 10.4647C39.3154 11.3856 39.0554 12.6975 39.5516 13.9007C40.0477 15.104 41.1545 15.8473 42.4504 15.8473H44.5932C45.2406 15.8473 45.7696 16.3795 45.7696 17.0295V17.1552C43.2666 17.4148 40.8039 18.0756 38.3904 19.1001C37.5674 19.4495 37.1545 20.3818 37.4468 21.2299L37.6529 21.8287C36.5943 21.7126 35.6144 21.4763 34.6515 21.1957C34.7903 20.5902 34.8639 19.9595 34.8639 19.3112C34.8639 14.6976 31.142 10.9576 26.5507 10.9576C21.9594 10.9576 18.2375 14.6976 18.2375 19.3112C18.2375 20.6163 18.5354 21.8509 19.0667 22.9516C18.4448 22.9676 17.8348 22.9442 17.2236 22.8799C16.5632 22.8099 15.8976 22.6909 15.2111 22.5185L15.6552 21.2305C15.9475 20.3824 15.5346 19.4495 14.7116 19.1006C12.2981 18.0761 9.83533 17.4153 7.33235 17.1558V17.03C7.33235 16.3795 7.86195 15.8479 8.50879 15.8479H10.6515C11.9475 15.8479 13.0542 15.1045 13.5504 13.9013C14.0466 12.6981 13.7866 11.3862 12.8702 10.4653L11.355 8.94274C10.8973 8.48285 10.8973 7.73042 11.355 7.27053L14.5671 4.04279C15.0248 3.5829 15.7736 3.5829 16.2312 4.04279L17.7464 5.56531C18.6629 6.48622 19.9684 6.74747 21.1658 6.24888C22.3632 5.75029 23.103 4.63814 23.103 3.33588V1.18216C23.1035 0.531601 23.6331 0 24.28 0ZM21.534 44.7877C21.2281 44.4718 21.2355 43.9669 21.5493 43.6596C21.8636 43.3522 22.3661 43.3596 22.6719 43.675C24.6759 45.7388 26.668 47.8071 28.6951 49.8447C29.3788 50.5317 30.4952 50.5317 31.1789 49.8447C31.8608 49.1595 31.8608 48.0342 31.1789 47.3489C31.1817 47.3461 26.7269 42.762 26.3213 42.3443C26.0154 42.0284 26.0228 41.5235 26.3366 41.2162C26.651 40.9088 27.1534 40.9162 27.4592 41.2315C29.3052 43.1326 31.1392 45.0467 33.0067 46.9232C33.6886 47.6085 34.8084 47.6085 35.4898 46.9232C36.1735 46.2362 36.174 45.115 35.4898 44.4274C35.4926 44.4246 31.0378 39.8405 30.6323 39.4227C30.3264 39.1068 30.3338 38.602 30.6476 38.2946C30.9619 37.9873 31.4643 37.9947 31.7702 38.31C33.5408 40.1336 35.3012 41.9749 37.0916 43.7746C37.7702 44.4564 38.8968 44.4559 39.5753 43.7746C40.2698 43.0768 40.2295 41.9635 39.5629 41.2634C39.1902 40.8707 38.8181 40.4774 38.4448 40.0852C37.8988 39.8616 37.3907 39.5252 36.9483 39.0812L27.6994 29.7947C26.92 30.4333 25.7923 31.4407 25.7923 32.8198C25.7923 34.6395 24.9342 36.1307 23.6286 37.1927C22.2341 38.3271 20.3219 38.9617 18.4289 38.9617C17.9894 38.9617 17.6331 38.6037 17.6331 38.162V29.6245C17.6331 28.349 18.1248 27.2107 19.0491 26.337L21.116 24.3842C19.7101 24.572 18.3949 24.6085 17.0627 24.4667C16.2811 24.3836 15.4977 24.2408 14.6906 24.0319L9.93445 37.8319C12.3615 39.0568 14.016 40.7523 15.8699 42.6607C16.5966 43.4092 24.5756 51.6524 24.5909 51.637C25.082 52.1305 25.8914 52.1134 26.3836 51.6308C26.8889 51.1316 26.8934 50.2955 26.3921 49.7918L21.534 44.7877ZM38.2295 23.502C36.2041 23.3796 34.4686 22.8281 32.6844 22.2607C29.6388 21.2919 27.2242 20.8025 24.6124 23.2704L20.1361 27.4998C19.5193 28.0827 19.2236 28.7748 19.2236 29.6251V37.3185C20.4918 37.1774 21.7084 36.7027 22.6266 35.9559C23.5759 35.1836 24.1995 34.113 24.1995 32.8198C24.1995 30.5819 25.8699 29.2273 26.8662 28.419C26.8951 28.3951 27.2219 28.1225 27.2225 28.1231C27.5334 27.8447 28.0103 27.8544 28.31 28.1532L38.067 37.952C38.9206 38.8092 40.1027 39.0471 41.2191 38.5889C41.8965 38.3111 42.5184 38.0095 43.1239 37.7061L38.2295 23.502ZM52.5513 19.075C48.0375 18.1587 43.5238 18.6584 39.0101 20.5742C38.9585 20.5958 38.933 20.6539 38.9512 20.7074L45.3822 39.3681C45.3975 39.4119 45.4366 39.4398 45.4824 39.4398H52.5513V19.075ZM0.55127 19.075V39.4398H7.62009C7.66597 39.4398 7.70505 39.4119 7.72034 39.3681L14.1514 20.7074C14.1695 20.6545 14.144 20.5964 14.0925 20.5742C9.57874 18.6578 5.065 18.1581 0.55127 19.075Z" fill="#FF0000"/>
</svg>
