<svg width="44" height="39" viewBox="0 0 44 39" fill="none" xmlns="http://www.w3.org/2000/svg">
<path d="M38.5914 27.2375L36.5422 37.3196C36.4971 37.5412 36.3824 37.7423 36.215 37.8933C36.0476 38.0444 35.8363 38.1375 35.6122 38.1589C34.5036 38.2645 32.9221 38.407 31.9921 38.407C14.6534 38.407 0.55127 23.5425 0.55127 5.27859C0.552003 4.04436 0.616893 2.81101 0.745673 1.58358C0.773032 1.32321 0.895711 1.08235 1.08989 0.90775C1.28408 0.733148 1.53591 0.637263 1.7965 0.63871H12.5938C12.8419 0.634414 13.0834 0.718441 13.2758 0.875916C13.4681 1.03339 13.5988 1.25415 13.6446 1.49912L15.6465 12.1513C15.6762 12.3087 15.6699 12.4708 15.628 12.6254C15.5861 12.7799 15.5098 12.9229 15.4048 13.0434L12.205 16.7015C14.7127 20.5827 18.0742 23.8334 22.0303 26.2029L27.9149 22.3971C28.0596 22.3102 28.223 22.2596 28.3912 22.2495C28.5595 22.2394 28.7277 22.2701 28.8817 22.339L37.9819 26.034C38.2074 26.1315 38.3918 26.3052 38.5032 26.5251C38.6145 26.7449 38.6457 26.997 38.5914 27.2375ZM42.5004 0H21.0004C20.7217 0 20.4545 0.111227 20.2574 0.309213C20.0603 0.507199 19.9496 0.775725 19.9496 1.05572V17.9736C19.9492 18.1655 20.0008 18.3539 20.0989 18.5185C20.197 18.6831 20.338 18.8177 20.5066 18.9079C20.6752 18.998 20.8651 19.0401 21.0558 19.0299C21.2465 19.0197 21.4308 18.9574 21.5889 18.8499L26.3176 15.6352H42.5004C42.7791 15.6352 43.0464 15.524 43.2435 15.326C43.4406 15.128 43.5513 14.8595 43.5513 14.5795V1.05572C43.5513 0.775725 43.4406 0.507199 43.2435 0.309213C43.0464 0.111227 42.7791 0 42.5004 0Z" fill="#FF0000"/>
</svg>
