<svg width="60" height="41" viewBox="0 0 60 41" fill="none" xmlns="http://www.w3.org/2000/svg">
<path fill-rule="evenodd" clip-rule="evenodd" d="M32.2668 26.9294C32.2031 26.8656 32.1193 26.8259 32.0296 26.8171C31.94 26.8082 31.85 26.8308 31.7751 26.8809C31.7002 26.931 31.645 27.0056 31.6188 27.092C31.5927 27.1783 31.5973 27.271 31.6317 27.3544C31.6662 27.4377 31.7285 27.5065 31.8079 27.549C31.8874 27.5916 31.9791 27.6052 32.0675 27.5876C32.1558 27.57 32.2353 27.5222 32.2925 27.4525C32.3496 27.3827 32.3809 27.2953 32.3809 27.2051C32.3809 27.1539 32.3708 27.1032 32.3513 27.0559C32.3317 27.0086 32.303 26.9656 32.2668 26.9294ZM31.9915 24.8458C31.5623 24.8459 31.1414 24.9635 30.7742 25.1858C30.4069 25.408 30.1073 25.7266 29.9076 26.1069C29.7079 26.4873 29.6158 26.9151 29.6412 27.344C29.6666 27.773 29.8085 28.1869 30.0517 28.541C30.2948 28.8951 30.63 29.1759 31.0209 29.3531C31.4118 29.5304 31.8437 29.5973 32.2698 29.5467C32.6959 29.4961 33.1001 29.3299 33.4388 29.066C33.7775 28.8021 34.0377 28.4505 34.1914 28.0493V40.3252H26.9806V24.7197H34.1914V26.3609C34.0196 25.9164 33.7175 25.5344 33.3249 25.2649C32.9323 24.9954 32.4674 24.8512 31.9915 24.851V24.8458ZM36.4924 24.3206C36.379 24.3639 36.2669 24.406 36.1548 24.4467C36.1279 23.9877 35.927 23.5563 35.5931 23.2407C35.2593 22.925 34.8177 22.7489 34.3586 22.7484H26.8114C26.3726 22.749 25.9492 22.9109 25.6216 23.2033C25.5929 23.2262 25.5656 23.2508 25.5397 23.2768C25.3724 23.4437 25.2396 23.6421 25.149 23.8606C25.0585 24.079 25.0119 24.3132 25.012 24.5497V30.7205H22.0215V30.7237C21.7857 30.7229 21.5577 30.8078 21.3797 30.9627L9.83771 41V31.7045C9.83771 31.4433 9.73411 31.1929 9.5497 31.0082C9.3653 30.8235 9.11519 30.7198 8.85441 30.7198H1.80807C1.56702 30.7189 1.33609 30.6227 1.16565 30.452C0.995197 30.2813 0.899057 30.05 0.898193 29.8086V7.11605C0.899057 6.87466 0.995197 6.6434 1.16565 6.47271C1.33609 6.30202 1.56702 6.20575 1.80807 6.20488H35.5825C35.8238 6.2054 36.055 6.30152 36.2258 6.47225C36.3965 6.64298 36.4928 6.87443 36.4937 7.11605V24.3226L36.4924 24.3206ZM10.9456 17.5039C10.7249 17.2815 10.434 17.1427 10.1226 17.111C9.81109 17.0793 9.49829 17.1568 9.23748 17.3302C8.97666 17.5036 8.78397 17.7622 8.69223 18.062C8.60049 18.3617 8.6154 18.6841 8.7344 18.974C8.8534 19.264 9.06913 19.5037 9.34483 19.6522C9.62053 19.8008 9.93914 19.849 10.2463 19.7886C10.5536 19.7282 10.8304 19.5631 11.0296 19.3212C11.2288 19.0794 11.3381 18.7759 11.3389 18.4623C11.3395 18.2845 11.3051 18.1083 11.2376 17.9439C11.1701 17.7794 11.0709 17.6299 10.9456 17.5039ZM9.98848 15.1406C9.21996 15.1404 8.47512 15.407 7.88089 15.895C7.28666 16.3831 6.87982 17.0624 6.72969 17.8172C6.57956 18.5719 6.69544 19.3555 7.05757 20.0343C7.4197 20.7131 8.00568 21.2452 8.71566 21.5398C9.42563 21.8345 10.2157 21.8734 10.9511 21.6501C11.6866 21.4268 12.3219 20.955 12.749 20.3151C13.176 19.6752 13.3682 18.9069 13.2929 18.141C13.2176 17.3751 12.8794 16.659 12.3359 16.1148C12.0281 15.8055 11.6622 15.5601 11.2594 15.393C10.8565 15.2258 10.4246 15.14 9.98848 15.1406ZM19.6524 17.5039C19.4317 17.2815 19.1408 17.1427 18.8294 17.111C18.5179 17.0793 18.2051 17.1568 17.9443 17.3302C17.6835 17.5036 17.4908 17.7622 17.399 18.062C17.3073 18.3617 17.3222 18.6841 17.4412 18.974C17.5602 19.264 17.7759 19.5037 18.0516 19.6522C18.3273 19.8008 18.6459 19.849 18.9531 19.7886C19.2604 19.7282 19.5372 19.5631 19.7364 19.3212C19.9356 19.0794 20.0449 18.7759 20.0457 18.4623C20.0464 18.2845 20.012 18.1083 19.9445 17.9438C19.877 17.7793 19.7777 17.6298 19.6524 17.5039ZM18.6953 15.1406C17.9268 15.1404 17.1819 15.407 16.5877 15.895C15.9935 16.3831 15.5866 17.0624 15.4365 17.8172C15.2864 18.5719 15.4022 19.3555 15.7644 20.0343C16.1265 20.7131 16.7125 21.2452 17.4225 21.5398C18.1324 21.8345 18.9225 21.8734 19.6579 21.6501C20.3934 21.4268 21.0287 20.955 21.4558 20.3151C21.8828 19.6752 22.075 18.9069 21.9997 18.141C21.9244 17.3751 21.5862 16.659 21.0427 16.1148C20.7349 15.8055 20.369 15.5602 19.9661 15.3931C19.5633 15.2259 19.1314 15.1401 18.6953 15.1406ZM28.3592 17.5039C28.1373 17.2831 27.8458 17.146 27.5344 17.1162C27.223 17.0863 26.9108 17.1654 26.6511 17.3401C26.3914 17.5147 26.2001 17.7741 26.1099 18.0741C26.0196 18.374 26.036 18.6961 26.1561 18.9853C26.2763 19.2746 26.4928 19.5132 26.7689 19.6606C27.045 19.808 27.3635 19.855 27.6703 19.7936C27.9771 19.7323 28.2532 19.5664 28.4516 19.3241C28.6499 19.0819 28.7584 18.7783 28.7584 18.465C28.7587 18.2869 28.7239 18.1105 28.6558 17.946C28.5877 17.7815 28.4878 17.6322 28.3618 17.5065L28.3592 17.5039ZM27.4021 15.1406C26.6339 15.1406 25.8896 15.4074 25.2958 15.8953C24.702 16.3833 24.2955 17.0624 24.1456 17.8168C23.9957 18.5713 24.1117 19.3544 24.4738 20.0329C24.8358 20.7113 25.4216 21.243 26.1313 21.5374C26.8409 21.8318 27.6305 21.8707 28.3656 21.6475C29.1007 21.4243 29.7358 20.9527 30.1626 20.3132C30.5894 19.6736 30.7816 18.9057 30.7064 18.1401C30.6312 17.3746 30.2933 16.6588 29.7502 16.1148C29.4423 15.8055 29.0763 15.5601 28.6733 15.3929C28.2703 15.2257 27.8383 15.14 27.4021 15.1406ZM42.6885 18.5418V0.91117C42.6876 0.669779 42.5915 0.438521 42.421 0.267831C42.2506 0.0971406 42.0196 0.000864899 41.7786 0H8.00418C7.76313 0.000864899 7.5322 0.0971406 7.36175 0.267831C7.1913 0.438521 7.09516 0.669779 7.0943 0.91117V4.2355H35.5825C36.3453 4.23619 37.0767 4.53986 37.6162 5.07988C38.1557 5.6199 38.4592 6.35217 38.4603 7.11605V23.3963C39.2818 22.9193 40.0188 22.3093 40.6412 21.591C41.4121 20.5101 42.095 19.4943 42.6898 18.5437L42.6885 18.5418ZM36.158 37.9415C36.9003 38.06 37.6345 38.224 38.3567 38.4326C39.5516 38.7718 40.6994 39.2594 41.7733 39.884C41.7869 39.8916 41.8015 39.8974 41.8166 39.9011C41.8317 39.9042 41.8471 39.9055 41.8625 39.905H55.8975C56.1698 39.9035 56.4306 39.7945 56.6233 39.6017C56.8159 39.4089 56.9249 39.1478 56.9267 38.875C56.9277 38.7408 56.8988 38.608 56.8421 38.4864C56.7854 38.3648 56.7023 38.2573 56.5989 38.172C56.283 37.9383 55.8956 37.8223 55.5035 37.8437V35.8743H56.6055C56.9405 35.8724 57.2613 35.7383 57.4982 35.5009C57.7351 35.2636 57.8689 34.9423 57.8706 34.6067C57.8725 34.4398 57.8365 34.2747 57.7653 34.1238C57.6941 33.9729 57.5895 33.8401 57.4596 33.7356C57.0612 33.452 56.5781 33.313 56.0902 33.3417V31.3723H57.3816C57.7853 31.3706 58.172 31.2092 58.4574 30.9234C58.7429 30.6375 58.904 30.2503 58.9057 29.8461C58.9077 29.6427 58.863 29.4417 58.7749 29.2585C58.6868 29.0753 58.5577 28.915 58.3977 28.7898C57.9112 28.4512 57.3254 28.2857 56.7339 28.3198V26.3504H58.1263C58.5962 26.3504 59.0469 26.1634 59.3792 25.8307C59.7115 25.4979 59.8982 25.0466 59.8982 24.576C59.8982 24.1054 59.7115 23.654 59.3792 23.3213C59.0469 22.9885 58.5962 22.8016 58.1263 22.8016H50.0186C49.7579 22.8016 49.5078 22.6978 49.3233 22.5131C49.1389 22.3285 49.0353 22.078 49.0353 21.8169C49.0355 21.7787 49.0377 21.7406 49.0419 21.7026C49.0832 21.2024 49.1075 20.7652 49.1376 20.3024C49.1822 19.5547 49.2307 18.744 49.3218 17.8164C49.3362 17.6614 49.3874 17.5122 49.4713 17.3812C50.2358 16.1191 50.6119 14.6593 50.5523 13.1844C50.4256 11.8153 49.8992 10.5139 49.0386 9.44255C48.3188 9.15108 47.8648 9.07187 47.6764 9.20491C47.4881 9.33796 47.4533 9.81761 47.5722 10.6439L47.5774 10.6846C47.7466 12.0295 47.3635 13.7308 46.4283 15.7886C45.242 18.2419 43.8286 20.5784 42.2066 22.7674C42.189 22.7917 42.1713 22.814 42.1522 22.8331C40.2872 25.0237 38.0401 25.8804 36.1554 26.5289L36.158 37.9415Z" fill="#FF0000"/>
</svg>
