<svg width="43" height="42" viewBox="0 0 43 42" fill="none" xmlns="http://www.w3.org/2000/svg">
<path d="M34.4685 27.0555C33.1392 27.2203 31.8783 27.7384 30.8172 28.5559C29.7561 29.3734 28.9336 30.4605 28.4353 31.7038C27.9369 32.9472 27.781 34.3014 27.9838 35.6255C28.1866 36.9495 28.7406 38.195 29.5882 39.2323L29.0774 39.6151C28.8551 39.7821 28.691 40.0148 28.6083 40.2802C28.5255 40.5457 28.5283 40.8304 28.6164 41.0942C28.7044 41.3579 28.8731 41.5873 29.0987 41.7498C29.3243 41.9124 29.5953 41.9999 29.8733 41.9999H35.2117C37.1482 42.0231 39.0207 41.3065 40.4468 39.9962C41.8729 38.6858 42.7451 36.8807 42.8855 34.9491C42.9513 33.8497 42.7741 32.7493 42.3667 31.726C41.9593 30.7027 41.3317 29.7817 40.5283 29.0283C39.7249 28.2749 38.7656 27.7075 37.7183 27.3666C36.671 27.0257 35.5615 26.9195 34.4685 27.0555ZM38.6052 33.5399L35.2717 36.8739C35.1789 36.9668 35.0687 37.0404 34.9474 37.0907C34.8261 37.141 34.696 37.1668 34.5647 37.1668C34.4334 37.1668 34.3034 37.141 34.182 37.0907C34.0607 37.0404 33.9505 36.9668 33.8577 36.8739L32.1912 35.2069C32.0065 35.0188 31.9036 34.7654 31.9048 34.5017C31.906 34.2381 32.0112 33.9857 32.1976 33.7992C32.384 33.6128 32.6365 33.5076 32.9001 33.5064C33.1637 33.5052 33.4172 33.6082 33.6052 33.7929L34.5647 34.7529L37.1912 32.1259C37.3793 31.9412 37.6327 31.8382 37.8964 31.8394C38.16 31.8406 38.4125 31.9458 38.5989 32.1322C38.7853 32.3187 38.8905 32.5711 38.8917 32.8347C38.8929 33.0984 38.7899 33.3518 38.6052 33.5399Z" fill="#FF0000"/>
<path d="M26.7683 37C26.4053 35.7712 26.3098 34.4788 26.4883 33.21C26.7856 31.2636 27.7068 29.4663 29.1135 28.0885C30.5202 26.7107 32.3362 25.8269 34.2884 25.5701C34.6496 25.5222 35.0137 25.4987 35.3782 25.5C37.3766 25.4922 39.32 26.1541 40.8982 27.38V4C40.8967 3.47004 40.6854 2.96223 40.3107 2.58749C39.936 2.21275 39.4282 2.00154 38.8982 2H36.8982V1C36.8982 0.734784 36.7928 0.48043 36.6053 0.292893C36.4178 0.105357 36.1634 0 35.8982 0C35.633 0 35.3786 0.105357 35.1911 0.292893C35.0035 0.48043 34.8982 0.734784 34.8982 1V2H31.8982V1C31.8982 0.734784 31.7928 0.48043 31.6053 0.292893C31.4178 0.105357 31.1634 0 30.8982 0C30.633 0 30.3786 0.105357 30.1911 0.292893C30.0035 0.48043 29.8982 0.734784 29.8982 1V2H26.8982V1C26.8982 0.734784 26.7928 0.48043 26.6053 0.292893C26.4178 0.105357 26.1634 0 25.8982 0C25.633 0 25.3786 0.105357 25.1911 0.292893C25.0035 0.48043 24.8982 0.734784 24.8982 1V2H21.8982V1C21.8982 0.734784 21.7928 0.48043 21.6053 0.292893C21.4178 0.105357 21.1634 0 20.8982 0C20.633 0 20.3786 0.105357 20.1911 0.292893C20.0035 0.48043 19.8982 0.734784 19.8982 1V2H16.8982V1C16.8982 0.734784 16.7928 0.48043 16.6053 0.292893C16.4178 0.105357 16.1634 0 15.8982 0C15.633 0 15.3786 0.105357 15.1911 0.292893C15.0035 0.48043 14.8982 0.734784 14.8982 1V2H11.8982V1C11.8982 0.734784 11.7928 0.48043 11.6053 0.292893C11.4178 0.105357 11.1634 0 10.8982 0C10.633 0 10.3786 0.105357 10.1911 0.292893C10.0036 0.48043 9.89819 0.734784 9.89819 1V2H6.89819V1C6.89819 0.734784 6.79284 0.48043 6.6053 0.292893C6.41776 0.105357 6.16341 0 5.89819 0C5.63298 0 5.37862 0.105357 5.19109 0.292893C5.00355 0.48043 4.89819 0.734784 4.89819 1V2H2.89819C2.36823 2.00154 1.86042 2.21275 1.48568 2.58749C1.11094 2.96223 0.899731 3.47004 0.898193 4V34C0.900533 34.7949 1.21736 35.5566 1.77946 36.1187C2.34156 36.6808 3.10326 36.9977 3.89819 37H26.7683ZM9.89819 31H8.89819V32C8.89819 32.2652 8.79284 32.5196 8.6053 32.7071C8.41776 32.8946 8.16341 33 7.89819 33C7.63298 33 7.37862 32.8946 7.19109 32.7071C7.00355 32.5196 6.89819 32.2652 6.89819 32V30C6.89895 29.735 7.00455 29.4811 7.19193 29.2937C7.3793 29.1064 7.63321 29.0008 7.89819 29H9.89819C10.1634 29 10.4178 29.1054 10.6053 29.2929C10.7928 29.4804 10.8982 29.7348 10.8982 30C10.8982 30.2652 10.7928 30.5196 10.6053 30.7071C10.4178 30.8946 10.1634 31 9.89819 31ZM9.89819 25H8.89819V26C8.89819 26.2652 8.79284 26.5196 8.6053 26.7071C8.41776 26.8946 8.16341 27 7.89819 27C7.63298 27 7.37862 26.8946 7.19109 26.7071C7.00355 26.5196 6.89819 26.2652 6.89819 26V24C6.89895 23.735 7.00455 23.4811 7.19193 23.2937C7.3793 23.1064 7.63321 23.0008 7.89819 23H9.89819C10.1634 23 10.4178 23.1054 10.6053 23.2929C10.7928 23.4804 10.8982 23.7348 10.8982 24C10.8982 24.2652 10.7928 24.5196 10.6053 24.7071C10.4178 24.8946 10.1634 25 9.89819 25ZM9.89819 19H8.89819V20C8.89819 20.2652 8.79284 20.5196 8.6053 20.7071C8.41776 20.8946 8.16341 21 7.89819 21C7.63298 21 7.37862 20.8946 7.19109 20.7071C7.00355 20.5196 6.89819 20.2652 6.89819 20V18C6.89895 17.735 7.00455 17.4811 7.19193 17.2937C7.3793 17.1064 7.63321 17.0008 7.89819 17H9.89819C10.1634 17 10.4178 17.1054 10.6053 17.2929C10.7928 17.4804 10.8982 17.7348 10.8982 18C10.8982 18.2652 10.7928 18.5196 10.6053 18.7071C10.4178 18.8946 10.1634 19 9.89819 19ZM15.8982 31H14.8982V32C14.8982 32.2652 14.7928 32.5196 14.6053 32.7071C14.4178 32.8946 14.1634 33 13.8982 33C13.633 33 13.3786 32.8946 13.1911 32.7071C13.0036 32.5196 12.8982 32.2652 12.8982 32V30C12.899 29.735 13.0046 29.4811 13.1919 29.2937C13.3793 29.1064 13.6332 29.0008 13.8982 29H15.8982C16.1634 29 16.4178 29.1054 16.6053 29.2929C16.7928 29.4804 16.8982 29.7348 16.8982 30C16.8982 30.2652 16.7928 30.5196 16.6053 30.7071C16.4178 30.8946 16.1634 31 15.8982 31ZM15.8982 25H14.8982V26C14.8982 26.2652 14.7928 26.5196 14.6053 26.7071C14.4178 26.8946 14.1634 27 13.8982 27C13.633 27 13.3786 26.8946 13.1911 26.7071C13.0036 26.5196 12.8982 26.2652 12.8982 26V24C12.899 23.735 13.0046 23.4811 13.1919 23.2937C13.3793 23.1064 13.6332 23.0008 13.8982 23H15.8982C16.1634 23 16.4178 23.1054 16.6053 23.2929C16.7928 23.4804 16.8982 23.7348 16.8982 24C16.8982 24.2652 16.7928 24.5196 16.6053 24.7071C16.4178 24.8946 16.1634 25 15.8982 25ZM15.8982 19H14.8982V20C14.8982 20.2652 14.7928 20.5196 14.6053 20.7071C14.4178 20.8946 14.1634 21 13.8982 21C13.633 21 13.3786 20.8946 13.1911 20.7071C13.0036 20.5196 12.8982 20.2652 12.8982 20V18C12.899 17.735 13.0046 17.4811 13.1919 17.2937C13.3793 17.1064 13.6332 17.0008 13.8982 17H15.8982C16.1634 17 16.4178 17.1054 16.6053 17.2929C16.7928 17.4804 16.8982 17.7348 16.8982 18C16.8982 18.2652 16.7928 18.5196 16.6053 18.7071C16.4178 18.8946 16.1634 19 15.8982 19ZM15.8982 13H14.8982V14C14.8982 14.2652 14.7928 14.5196 14.6053 14.7071C14.4178 14.8946 14.1634 15 13.8982 15C13.633 15 13.3786 14.8946 13.1911 14.7071C13.0036 14.5196 12.8982 14.2652 12.8982 14V12C12.899 11.735 13.0046 11.4811 13.1919 11.2937C13.3793 11.1064 13.6332 11.0008 13.8982 11H15.8982C16.1634 11 16.4178 11.1054 16.6053 11.2929C16.7928 11.4804 16.8982 11.7348 16.8982 12C16.8982 12.2652 16.7928 12.5196 16.6053 12.7071C16.4178 12.8946 16.1634 13 15.8982 13ZM21.8982 31H20.8982V32C20.8982 32.2652 20.7928 32.5196 20.6053 32.7071C20.4178 32.8946 20.1634 33 19.8982 33C19.633 33 19.3786 32.8946 19.1911 32.7071C19.0035 32.5196 18.8982 32.2652 18.8982 32V30C18.899 29.735 19.0046 29.4811 19.1919 29.2937C19.3793 29.1064 19.6332 29.0008 19.8982 29H21.8982C22.1634 29 22.4178 29.1054 22.6053 29.2929C22.7928 29.4804 22.8982 29.7348 22.8982 30C22.8982 30.2652 22.7928 30.5196 22.6053 30.7071C22.4178 30.8946 22.1634 31 21.8982 31ZM21.8982 25H20.8982V26C20.8982 26.2652 20.7928 26.5196 20.6053 26.7071C20.4178 26.8946 20.1634 27 19.8982 27C19.633 27 19.3786 26.8946 19.1911 26.7071C19.0035 26.5196 18.8982 26.2652 18.8982 26V24C18.899 23.735 19.0046 23.4811 19.1919 23.2937C19.3793 23.1064 19.6332 23.0008 19.8982 23H21.8982C22.1634 23 22.4178 23.1054 22.6053 23.2929C22.7928 23.4804 22.8982 23.7348 22.8982 24C22.8982 24.2652 22.7928 24.5196 22.6053 24.7071C22.4178 24.8946 22.1634 25 21.8982 25ZM21.8982 19H20.8982V20C20.8982 20.2652 20.7928 20.5196 20.6053 20.7071C20.4178 20.8946 20.1634 21 19.8982 21C19.633 21 19.3786 20.8946 19.1911 20.7071C19.0035 20.5196 18.8982 20.2652 18.8982 20V18C18.899 17.735 19.0046 17.4811 19.1919 17.2937C19.3793 17.1064 19.6332 17.0008 19.8982 17H21.8982C22.1634 17 22.4178 17.1054 22.6053 17.2929C22.7928 17.4804 22.8982 17.7348 22.8982 18C22.8982 18.2652 22.7928 18.5196 22.6053 18.7071C22.4178 18.8946 22.1634 19 21.8982 19ZM21.8982 13H20.8982V14C20.8982 14.2652 20.7928 14.5196 20.6053 14.7071C20.4178 14.8946 20.1634 15 19.8982 15C19.633 15 19.3786 14.8946 19.1911 14.7071C19.0035 14.5196 18.8982 14.2652 18.8982 14V12C18.899 11.735 19.0046 11.4811 19.1919 11.2937C19.3793 11.1064 19.6332 11.0008 19.8982 11H21.8982C22.1634 11 22.4178 11.1054 22.6053 11.2929C22.7928 11.4804 22.8982 11.7348 22.8982 12C22.8982 12.2652 22.7928 12.5196 22.6053 12.7071C22.4178 12.8946 22.1634 13 21.8982 13ZM27.8982 25H26.8982V26C26.8982 26.2652 26.7928 26.5196 26.6053 26.7071C26.4178 26.8946 26.1634 27 25.8982 27C25.633 27 25.3786 26.8946 25.1911 26.7071C25.0035 26.5196 24.8982 26.2652 24.8982 26V24C24.899 23.735 25.0046 23.4811 25.1919 23.2937C25.3793 23.1064 25.6332 23.0008 25.8982 23H27.8982C28.1634 23 28.4178 23.1054 28.6053 23.2929C28.7928 23.4804 28.8982 23.7348 28.8982 24C28.8982 24.2652 28.7928 24.5196 28.6053 24.7071C28.4178 24.8946 28.1634 25 27.8982 25ZM27.8982 19H26.8982V20C26.8982 20.2652 26.7928 20.5196 26.6053 20.7071C26.4178 20.8946 26.1634 21 25.8982 21C25.633 21 25.3786 20.8946 25.1911 20.7071C25.0035 20.5196 24.8982 20.2652 24.8982 20V18C24.899 17.735 25.0046 17.4811 25.1919 17.2937C25.3793 17.1064 25.6332 17.0008 25.8982 17H27.8982C28.1634 17 28.4178 17.1054 28.6053 17.2929C28.7928 17.4804 28.8982 17.7348 28.8982 18C28.8982 18.2652 28.7928 18.5196 28.6053 18.7071C28.4178 18.8946 28.1634 19 27.8982 19ZM27.8982 13H26.8982V14C26.8982 14.2652 26.7928 14.5196 26.6053 14.7071C26.4178 14.8946 26.1634 15 25.8982 15C25.633 15 25.3786 14.8946 25.1911 14.7071C25.0035 14.5196 24.8982 14.2652 24.8982 14V12C24.899 11.735 25.0046 11.4811 25.1919 11.2937C25.3793 11.1064 25.6332 11.0008 25.8982 11H27.8982C28.1634 11 28.4178 11.1054 28.6053 11.2929C28.7928 11.4804 28.8982 11.7348 28.8982 12C28.8982 12.2652 28.7928 12.5196 28.6053 12.7071C28.4178 12.8946 28.1634 13 27.8982 13ZM33.8982 19H32.8982V20C32.8982 20.2652 32.7928 20.5196 32.6053 20.7071C32.4178 20.8946 32.1634 21 31.8982 21C31.633 21 31.3786 20.8946 31.1911 20.7071C31.0035 20.5196 30.8982 20.2652 30.8982 20V18C30.899 17.735 31.0046 17.4811 31.1919 17.2937C31.3793 17.1064 31.6332 17.0008 31.8982 17H33.8982C34.1634 17 34.4178 17.1054 34.6053 17.2929C34.7928 17.4804 34.8982 17.7348 34.8982 18C34.8982 18.2652 34.7928 18.5196 34.6053 18.7071C34.4178 18.8946 34.1634 19 33.8982 19ZM33.8982 13H32.8982V14C32.8982 14.2652 32.7928 14.5196 32.6053 14.7071C32.4178 14.8946 32.1634 15 31.8982 15C31.633 15 31.3786 14.8946 31.1911 14.7071C31.0035 14.5196 30.8982 14.2652 30.8982 14V12C30.899 11.735 31.0046 11.4811 31.1919 11.2937C31.3793 11.1064 31.6332 11.0008 31.8982 11H33.8982C34.1634 11 34.4178 11.1054 34.6053 11.2929C34.7928 11.4804 34.8982 11.7348 34.8982 12C34.8982 12.2652 34.7928 12.5196 34.6053 12.7071C34.4178 12.8946 34.1634 13 33.8982 13ZM2.89819 4H4.89819C4.89819 4.26522 5.00355 4.51957 5.19109 4.70711C5.37862 4.89464 5.63298 5 5.89819 5C6.16341 5 6.41776 4.89464 6.6053 4.70711C6.79284 4.51957 6.89819 4.26522 6.89819 4H9.89819C9.89819 4.26522 10.0036 4.51957 10.1911 4.70711C10.3786 4.89464 10.633 5 10.8982 5C11.1634 5 11.4178 4.89464 11.6053 4.70711C11.7928 4.51957 11.8982 4.26522 11.8982 4H14.8982C14.8982 4.26522 15.0035 4.51957 15.1911 4.70711C15.3786 4.89464 15.633 5 15.8982 5C16.1634 5 16.4178 4.89464 16.6053 4.70711C16.7928 4.51957 16.8982 4.26522 16.8982 4H19.8982C19.8982 4.26522 20.0035 4.51957 20.1911 4.70711C20.3786 4.89464 20.633 5 20.8982 5C21.1634 5 21.4178 4.89464 21.6053 4.70711C21.7928 4.51957 21.8982 4.26522 21.8982 4H24.8982C24.8982 4.26522 25.0035 4.51957 25.1911 4.70711C25.3786 4.89464 25.633 5 25.8982 5C26.1634 5 26.4178 4.89464 26.6053 4.70711C26.7928 4.51957 26.8982 4.26522 26.8982 4H29.8982C29.8982 4.26522 30.0035 4.51957 30.1911 4.70711C30.3786 4.89464 30.633 5 30.8982 5C31.1634 5 31.4178 4.89464 31.6053 4.70711C31.7928 4.51957 31.8982 4.26522 31.8982 4H34.8982C34.8982 4.26522 35.0035 4.51957 35.1911 4.70711C35.3786 4.89464 35.633 5 35.8982 5C36.1634 5 36.4178 4.89464 36.6053 4.70711C36.7928 4.51957 36.8982 4.26522 36.8982 4H38.8982V7H2.89819V4Z" fill="#FF0000"/>
</svg>
