<svg width="39" height="49" viewBox="0 0 39 49" fill="none" xmlns="http://www.w3.org/2000/svg">
<path d="M36.375 10.1656C36.375 9.02807 35.4473 8.10771 34.3008 8.10771H29.3472C28.2007 8.10771 27.2729 9.02807 27.2729 10.1656V12.8705H36.375V10.1656Z" fill="#FF0000"/>
<path d="M31.824 5.22194C33.2733 5.22194 34.4555 4.04908 34.4555 2.61093C34.4555 1.16482 33.2733 0 31.824 0C30.3746 0 29.1924 1.16482 29.1924 2.61093C29.1924 4.04908 30.3746 5.22194 31.824 5.22194Z" fill="#FF0000"/>
<path d="M24.4387 10.1656C24.4387 9.02807 23.511 8.10771 22.3645 8.10771H17.4109C16.2644 8.10771 15.3367 9.02807 15.3367 10.1656V12.8705H24.4387V10.1656Z" fill="#FF0000"/>
<path d="M19.8876 5.22194C21.337 5.22194 22.5192 4.04908 22.5192 2.61093C22.5192 1.16482 21.337 0 19.8876 0C18.4382 0 17.2561 1.16482 17.2561 2.61093C17.256 4.04908 18.4382 5.22194 19.8876 5.22194Z" fill="#FF0000"/>
<path d="M12.5024 10.1656C12.5024 9.02807 11.5747 8.10771 10.4282 8.10771H5.47462C4.32817 8.10771 3.40039 9.02807 3.40039 10.1656V12.8705H12.5024V10.1656Z" fill="#FF0000"/>
<path d="M7.95135 5.22194C9.40076 5.22194 10.583 4.04908 10.583 2.61093C10.583 1.16482 9.40076 0 7.95135 0C6.50195 0 5.31982 1.16482 5.31982 2.61093C5.31982 4.04908 6.50195 5.22194 7.95135 5.22194Z" fill="#FF0000"/>
<path d="M36.9726 14.3993H2.80273C1.68292 14.3993 0.782471 15.2927 0.782471 16.3963C0.782471 17.5075 1.68285 18.4008 2.80273 18.4008H36.9726C38.0924 18.4008 38.9928 17.5075 38.9928 16.3963C38.9928 15.2927 38.0924 14.3993 36.9726 14.3993Z" fill="#FF0000"/>
<path d="M35.5899 19.9299L22.4212 34.5075V42.2785L17.3527 40.3109V34.5075L4.19165 19.9299H35.5899Z" fill="#FF0000"/>
<path d="M19.362 49C20.8878 49 22.1248 47.7727 22.1248 46.2587C22.1248 44.7448 20.8878 43.5175 19.362 43.5175C17.8361 43.5175 16.5991 44.7448 16.5991 46.2587C16.5991 47.7727 17.8361 49 19.362 49Z" fill="#FF0000"/>
</svg>
