<svg width="48" height="48" viewBox="0 0 48 48" fill="none" xmlns="http://www.w3.org/2000/svg">
<path d="M14.563 3.24249H4.83553C4.38158 3.24249 4.0249 3.59917 4.0249 4.05312C4.0249 4.50707 4.38158 4.86374 4.83553 4.86374H14.563C15.017 4.86374 15.3736 4.50707 15.3736 4.05312C15.3736 3.59917 15.017 3.24249 14.563 3.24249Z" fill="#FF0000"/>
<path d="M44.5562 3.24249C44.1023 3.24249 43.7456 3.59917 43.7456 4.05312C43.7456 4.50707 44.1023 4.86374 44.5562 4.86374C45.0102 4.86374 45.3669 4.50707 45.3669 4.05312C45.3669 3.59917 45.0102 3.24249 44.5562 3.24249Z" fill="#FF0000"/>
<path d="M41.3138 3.24249C40.8598 3.24249 40.5032 3.59917 40.5032 4.05312C40.5032 4.50707 40.8598 4.86374 41.3138 4.86374C41.7677 4.86374 42.1244 4.50707 42.1244 4.05312C42.1244 3.59917 41.7677 3.24249 41.3138 3.24249Z" fill="#FF0000"/>
<path d="M32.3969 29.1825H8.0782C7.62425 29.1825 7.26758 29.5392 7.26758 29.9931V34.8569C7.26758 35.3108 7.62425 35.6675 8.0782 35.6675H32.3969C32.8509 35.6675 33.2076 35.3108 33.2076 34.8569V29.9931C33.2076 29.5392 32.8509 29.1825 32.3969 29.1825ZM31.5863 34.0462H8.88883V30.8037H31.5863V34.0462Z" fill="#FF0000"/>
<path d="M32.3969 37.2887H8.0782C7.62425 37.2887 7.26758 37.6454 7.26758 38.0993C7.26758 38.5533 7.62425 38.91 8.0782 38.91H32.3969C32.8509 38.91 33.2076 38.5533 33.2076 38.0993C33.2076 37.6454 32.8509 37.2887 32.3969 37.2887Z" fill="#FF0000"/>
<path fill-rule="evenodd" clip-rule="evenodd" d="M2.40372 6.48499H46.1774V1.62125H2.40372V6.48499ZM21.8587 16.2125H39.6924V14.5912H21.8587V16.2125ZM41.3137 17.0231V13.7806C41.3137 13.3267 40.957 12.97 40.5031 12.97H21.0481C20.5941 12.97 20.2375 13.3267 20.2375 13.7806V17.0231C20.2375 17.4771 20.5941 17.8337 21.0481 17.8337H40.5031C40.957 17.8337 41.3137 17.4771 41.3137 17.0231ZM41.3137 20.2656C41.3137 19.8117 40.957 19.455 40.5031 19.455H24.2906C23.8366 19.455 23.48 19.8117 23.48 20.2656C23.48 20.7196 23.8366 21.0762 24.2906 21.0762H40.5031C40.957 21.0762 41.3137 20.7196 41.3137 20.2656ZM18.6162 11.3487H42.9349V22.6975H40.5031C40.0491 22.6975 39.6924 23.0542 39.6924 23.5081V24.9024L37.5362 22.9082C37.3903 22.7623 37.1957 22.6975 36.985 22.6975H18.6162V11.3487ZM17.8056 24.3187H36.6769L39.9518 27.3505C40.0978 27.4964 40.3085 27.5612 40.5031 27.5612C40.6166 27.5612 40.73 27.545 40.8273 27.4964C41.1191 27.3667 41.3137 27.0749 41.3137 26.7506V24.3187H43.7456C44.1995 24.3187 44.5562 23.9621 44.5562 23.5081V10.5381C44.5562 10.0842 44.1995 9.72749 43.7456 9.72749H17.8056C17.3516 9.72749 16.995 10.0842 16.995 10.5381V23.5081C16.995 23.9621 17.3516 24.3187 17.8056 24.3187ZM34.8287 40.5312H12.9418C12.7311 40.5312 12.5203 40.6123 12.3744 40.7744L8.88871 44.2601V41.3581C8.88871 40.9041 8.53204 40.5474 8.07809 40.5474H5.64622V27.5774H34.8287V40.5474V40.5312ZM46.9881 0H1.5931C1.13915 0 0.782471 0.356675 0.782471 0.810624V36.4781C0.782471 36.932 1.13915 37.2887 1.5931 37.2887H4.02497V41.3418C4.02497 41.7958 4.38164 42.1525 4.83559 42.1525H7.26747V46.2056C7.26747 46.5298 7.46202 46.8217 7.77005 46.9514C7.86733 47 7.98081 47.0162 8.07809 47.0162C8.28885 47.0162 8.49961 46.9352 8.64553 46.773L13.2661 42.1525H35.6231C36.0771 42.1525 36.4337 41.7958 36.4337 41.3418V37.2887H46.9718C47.4258 37.2887 47.7825 36.932 47.7825 36.4781V0.810624C47.7825 0.356675 47.4258 0 46.9718 0H46.9881Z" fill="#FF0000"/>
</svg>
