<svg width="55" height="35" viewBox="0 0 55 35" fill="none" xmlns="http://www.w3.org/2000/svg">
<path d="M26.2642 29.9318H4.86828C4.75596 29.9318 4.64365 29.8195 4.64365 29.7072V8.70437H37.1587V13.6462C37.7203 13.5339 38.338 13.4777 38.8996 13.4777C39.6296 13.4777 40.3035 13.5901 40.9774 13.7024V2.97633C40.9774 1.34777 39.6296 0 38.001 0H3.74513C2.11657 0 0.768799 1.34777 0.768799 2.97633V30.8303C0.768799 32.4589 2.11657 33.8067 3.74513 33.8067H27.0504C26.545 33.0766 26.208 32.1781 26.208 31.2234V29.9318H26.2642ZM13.5165 3.03249C14.1904 3.03249 14.8081 3.59406 14.8081 4.32411C14.8081 4.99799 14.2465 5.61572 13.5165 5.61572C12.7864 5.61572 12.2249 5.05415 12.2249 4.32411C12.2249 3.65022 12.7864 3.03249 13.5165 3.03249ZM9.64164 3.03249C10.3155 3.03249 10.9333 3.59406 10.9333 4.32411C10.9333 4.99799 10.3717 5.61572 9.64164 5.61572C8.9116 5.61572 8.35003 5.05415 8.35003 4.32411C8.35003 3.65022 8.9116 3.03249 9.64164 3.03249ZM5.76679 3.03249C6.49684 3.03249 7.05841 3.59406 7.05841 4.32411C7.05841 4.99799 6.49684 5.61572 5.76679 5.61572C5.09291 5.61572 4.47518 5.05415 4.47518 4.32411C4.47518 3.65022 5.03675 3.03249 5.76679 3.03249Z" fill="#FF0000"/>
<path d="M18.1215 18.1387C18.1215 17.858 17.953 17.5772 17.7284 17.4087L11.0457 12.8038C10.5964 12.4669 10.1471 12.6915 10.0348 12.8038C9.69788 13.0284 9.58556 13.3654 9.64172 13.7585L11.1018 21.7328C11.158 22.0136 11.3264 22.2382 11.6072 22.3505C11.888 22.4629 12.1688 22.4629 12.3934 22.2944L13.9658 21.2836L16.6614 25.4392C17.0545 26.0569 17.8407 26.2254 18.4584 25.8323C19.0761 25.4392 19.2446 24.653 18.8515 24.0353L16.156 19.8796L17.7284 18.8688C17.953 18.7003 18.1215 18.4195 18.1215 18.1387Z" fill="#FF0000"/>
<path d="M38.9557 28.4156C38.1134 28.4156 37.271 28.3033 36.4848 28.0786L28.8474 25.7762V31.2234C28.8474 32.122 29.4651 32.9643 30.3075 33.2451L33.5646 34.1998C37.1587 35.2668 40.9212 35.2668 44.5153 34.1998L47.7724 33.2451C48.6709 32.9643 49.2325 32.1781 49.2325 31.2234V25.72L41.3705 28.0786C40.5843 28.2471 39.7981 28.4156 38.9557 28.4156Z" fill="#FF0000"/>
<path d="M53.5004 21.789C54.3989 21.5082 54.3989 20.2728 53.5004 20.0481L40.865 16.2856C40.2473 16.1171 39.5734 16.0048 38.8995 16.0048C38.2256 16.0048 37.6079 16.1171 36.9902 16.2856L24.3548 20.0481C23.4563 20.3289 23.4563 21.5644 24.3548 21.789L36.9902 25.5516C37.6079 25.72 38.2818 25.8323 38.8995 25.8323C39.5734 25.8323 40.1911 25.72 40.865 25.5516L51.7595 22.2944V26.7309H51.6472C51.4226 26.7309 51.2541 26.8993 51.2541 27.124V29.2018C51.2541 29.4264 51.4226 29.5949 51.6472 29.5949H51.7034L51.0295 30.8865C50.9172 31.1673 51.0856 31.4481 51.3664 31.4481H53.3319C53.6127 31.4481 53.8373 31.1111 53.6689 30.8865L52.995 29.5949H53.0511C53.2758 29.5949 53.4442 29.4264 53.4442 29.2018V27.124C53.4442 26.8993 53.2758 26.7309 53.0511 26.7309H52.8827V21.9575L53.5004 21.789Z" fill="#FF0000"/>
</svg>
