<svg width="42" height="41" viewBox="0 0 42 41" fill="none" xmlns="http://www.w3.org/2000/svg">
<path d="M39.0657 3.41669H24.7157V6.15002H38.3823V28.7H5.58233V19.1334H2.849V32.1167C2.849 33.2784 3.73733 34.1667 4.899 34.1667H39.0657C40.2273 34.1667 41.1157 33.2784 41.1157 32.1167V5.46669C41.1157 4.30502 40.2273 3.41669 39.0657 3.41669ZM21.9823 32.8C21.2307 32.8 20.6157 32.185 20.6157 31.4334C20.6157 30.6817 21.2307 30.0667 21.9823 30.0667C22.734 30.0667 23.349 30.6817 23.349 31.4334C23.349 32.185 22.734 32.8 21.9823 32.8Z" fill="#FF0000"/>
<path d="M30.8657 36.9H26.0824V35.5333H17.8824V36.9H13.0991C11.9374 36.9 11.0491 37.7883 11.0491 38.95V41H32.9157V38.95C32.9157 37.7883 32.0274 36.9 30.8657 36.9Z" fill="#FF0000"/>
<path d="M35.6491 25.9667H8.31576V19.1333H6.9491V27.3333H37.0158V7.51666H24.7158V11.6167H35.6491V25.9667ZM29.4991 10.25C29.0891 10.25 28.8158 9.97666 28.8158 9.56666C28.8158 9.15666 29.0891 8.88333 29.4991 8.88333C29.9091 8.88333 30.1824 9.15666 30.1824 9.56666C30.1824 9.97666 29.9091 10.25 29.4991 10.25ZM32.2324 10.25C31.8224 10.25 31.5491 9.97666 31.5491 9.56666C31.5491 9.15666 31.8224 8.88333 32.2324 8.88333C32.6424 8.88333 32.9158 9.15666 32.9158 9.56666C32.9158 9.97666 32.6424 10.25 32.2324 10.25ZM34.9658 10.25C34.5558 10.25 34.2824 9.97666 34.2824 9.56666C34.2824 9.15666 34.5558 8.88333 34.9658 8.88333C35.3758 8.88333 35.6491 9.15666 35.6491 9.56666C35.6491 9.97666 35.3758 10.25 34.9658 10.25Z" fill="#FF0000"/>
<path d="M23.3491 12.6417V5.125L14.8757 8.88333L23.3491 12.6417Z" fill="#FF0000"/>
<path d="M23.3491 3.62167V1.36667C23.3491 0.615 22.7341 0 21.9824 0H1.48239C0.730723 0 0.115723 0.615 0.115723 1.36667V3.69L11.7324 8.815L23.3491 3.62167Z" fill="#FF0000"/>
<path d="M23.3491 16.4001V14.1451L13.1674 9.63507L11.7324 10.3184L10.2974 9.7034L0.115723 14.1451V16.4001C0.115723 17.1517 0.730723 17.7667 1.48239 17.7667H21.9824C22.7341 17.7667 23.3491 17.1517 23.3491 16.4001Z" fill="#FF0000"/>
<path d="M0.115723 5.125V12.6417L8.58906 8.88333L0.115723 5.125Z" fill="#FF0000"/>
</svg>
