<svg width="44" height="43" viewBox="0 0 44 43" fill="none" xmlns="http://www.w3.org/2000/svg">
<path d="M36.359 0.646261C36.1585 0.44165 35.9192 0.2791 35.6552 0.168129C35.3911 0.057159 35.1075 0 34.821 0C34.5346 0 34.251 0.057159 33.9869 0.168129C33.7228 0.2791 33.4836 0.44165 33.2831 0.646261L27.162 6.7498C26.9579 6.95058 26.7958 7.18997 26.6852 7.45401C26.5746 7.71806 26.5176 8.00148 26.5176 8.28777C26.5176 8.57405 26.5746 8.85747 26.6852 9.12152C26.7958 9.38556 26.9579 9.62495 27.162 9.82573L33.2743 15.9425C33.4748 16.1471 33.7141 16.3096 33.9781 16.4206C34.2422 16.5316 34.5258 16.5887 34.8123 16.5887C35.0987 16.5887 35.3823 16.5316 35.6464 16.4206C35.9105 16.3096 36.1497 16.1471 36.3502 15.9425L42.4713 9.83013C42.6754 9.62935 42.8375 9.38996 42.9481 9.12591C43.0587 8.86187 43.1157 8.57845 43.1157 8.29216C43.1157 8.00588 43.0587 7.72245 42.9481 7.45841C42.8375 7.19436 42.6754 6.95497 42.4713 6.75419L36.359 0.646261Z" fill="#FF0000"/>
<path d="M7.76163 0.64624C6.24941 0.64624 4.77115 1.09466 3.51379 1.93481C2.25643 2.77495 1.27644 3.96908 0.697736 5.36618C0.119036 6.76329 -0.0323788 8.30062 0.26264 9.78378C0.557659 11.2669 1.28586 12.6293 2.35516 13.6986C3.42446 14.7679 4.78683 15.4961 6.26998 15.7911C7.75314 16.0861 9.29048 15.9347 10.6876 15.356C12.0847 14.7773 13.2788 13.7973 14.119 12.54C14.9591 11.2826 15.4075 9.80436 15.4075 8.29214C15.4052 6.26503 14.5989 4.32162 13.1655 2.88824C11.7321 1.45486 9.78873 0.648566 7.76163 0.64624Z" fill="#FF0000"/>
<path d="M19.6304 6.25335L20.7509 7.18931H16.6951V9.38641H20.7509L19.6304 10.3224L21.0409 12.0097L25.4879 8.28786L21.0409 4.57037L19.6304 6.25335Z" fill="#FF0000"/>
<path d="M33.7181 17.7836V21.8351L32.7821 20.7146L31.0947 22.1251L34.8166 26.572L38.5385 22.1251L36.8511 20.7146L35.9152 21.8351V17.7836H33.7181Z" fill="#FF0000"/>
<path d="M14.3178 28.4089H1.20557V41.5212H14.3178V28.4089Z" fill="#FF0000"/>
<path d="M34.7992 27.3146C33.287 27.3146 31.8087 27.763 30.5514 28.6031C29.294 29.4433 28.314 30.6374 27.7353 32.0345C27.1566 33.4316 27.0052 34.969 27.3002 36.4521C27.5953 37.9353 28.3235 39.2976 29.3928 40.3669C30.4621 41.4362 31.8244 42.1644 33.3076 42.4595C34.7907 42.7545 36.3281 42.6031 37.7252 42.0244C39.1223 41.4457 40.3164 40.4657 41.1566 39.2083C41.9967 37.9509 42.4451 36.4727 42.4451 34.9605C42.4428 32.9334 41.6365 30.99 40.2031 29.5566C38.7697 28.1232 36.8263 27.3169 34.7992 27.3146Z" fill="#FF0000"/>
<path d="M22.5525 32.9304L21.142 31.243L16.6951 34.9605L21.142 38.6824L22.5525 36.9994L21.4364 36.059H25.4879V33.8619H21.4364L22.5525 32.9304Z" fill="#FF0000"/>
</svg>
