<svg width="47" height="34" viewBox="0 0 47 34" fill="none" xmlns="http://www.w3.org/2000/svg">
<path d="M41.9643 0H5.03571C2.26603 0 0 2.26603 0 5.03571V28.5357C0 31.3053 2.26603 33.5714 5.03571 33.5714H41.9643C44.734 33.5714 47 31.3053 47 28.5357V5.03571C47 2.26603 44.734 0 41.9643 0ZM23.7014 17.155L21.7375 19.5889L21.9053 22.6942C21.9557 23.6678 21.5193 24.591 20.7303 25.1618C19.9414 25.7324 18.9343 25.8667 18.0278 25.5143L15.1071 24.3896L12.1864 25.5143C11.8507 25.6485 11.515 25.6989 11.1625 25.6989C10.575 25.6989 9.98752 25.5143 9.48397 25.1618C8.69499 24.591 8.25854 23.6678 8.30895 22.6942L8.47677 19.5889L6.51287 17.155C5.9086 16.3996 5.70718 15.3925 6.00931 14.4693C6.31145 13.5461 7.05002 12.841 7.99002 12.5893L11.0114 11.7835L12.7068 9.16493C13.244 8.35925 14.1335 7.8725 15.1071 7.8725C16.0807 7.8725 16.9703 8.35925 17.5075 9.16493L19.2029 11.7835L22.2243 12.5893C23.1643 12.841 23.9028 13.5461 24.205 14.4693C24.5071 15.3925 24.3057 16.3996 23.7014 17.155ZM39.4464 21.8214H29.375C28.4518 21.8214 27.6964 21.0661 27.6964 20.1429C27.6964 19.2197 28.4518 18.4643 29.375 18.4643H39.4464C40.3696 18.4643 41.125 19.2197 41.125 20.1429C41.125 21.0661 40.3696 21.8214 39.4464 21.8214ZM39.4464 15.1071H29.375C28.4518 15.1071 27.6964 14.3518 27.6964 13.4286C27.6964 12.5054 28.4518 11.75 29.375 11.75H39.4464C40.3696 11.75 41.125 12.5054 41.125 13.4286C41.125 14.3518 40.3696 15.1071 39.4464 15.1071Z" fill="#FF0000"/>
<path d="M16.5003 13.781L15.1071 11.6493L13.7138 13.781C13.3278 14.3686 12.7403 14.7882 12.0689 14.9728L9.60132 15.6443L11.2128 17.625C11.6492 18.1622 11.8843 18.8503 11.8338 19.5553L11.6995 22.1068L14.0832 21.1836C14.7378 20.9317 15.4763 20.9317 16.131 21.2004L18.5146 22.1068L18.3803 19.5721C18.3299 18.8503 18.5649 18.1622 19.0014 17.6082L20.6128 15.6443L18.1453 14.9728C17.4738 14.7882 16.8864 14.3686 16.5003 13.781Z" fill="#FF0000"/>
</svg>
