<svg width="46" height="42" viewBox="0 0 46 42" fill="none" xmlns="http://www.w3.org/2000/svg">
<path d="M0 0V26.705H22V0H0ZM11.125 20.227C7.334 20.227 4.25 17.143 4.25 13.352C4.25 9.561 7.334 6.477 11.125 6.477C14.916 6.477 18 9.561 18 13.352C18 17.143 14.916 20.227 11.125 20.227Z" fill="#FF0000"/>
<path d="M34.875 8.47699C32.187 8.47699 30 10.664 30 13.352C30 16.04 32.187 18.227 34.875 18.227C37.563 18.227 39.75 16.04 39.75 13.352C39.75 10.664 37.563 8.47699 34.875 8.47699ZM37.201 14.264C37.592 14.655 37.592 15.287 37.201 15.678C37.006 15.873 36.75 15.971 36.494 15.971C36.238 15.971 35.982 15.873 35.787 15.678L34.875 14.766L33.963 15.678C33.768 15.873 33.512 15.971 33.256 15.971C33 15.971 32.744 15.873 32.549 15.678C32.158 15.287 32.158 14.655 32.549 14.264L33.461 13.352L32.549 12.44C32.158 12.049 32.158 11.417 32.549 11.026C32.94 10.635 33.572 10.635 33.963 11.026L34.875 11.938L35.787 11.026C36.178 10.635 36.81 10.635 37.201 11.026C37.592 11.417 37.592 12.049 37.201 12.44L36.289 13.352L37.201 14.264Z" fill="#FF0000"/>
<path d="M11.125 8.47699C8.437 8.47699 6.25 10.664 6.25 13.352C6.25 16.04 8.437 18.227 11.125 18.227C13.813 18.227 16 16.04 16 13.352C16 10.664 13.813 8.47699 11.125 8.47699ZM14.362 12.409L11.39 15.647C11.329 15.713 11.252 15.751 11.179 15.797C11.139 15.822 11.106 15.86 11.063 15.879C10.933 15.938 10.793 15.971 10.652 15.971C10.537 15.971 10.423 15.949 10.312 15.908C10.276 15.895 10.246 15.869 10.211 15.852C10.149 15.821 10.085 15.797 10.029 15.752L8.001 14.133C7.569 13.788 7.499 13.159 7.843 12.727C8.189 12.296 8.817 12.226 9.249 12.569L10.548 13.606L12.888 11.056C13.262 10.649 13.893 10.621 14.301 10.995C14.708 11.37 14.735 12.002 14.362 12.409Z" fill="#FF0000"/>
<path d="M46 0H24V26.705H46V0ZM34.875 20.227C31.084 20.227 28 17.143 28 13.352C28 9.561 31.084 6.477 34.875 6.477C38.666 6.477 41.75 9.561 41.75 13.352C41.75 17.143 38.666 20.227 34.875 20.227Z" fill="#FF0000"/>
<path d="M46 28.705H0V33.293H46V28.705ZM24.848 31.999H21.153C20.601 31.999 20.153 31.552 20.153 30.999C20.153 30.446 20.601 29.999 21.153 29.999H24.848C25.401 29.999 25.848 30.446 25.848 30.999C25.848 31.552 25.4 31.999 24.848 31.999Z" fill="#FF0000"/>
<path d="M36.176 39.88H24V35.292H22V39.88H9.823C9.271 39.88 8.823 40.327 8.823 40.88C8.823 41.433 9.271 41.88 9.823 41.88H36.176C36.729 41.88 37.176 41.433 37.176 40.88C37.176 40.327 36.729 39.88 36.176 39.88Z" fill="#FF0000"/>
</svg>
