<svg width="41" height="37" viewBox="0 0 41 37" fill="none" xmlns="http://www.w3.org/2000/svg">
<path d="M22.5993 28.9531L34.9548 16.5977V17.026V32.9388C34.9548 35.178 33.1326 37.0001 30.8934 37.0001H4.06131C1.82219 37.0001 0 35.178 0 32.9388V12.0324H25.396L15.5373 21.8911C14.9855 22.443 14.6011 23.1362 14.4247 23.8978L12.874 30.6184C12.8098 30.898 12.8935 31.1906 13.0967 31.3938C13.2926 31.5897 13.5789 31.682 13.872 31.6165L20.5927 30.0658C21.3534 29.8894 22.0475 29.505 22.5993 28.9531ZM16.7142 23.068C16.3834 23.3996 16.1526 23.8157 16.0469 24.2717L14.7953 29.6951L20.2172 28.4443C20.6747 28.3387 21.0909 28.107 21.4225 27.7762L37.814 11.3847L33.1058 6.67642L16.7142 23.068ZM27.0605 10.3679H0V4.44217C0 2.20305 1.82219 0.380859 4.06131 0.380859H30.8934C32.5567 0.380859 33.9734 1.39426 34.5988 2.82968C31.5019 5.9266 30.1459 7.28254 27.0605 10.3679ZM6.65805 6.20665C6.65805 5.74664 6.28581 5.3744 5.82579 5.3744H4.16128C3.70126 5.3744 3.32903 5.74664 3.32903 6.20665C3.32903 6.66667 3.70126 7.03891 4.16128 7.03891H5.82579C6.28581 7.03891 6.65805 6.66667 6.65805 6.20665ZM11.6516 6.20665C11.6516 5.74664 11.2793 5.3744 10.8193 5.3744H9.15482C8.6948 5.3744 8.32256 5.74664 8.32256 6.20665C8.32256 6.66667 8.6948 7.03891 9.15482 7.03891H10.8193C11.2793 7.03891 11.6516 6.66667 11.6516 6.20665ZM16.6451 6.20665C16.6451 5.74664 16.2729 5.3744 15.8129 5.3744H14.1484C13.6883 5.3744 13.3161 5.74664 13.3161 6.20665C13.3161 6.66667 13.6883 7.03891 14.1484 7.03891H15.8129C16.2729 7.03891 16.6451 6.66667 16.6451 6.20665ZM40.7562 7.26567L37.2256 3.73427C37.0858 3.59447 36.8712 3.51482 36.6372 3.51482C36.4023 3.51482 36.1877 3.59447 36.0479 3.73427L34.2826 5.49956L38.9909 10.2078L40.7562 8.44253C40.9155 8.28242 41 8.07923 41 7.8541C41 7.62897 40.9155 7.42578 40.7562 7.26567Z" fill="#FF0000"/>
</svg>
