<svg width="52" height="51" viewBox="0 0 52 51" fill="none" xmlns="http://www.w3.org/2000/svg">
<path d="M39.2848 9.55179C39.2825 10.6166 38.8584 11.6372 38.1054 12.3902C37.3525 13.1431 36.3319 13.5672 35.267 13.5696H15.6246C15.0326 13.5696 14.4649 13.8047 14.0463 14.2233C13.6277 14.6419 13.3925 15.2097 13.3925 15.8017C13.3925 16.3936 13.6277 16.9614 14.0463 17.38C14.4649 17.7986 15.0326 18.0337 15.6246 18.0337H34.3742C35.4398 18.0337 36.4617 18.457 37.2152 19.2105C37.9687 19.964 38.392 20.9859 38.392 22.0515C38.392 23.1171 37.9687 24.139 37.2152 24.8925C36.4617 25.646 35.4398 26.0693 34.3742 26.0693H15.6246C15.0326 26.0693 14.4649 26.3044 14.0463 26.723C13.6277 27.1416 13.3925 27.7094 13.3925 28.3014C13.3925 28.8934 13.6277 29.4611 14.0463 29.8797C14.4649 30.2983 15.0326 30.5335 15.6246 30.5335H34.3742C35.4398 30.5335 36.4617 30.9568 37.2152 31.7102C37.9687 32.4637 38.392 33.4857 38.392 34.5512C38.392 35.6168 37.9687 36.6387 37.2152 37.3922C36.4617 38.1457 35.4398 38.569 34.3742 38.569H15.6246C15.0326 38.569 14.4649 38.8042 14.0463 39.2228C13.6277 39.6414 13.3925 40.2091 13.3925 40.8011C13.3925 41.3931 13.6277 41.9608 14.0463 42.3794C14.4649 42.798 15.0326 43.0332 15.6246 43.0332H43.749V4.64119C43.749 3.45721 43.2787 2.32173 42.4415 1.48453C41.6043 0.647334 40.4688 0.177002 39.2848 0.177002H12.4997C11.3157 0.177002 10.1802 0.647334 9.34305 1.48453C8.50585 2.32173 8.03552 3.45721 8.03552 4.64119V5.53402H35.267C36.3319 5.53638 37.3525 5.96044 38.1054 6.71341C38.8584 7.46637 39.2825 8.48694 39.2848 9.55179Z" fill="#FF0000"/>
<path d="M11.6069 40.8012C11.6092 39.7364 12.0333 38.7158 12.7863 37.9628C13.5392 37.2099 14.5598 36.7858 15.6246 36.7834H34.3742C34.9662 36.7834 35.5339 36.5483 35.9525 36.1297C36.3711 35.7111 36.6063 35.1433 36.6063 34.5514C36.6063 33.9594 36.3711 33.3916 35.9525 32.973C35.5339 32.5544 34.9662 32.3193 34.3742 32.3193H15.6246C14.5591 32.3193 13.5371 31.896 12.7836 31.1425C12.0302 30.389 11.6069 29.3671 11.6069 28.3015C11.6069 27.2359 12.0302 26.214 12.7836 25.4605C13.5371 24.707 14.5591 24.2837 15.6246 24.2837H34.3742C34.9662 24.2837 35.5339 24.0486 35.9525 23.63C36.3711 23.2114 36.6063 22.6436 36.6063 22.0516C36.6063 21.4596 36.3711 20.8919 35.9525 20.4733C35.5339 20.0547 34.9662 19.8195 34.3742 19.8195H15.6246C14.5591 19.8195 13.5371 19.3962 12.7836 18.6428C12.0302 17.8893 11.6069 16.8674 11.6069 15.8018C11.6069 14.7362 12.0302 13.7143 12.7836 12.9608C13.5371 12.2073 14.5591 11.784 15.6246 11.784H35.267C35.859 11.784 36.4268 11.5488 36.8454 11.1302C37.264 10.7116 37.4991 10.1439 37.4991 9.55192C37.4991 8.95993 37.264 8.39219 36.8454 7.97359C36.4268 7.55499 35.859 7.31982 35.267 7.31982H8.03552V45.7118C8.03552 46.8958 8.50585 48.0313 9.34305 48.8685C10.1802 49.7057 11.3157 50.176 12.4997 50.176H39.2848C40.4688 50.176 41.6043 49.7057 42.4415 48.8685C43.2787 48.0313 43.749 46.8958 43.749 45.7118V44.819H15.6246C14.5598 44.8166 13.5392 44.3926 12.7863 43.6396C12.0333 42.8866 11.6092 41.8661 11.6069 40.8012Z" fill="#FF0000"/>
<path d="M8.03553 7.31961V5.53394H0.892837C0.656042 5.53394 0.428945 5.628 0.261506 5.79544C0.0940664 5.96288 0 6.18998 0 6.42677C0 6.66357 0.0940664 6.89066 0.261506 7.0581C0.428945 7.22554 0.656042 7.31961 0.892837 7.31961H8.03553Z" fill="#FF0000"/>
<path d="M48.981 44.8188L45.74 48.7116C45.5885 48.894 45.5156 49.129 45.5374 49.3651C45.5591 49.6012 45.6738 49.819 45.8561 49.9705C46.0385 50.1221 46.2735 50.195 46.5096 50.1732C46.7457 50.1514 46.9635 50.0368 47.115 49.8544L51.5792 44.4974C51.6544 44.4072 51.711 44.303 51.7459 44.1909C51.7807 44.0788 51.7931 43.9608 51.7824 43.8439C51.7716 43.727 51.7378 43.6133 51.6831 43.5094C51.6283 43.4055 51.5535 43.3135 51.4631 43.2385L46.1061 38.7743C45.9238 38.6228 45.6887 38.5499 45.4526 38.5716C45.2165 38.5934 44.9988 38.7081 44.8472 38.8904C44.6957 39.0727 44.6228 39.3078 44.6445 39.5439C44.6663 39.78 44.781 39.9978 44.9633 40.1493L48.4275 43.0332H43.749V44.8188H48.981Z" fill="#FF0000"/>
</svg>
