<svg width="37" height="49" viewBox="0 0 37 49" fill="none" xmlns="http://www.w3.org/2000/svg">
<path d="M36.7909 9.29026L28.7474 0.442437C28.6722 0.359112 28.5804 0.29245 28.4779 0.246735C28.3754 0.201021 28.2644 0.177267 28.1522 0.177002H2.41304C1.77306 0.177002 1.1593 0.431233 0.706764 0.883766C0.25423 1.3363 0 1.95007 0 2.59005V46.0248C0 46.6648 0.25423 47.2786 0.706764 47.7311C1.1593 48.1836 1.77306 48.4379 2.41304 48.4379H34.587C35.2269 48.4379 35.8407 48.1836 36.2932 47.7311C36.7458 47.2786 37 46.6648 37 46.0248V9.82918C36.9995 9.62983 36.925 9.43778 36.7909 9.29026ZM3.21739 15.4596C3.21739 13.753 3.89534 12.1163 5.1021 10.9095C6.30885 9.70278 7.94556 9.02483 9.65217 9.02483C9.8655 9.02483 10.0701 9.10957 10.2209 9.26042C10.3718 9.41126 10.4565 9.61585 10.4565 9.82918V15.4596H15.2183C15.3341 15.4585 15.4488 15.4824 15.5545 15.5296C15.6602 15.5769 15.7545 15.6464 15.8309 15.7335C15.9072 15.8206 15.9639 15.9231 15.997 16.0341C16.0301 16.1451 16.0388 16.2619 16.0226 16.3766C15.7929 17.9889 14.9603 19.4542 13.6928 20.4769C12.4252 21.4996 10.8171 22.0035 9.19256 21.8872C7.56807 21.7709 6.04812 21.0429 4.93924 19.8501C3.83036 18.6572 3.21505 17.0883 3.21739 15.4596ZM11.2609 40.3944C11.2609 40.6077 11.1761 40.8123 11.0253 40.9632C10.8744 41.114 10.6698 41.1987 10.4565 41.1987H7.23913C7.0258 41.1987 6.82121 41.114 6.67037 40.9632C6.51953 40.8123 6.43478 40.6077 6.43478 40.3944V35.5683C6.43478 35.355 6.51953 35.1504 6.67037 34.9995C6.82121 34.8487 7.0258 34.764 7.23913 34.764H10.4565C10.6698 34.764 10.8744 34.8487 11.0253 34.9995C11.1761 35.1504 11.2609 35.355 11.2609 35.5683V40.3944ZM17.6957 40.3944C17.6957 40.6077 17.6109 40.8123 17.4601 40.9632C17.3092 41.114 17.1046 41.1987 16.8913 41.1987H13.6739C13.4606 41.1987 13.256 41.114 13.1052 40.9632C12.9543 40.8123 12.8696 40.6077 12.8696 40.3944V33.1553C12.8696 32.9419 12.9543 32.7373 13.1052 32.5865C13.256 32.4357 13.4606 32.3509 13.6739 32.3509H16.8913C17.1046 32.3509 17.3092 32.4357 17.4601 32.5865C17.6109 32.7373 17.6957 32.9419 17.6957 33.1553V40.3944ZM17.5991 13.2155C17.5599 13.3984 17.4581 13.5619 17.3113 13.6779C17.1645 13.7939 16.9818 13.8551 16.7948 13.8509H12.8696C12.6562 13.8509 12.4516 13.7662 12.3008 13.6153C12.15 13.4645 12.0652 13.2599 12.0652 13.0466V8.22048C12.0652 8.00715 12.15 7.80257 12.3008 7.65172C12.4516 7.50088 12.6562 7.41613 12.8696 7.41613C14.1495 7.41613 15.3771 7.92459 16.2821 8.82966C17.1872 9.73473 17.6957 10.9623 17.6957 12.2422C17.6978 12.5691 17.6655 12.8954 17.5991 13.2155ZM24.1304 40.3944C24.1304 40.6077 24.0457 40.8123 23.8948 40.9632C23.744 41.114 23.5394 41.1987 23.3261 41.1987H20.1087C19.8954 41.1987 19.6908 41.114 19.5399 40.9632C19.3891 40.8123 19.3043 40.6077 19.3043 40.3944V29.9379C19.3043 29.7245 19.3891 29.52 19.5399 29.3691C19.6908 29.2183 19.8954 29.1335 20.1087 29.1335H23.3261C23.5394 29.1335 23.744 29.2183 23.8948 29.3691C24.0457 29.52 24.1304 29.7245 24.1304 29.9379V40.3944ZM30.5652 40.3944C30.5652 40.6077 30.4805 40.8123 30.3296 40.9632C30.1788 41.114 29.9742 41.1987 29.7609 41.1987H26.5435C26.3302 41.1987 26.1256 41.114 25.9747 40.9632C25.8239 40.8123 25.7391 40.6077 25.7391 40.3944V26.7205C25.7391 26.5072 25.8239 26.3026 25.9747 26.1517C26.1256 26.0009 26.3302 25.9161 26.5435 25.9161H29.7609C29.9742 25.9161 30.1788 26.0009 30.3296 26.1517C30.4805 26.3026 30.5652 26.5072 30.5652 26.7205V40.3944ZM32.1739 21.09H20.913C20.6997 21.09 20.4951 21.0053 20.3443 20.8545C20.1934 20.7036 20.1087 20.499 20.1087 20.2857C20.1087 20.0724 20.1934 19.8678 20.3443 19.7169C20.4951 19.5661 20.6997 19.4813 20.913 19.4813H32.1739C32.3872 19.4813 32.5918 19.5661 32.7427 19.7169C32.8935 19.8678 32.9783 20.0724 32.9783 20.2857C32.9783 20.499 32.8935 20.7036 32.7427 20.8545C32.5918 21.0053 32.3872 21.09 32.1739 21.09ZM32.1739 17.8727H20.913C20.6997 17.8727 20.4951 17.7879 20.3443 17.6371C20.1934 17.4862 20.1087 17.2816 20.1087 17.0683C20.1087 16.855 20.1934 16.6504 20.3443 16.4995C20.4951 16.3487 20.6997 16.264 20.913 16.264H32.1739C32.3872 16.264 32.5918 16.3487 32.7427 16.4995C32.8935 16.6504 32.9783 16.855 32.9783 17.0683C32.9783 17.2816 32.8935 17.4862 32.7427 17.6371C32.5918 17.7879 32.3872 17.8727 32.1739 17.8727ZM32.1739 14.6553H20.913C20.6997 14.6553 20.4951 14.5705 20.3443 14.4197C20.1934 14.2688 20.1087 14.0642 20.1087 13.8509C20.1087 13.6376 20.1934 13.433 20.3443 13.2822C20.4951 13.1313 20.6997 13.0466 20.913 13.0466H32.1739C32.3872 13.0466 32.5918 13.1313 32.7427 13.2822C32.8935 13.433 32.9783 13.6376 32.9783 13.8509C32.9783 14.0642 32.8935 14.2688 32.7427 14.4197C32.5918 14.5705 32.3872 14.6553 32.1739 14.6553ZM29.7609 9.02483C29.5475 9.02483 29.343 8.94008 29.1921 8.78924C29.0413 8.6384 28.9565 8.43381 28.9565 8.22048V3.06461L34.3778 9.02483H29.7609Z" fill="#FF0000"/>
</svg>
