<svg width="54" height="55" viewBox="0 0 54 55" fill="none" xmlns="http://www.w3.org/2000/svg">
<path d="M53.6459 19.212L43.5809 2.26653C42.3868 0.219426 40.1691 -0.349206 38.4632 0.674344L11.6234 16.6531C10.145 17.506 9.51947 19.2688 10.2018 21.0316C7.87042 22.5101 4.06055 37.0672 4.06055 37.0672L0.762448 39.7967C0.0232177 40.4222 -0.204238 41.4457 0.193809 42.3555L5.9939 53.1597C6.50567 54.0695 7.58608 54.4676 8.55277 54.0695C10.3724 53.2734 13.3862 52.1361 16.1157 51.7381C18.2197 51.4537 20.8354 49.4067 21.2334 48.838C22.5982 47.189 36.4161 30.1867 36.4161 30.1867C37.7808 28.4808 37.4396 25.9219 35.62 24.6709C33.9709 23.5336 31.6964 23.9317 30.3885 25.467L23.8492 33.4848C22.8256 34.7358 20.9491 34.5652 20.153 33.2005L16.7412 27.4572L45.4574 10.3412L51.2576 20.0649C51.5419 20.5767 51.3713 21.2591 50.8595 21.6002L39.8848 28.1396C39.8848 28.1965 39.8848 28.1965 39.8848 28.2533C39.8848 29.1063 39.6005 29.9592 39.0318 30.6416L32.3219 38.8868L32.4925 39.1712C33.1749 40.4222 34.767 40.8202 36.0181 40.1379L36.4161 39.9104C37.6671 39.2281 38.1788 37.7496 37.8377 36.4417C38.122 36.5554 38.4063 36.5554 38.6906 36.5554C39.2024 36.5554 39.7142 36.4417 40.1691 36.1574C41.5907 35.3613 42.1025 33.4848 41.3064 32.0632C41.5907 32.1769 41.875 32.1769 42.2162 32.1769C42.728 32.1769 43.2398 32.0632 43.6947 31.7789C45.0594 31.0396 45.5712 29.3337 44.9456 27.969L52.1674 23.7042C53.8733 22.7375 54.4419 20.5198 53.6459 19.212ZM14.0117 22.8513L12.4764 20.2924C12.1352 19.7806 12.3627 19.0982 12.8744 18.757L39.7142 2.77828C40.226 2.49396 40.9083 2.66456 41.2495 3.17633L42.7848 5.73521L14.0117 22.8513Z" fill="#FF0000"/>
<path d="M41.3632 23.2492L46.4241 20.2354C46.9359 19.9511 47.1065 19.2687 46.8222 18.757L45.1162 15.8569C44.8319 15.3451 44.1495 15.1746 43.6378 15.4589L38.5769 18.4727C38.0651 18.757 37.8945 19.4393 38.1788 19.9511L39.8848 22.8512C40.1691 23.363 40.8514 23.5335 41.3632 23.2492Z" fill="#FF0000"/>
</svg>
