<svg width="22" height="21" viewBox="0 0 22 21" fill="none" xmlns="http://www.w3.org/2000/svg">
<path fill-rule="evenodd" clip-rule="evenodd" d="M17.9323 1.91699H3.93959C2.88578 1.91699 2.03149 2.77128 2.03149 3.82509V17.8178C2.03149 18.8716 2.88578 19.7259 3.93959 19.7259H9.39557V13.6713H6.89119V10.8215H9.39557V8.64941C9.39557 6.17881 10.8664 4.81412 13.1191 4.81412C14.198 4.81412 15.3262 5.00652 15.3262 5.00652V7.4314H14.0831C12.8584 7.4314 12.4764 8.19146 12.4764 8.971V10.8215H15.2105L14.7732 13.6713H12.4764V19.7259H17.9323C18.9861 19.7259 19.8404 18.8716 19.8404 17.8178V3.82509C19.8404 2.77128 18.9861 1.91699 17.9323 1.91699V1.91699Z" fill="white"/>
</svg>
