<svg width="547" height="653" viewBox="0 0 547 653" fill="none" xmlns="http://www.w3.org/2000/svg">
<mask id="mask0_4264_2234" style="mask-type:alpha" maskUnits="userSpaceOnUse" x="-16" y="0" width="497" height="653">
<rect x="-16" y="0.822266" width="497" height="652" fill="#D9D9D9"/>
</mask>
<g mask="url(#mask0_4264_2234)">
<path fill-rule="evenodd" clip-rule="evenodd" d="M-176.067 51.8555C34.2509 24.7666 234.849 104.053 352.77 331.715L425.203 315.02C433.823 313.439 436.42 317.573 435.002 325.501L342.241 541.18L162.01 392.979C155.399 386.414 156.137 381.039 160.632 376.263L219.961 361.888C148.632 245.628 38.0688 172.219 -145.432 178.557L-77.5091 98.0202L-176.067 51.8555Z" fill="#343434"/>
<path fill-rule="evenodd" clip-rule="evenodd" d="M395.682 464.825C422.782 675.139 343.493 875.736 115.814 993.661L132.521 1066.09C134.087 1074.7 129.953 1077.3 122.039 1075.89L-93.6435 983.13L54.5475 802.891C61.112 796.279 66.4904 797.029 71.2783 801.521L85.6527 860.85C201.904 789.524 275.327 678.958 268.987 495.446L349.525 563.368L395.682 464.825Z" fill="#343434"/>
<path d="M-47.7745 151.652L-58.4168 149.242L-47.7134 108.598C-45.9867 102.041 -42.06 97.0865 -35.9332 93.7343C-29.7513 90.3486 -23.2662 89.4242 -16.4779 90.961C-9.73338 92.488 -4.5975 96.1584 -1.07024 101.972C2.45703 107.786 3.34015 114.037 1.57913 120.724C0.344121 125.414 -1.61145 129.227 -4.28757 132.164C-6.95226 135.058 -10.5813 137.296 -15.1747 138.879C-20.2309 140.633 -24.9706 141.009 -29.394 140.008C-33.1166 139.165 -36.6695 137.325 -40.0527 134.489L-36.7251 121.853C-35.899 123.65 -34.5931 125.211 -32.8072 126.536C-30.9775 127.87 -28.9459 128.79 -26.7123 129.296C-22.8583 130.168 -19.3639 129.763 -16.2291 128.08C-12.664 126.173 -10.2639 122.874 -9.02886 118.184C-8.04543 114.45 -8.5845 110.946 -10.6461 107.672C-12.7076 104.399 -15.6654 102.326 -19.5194 101.453C-23.461 100.561 -27.1659 101.149 -30.634 103.216C-34.102 105.284 -36.3507 108.272 -37.3799 112.18L-47.7745 151.652Z" fill="#4F4F4F"/>
<path d="M17.1363 101.495L28.089 104.834L12.3399 152.053L1.38715 148.714L17.1363 101.495ZM23.7858 100.073C21.7241 99.4447 20.3336 98.2933 19.6144 96.6193C18.8951 94.9452 18.8338 93.2136 19.4305 91.4246C20.013 89.6781 21.0687 88.3574 22.5975 87.4626C24.1692 86.5808 26.0074 86.4608 28.112 87.1025C30.0019 87.6787 31.2994 88.8251 32.0044 90.5418C32.6233 92.0914 32.6414 93.7394 32.0589 95.4859C31.4906 97.1897 30.4278 98.5317 28.8707 99.5117C27.3706 100.462 25.6757 100.649 23.7858 100.073Z" fill="#4F4F4F"/>
<path d="M27.4541 172.203L17.2789 168.262L33.1086 129.327C35.6624 123.046 40.1761 118.679 46.6497 116.227C53.1821 113.75 59.6935 113.768 66.1839 116.282C72.6324 118.779 77.217 123.178 79.9378 129.48C82.6585 135.782 82.7167 142.136 80.1122 148.542C78.2857 153.034 75.8629 156.549 72.8439 159.088C69.8418 161.584 65.9744 163.288 61.2418 164.2C56.0309 165.215 51.3108 164.904 47.0816 163.266C43.5224 161.887 40.26 159.54 37.2943 156.225L42.2157 144.121C42.7962 146.03 43.8805 147.774 45.4684 149.352C47.0982 150.946 48.9809 152.157 51.1164 152.984C54.8013 154.411 58.2977 154.513 61.6058 153.291C65.3673 151.907 68.1612 148.969 69.9877 144.476C71.4422 140.899 71.3662 137.331 69.7598 133.772C68.1535 130.213 65.5078 127.719 61.823 126.292C58.0544 124.833 54.3268 124.882 50.6402 126.439C46.9537 127.997 44.3493 130.647 42.8272 134.391L27.4541 172.203Z" fill="#4F4F4F"/>
<path d="M126.209 167.832C126.985 164.191 126.601 160.835 125.056 157.766C123.552 154.718 121.103 152.32 117.71 150.571C113.958 148.638 109.982 148.307 105.782 149.577C101.643 150.829 98.6217 153.288 96.7195 156.955C96.3887 157.593 96.1606 158.082 96.0351 158.421C94.4273 162.594 94.4711 166.556 96.1666 170.309C97.6668 173.659 100.173 176.238 103.686 178.048C105.682 179.077 107.733 179.705 109.841 179.932C111.97 180.119 114.014 179.834 115.976 179.077L119.142 189.649C115.425 190.866 111.94 191.344 108.687 191.082C105.433 190.82 102.05 189.784 98.5376 187.974C91.9515 184.58 87.4818 179.397 85.1287 172.426C82.7756 165.455 83.2841 158.721 86.6542 152.224C90.0657 145.647 95.2458 141.219 102.195 138.939C109.204 136.641 115.982 137.178 122.528 140.552C129.114 143.945 133.591 149.359 135.957 156.791C138.384 164.205 137.913 171.16 134.543 177.658C134.171 178.375 133.809 179.073 133.457 179.75C133.028 180.286 132.72 180.684 132.536 180.942L98.7665 163.542C98.048 163.171 97.7441 162.636 97.8546 161.935C97.9652 161.234 98.2892 160.366 98.8268 159.329C99.0542 158.891 99.2196 158.572 99.323 158.373C99.5918 157.855 99.7985 157.456 99.9433 157.177C100.336 156.42 100.705 155.903 101.051 155.626C101.418 155.31 101.9 155.306 102.499 155.614L126.209 167.832Z" fill="#4F4F4F"/>
<path d="M162.46 146.007L172.225 151.989L137.449 209.673L127.685 203.692L162.46 146.007Z" fill="#4F4F4F"/>
<path d="M172.835 173.269L182.344 179.648L155.136 221.33L145.627 214.951L172.835 173.269ZM179.506 173.77C177.716 172.569 176.698 171.049 176.452 169.208C176.206 167.366 176.598 165.656 177.629 164.077C178.635 162.535 179.979 161.544 181.661 161.104C183.379 160.689 185.152 161.095 186.98 162.32C188.62 163.421 189.551 164.911 189.773 166.789C189.956 168.48 189.544 170.096 188.538 171.638C187.556 173.142 186.2 174.152 184.47 174.667C182.801 175.17 181.146 174.871 179.506 173.77Z" fill="#4F4F4F"/>
<path d="M164.306 227.467L182.195 203.501C186.089 198.283 191.247 195.277 197.667 194.481C204.15 193.676 209.992 195.306 215.194 199.369C220.29 203.349 223.26 208.602 224.103 215.127C224.946 221.653 223.42 227.525 219.526 232.743L201.637 256.708L192.029 249.204L210.159 224.915C211.986 222.468 212.592 219.666 211.979 216.51C211.428 213.345 209.896 210.782 207.384 208.819C204.977 206.94 202.258 206.155 199.226 206.464C196.256 206.765 193.872 208.121 192.072 210.532L173.861 234.93L164.306 227.467Z" fill="#4F4F4F"/>
<path d="M257.169 267.952C258.861 264.596 259.381 261.201 258.729 257.766C258.109 254.362 256.425 251.336 253.678 248.686C250.64 245.756 246.969 244.334 242.664 244.422C238.421 244.507 234.918 246.086 232.155 249.157C231.674 249.691 231.33 250.107 231.122 250.405C228.504 254.052 227.503 257.95 228.117 262.097C228.654 265.794 230.345 269.014 233.189 271.758C234.805 273.316 236.579 274.498 238.512 275.302C240.475 276.073 242.482 276.357 244.536 276.155L244.746 287.394C240.912 287.562 237.492 287.069 234.486 285.915C231.479 284.761 228.554 282.812 225.71 280.069C220.377 274.926 217.516 268.612 217.126 261.128C216.736 253.645 218.99 247.182 223.885 241.742C228.841 236.234 234.904 233.321 242.073 233.003C249.304 232.682 255.569 235.078 260.87 240.191C266.203 245.334 269.01 251.876 269.29 259.816C269.634 267.754 267.357 274.443 262.461 279.884C261.921 280.485 261.395 281.069 260.885 281.636C260.337 282.043 259.942 282.348 259.699 282.551L232.357 256.178C231.775 255.617 231.628 255.008 231.917 254.352C232.206 253.695 232.741 252.933 233.522 252.065C233.853 251.698 234.093 251.431 234.243 251.264C234.634 250.83 234.934 250.496 235.144 250.263C235.715 249.628 236.2 249.223 236.6 249.048C237.029 248.839 237.486 248.968 237.971 249.435L257.169 267.952Z" fill="#4F4F4F"/>
<path d="M267.937 285.406C271.9 283.2 275.859 282.016 279.813 281.855C283.794 281.741 287.376 282.559 290.559 284.31C293.768 286.108 296.327 288.67 298.235 291.996C299.901 294.9 300.762 297.758 300.818 300.57C300.901 303.428 300.422 306.012 299.381 308.322L304.973 305.21L310.656 315.118L271.443 336.944L265.761 327.036L271.494 323.845C268.928 323.604 266.387 322.701 263.87 321.135C261.428 319.59 259.374 317.365 257.708 314.461C255.827 311.182 254.957 307.711 255.097 304.048C255.265 300.432 256.425 296.974 258.579 293.674C260.806 290.395 263.926 287.639 267.937 285.406ZM285.367 316.123C287.773 314.783 289.557 313.172 290.719 311.29C291.927 309.381 292.523 307.381 292.506 305.289C292.536 303.171 292.028 301.198 290.98 299.371C289.932 297.544 288.516 296.107 286.733 295.061C284.95 294.014 282.903 293.484 280.593 293.472C278.357 293.481 276.059 294.142 273.7 295.455C271.34 296.768 269.533 298.392 268.277 300.327C267.095 302.283 266.476 304.296 266.419 306.368C266.389 308.486 266.884 310.435 267.905 312.215C268.953 314.042 270.382 315.502 272.192 316.596C274.049 317.663 276.096 318.193 278.332 318.184C280.615 318.149 282.96 317.462 285.367 316.123Z" fill="#4F4F4F"/>
<path d="M341.288 377.241C343.604 382.239 343.922 386.973 342.243 391.441C340.635 395.936 337.088 399.454 331.6 401.997L307.712 413.066L302.944 402.776L325.435 392.354C328.62 390.879 330.671 388.946 331.588 386.557C332.554 384.146 332.389 381.543 331.095 378.75C329.801 375.957 327.911 374.125 325.424 373.254C323.008 372.409 320.208 372.724 317.023 374.2L294.532 384.621L289.764 374.331L312.255 363.91C315.44 362.434 317.491 360.502 318.408 358.113C319.374 355.701 319.21 353.099 317.915 350.306C316.599 347.464 314.697 345.607 312.21 344.736C309.794 343.891 306.994 344.206 303.809 345.682L281.318 356.103L276.55 345.813L317.269 326.946L322.037 337.236L317.113 339.518C319.441 340.046 321.572 341.112 323.505 342.716C325.462 344.369 327.019 346.445 328.177 348.944C329.652 352.129 330.283 355.289 330.069 358.423C329.904 361.535 328.89 364.356 327.027 366.886C329.992 367.12 332.763 368.156 335.342 369.997C337.944 371.887 339.926 374.301 341.288 377.241Z" fill="#4F4F4F"/>
<path d="M349.458 417.415C351.875 418.064 354.147 419.344 356.273 421.255C358.469 423.198 360.128 425.719 361.248 428.816C362.552 432.422 362.843 436.005 362.121 439.566C361.418 443.177 359.726 446.438 357.047 449.35C354.437 452.294 350.984 454.575 346.687 456.191C342.391 457.808 338.263 458.381 334.302 457.909C330.411 457.47 327.022 456.119 324.137 453.859C321.271 451.649 319.185 448.741 317.881 445.135C316.76 442.037 316.4 439.057 316.801 436.195C317.219 433.383 318.123 430.88 319.51 428.684L293.505 438.47L289.648 427.805L351.666 404.468L355.523 415.133L349.458 417.415ZM342.747 445.298C345.274 444.347 347.255 442.996 348.689 441.245C350.191 439.525 351.111 437.622 351.447 435.534C351.801 433.496 351.62 431.488 350.903 429.507C350.205 427.577 349.038 425.939 347.403 424.593C345.836 423.278 343.925 422.44 341.669 422.077C339.432 421.765 337.049 422.084 334.522 423.035C331.995 423.986 329.98 425.322 328.477 427.041C326.993 428.811 326.048 430.724 325.644 432.781C325.308 434.869 325.489 436.878 326.187 438.807C326.903 440.788 328.07 442.426 329.687 443.722C331.323 445.068 333.259 445.897 335.497 446.209C337.753 446.572 340.169 446.268 342.747 445.298Z" fill="#4F4F4F"/>
</g>
<mask id="mask1_4264_2234" style="mask-type:alpha" maskUnits="userSpaceOnUse" x="-16" y="249" width="563" height="404">
<rect x="-16" y="249.367" width="563" height="403.455" fill="#232323"/>
</mask>
<g mask="url(#mask1_4264_2234)">
<path fill-rule="evenodd" clip-rule="evenodd" d="M-405.92 763.936C-383.442 559.681 -263 388.853 -21.6848 329.744L-20.8807 257.719C-20.403 249.24 -15.9167 247.737 -8.77356 250.882L173.183 387.456L-7.51508 523.377C-15.2058 528.106 -20.1 526.184 -23.5725 520.862V461.706C-149.34 502.354 -243.703 589.731 -279.605 763.995L-339.954 681.65L-405.92 763.936Z" fill="#FF0000"/>
<path fill-rule="evenodd" clip-rule="evenodd" d="M113.467 323.22C317.72 345.687 488.547 466.131 547.655 707.463L619.68 708.256C628.148 708.745 629.65 713.231 626.517 720.363L489.945 902.323L354.012 721.633C349.284 713.942 351.217 709.048 356.54 705.564H415.695C375.047 579.806 287.671 485.429 113.397 449.526L195.741 389.176L113.467 323.22Z" fill="#FF0000"/>
<path d="M209.89 441.213L200.561 435.934L222.132 400.73C225.612 395.05 230.708 391.501 237.42 390.082C244.194 388.646 250.556 389.612 256.506 392.979C262.419 396.324 266.211 401.23 267.884 407.697C269.557 414.165 268.619 420.294 265.069 426.086C262.58 430.149 259.662 433.182 256.313 435.188C252.988 437.156 248.94 438.234 244.171 438.423C238.919 438.642 234.354 437.655 230.476 435.461C227.213 433.615 224.391 430.879 222.011 427.253L228.718 416.308C228.986 418.233 229.773 420.071 231.078 421.822C232.421 423.595 234.072 425.036 236.03 426.143C239.409 428.055 242.81 428.663 246.236 427.967C250.129 427.181 253.32 424.757 255.809 420.695C257.791 417.461 258.276 414.012 257.263 410.349C256.25 406.687 254.054 403.899 250.676 401.988C247.221 400.033 243.569 399.537 239.722 400.501C235.874 401.464 232.913 403.639 230.839 407.024L209.89 441.213Z" fill="white"/>
<path d="M284.768 412.177L294.126 418.418L265.948 458.379L256.59 452.138L284.768 412.177ZM291.426 412.722C289.664 411.547 288.682 410.07 288.479 408.292C288.276 406.514 288.709 404.867 289.776 403.353C290.819 401.875 292.185 400.932 293.877 400.523C295.605 400.138 297.368 400.545 299.166 401.744C300.781 402.821 301.677 404.267 301.854 406.081C301.998 407.714 301.549 409.27 300.506 410.748C299.49 412.19 298.11 413.151 296.368 413.632C294.688 414.102 293.041 413.798 291.426 412.722Z" fill="white"/>
<path d="M274.278 481.487L265.822 474.9L291.731 442.754C295.911 437.568 301.393 434.738 308.176 434.264C315.023 433.782 321.143 435.642 326.537 439.843C331.896 444.017 334.964 449.453 335.74 456.151C336.516 462.849 334.772 468.842 330.509 474.131C327.52 477.841 324.246 480.462 320.687 481.995C317.157 483.494 313.037 484.002 308.327 483.52C303.138 483.001 298.786 481.372 295.271 478.634C292.313 476.33 289.908 473.2 288.056 469.242L296.112 459.248C296.117 461.209 296.644 463.156 297.691 465.09C298.773 467.051 300.201 468.722 301.976 470.104C305.038 472.49 308.299 473.575 311.756 473.362C315.686 473.124 319.146 471.151 322.136 467.442C324.516 464.488 325.455 461.11 324.951 457.308C324.447 453.505 322.664 450.411 319.601 448.026C316.469 445.586 312.949 444.578 309.04 444.999C305.132 445.421 301.932 447.177 299.44 450.268L274.278 481.487Z" fill="white"/>
<path d="M368.048 505.03C369.808 501.825 370.396 498.56 369.812 495.236C369.26 491.942 367.635 488.993 364.938 486.388C361.956 483.508 358.309 482.071 353.998 482.078C349.75 482.083 346.213 483.542 343.386 486.453C342.894 486.96 342.541 487.355 342.327 487.639C339.634 491.109 338.553 494.849 339.086 498.859C339.55 502.434 341.177 505.57 343.969 508.267C345.556 509.799 347.308 510.97 349.227 511.781C351.176 512.559 353.18 512.87 355.239 512.712L355.225 523.554C351.385 523.646 347.971 523.109 344.985 521.942C341.999 520.775 339.11 518.843 336.318 516.146C331.082 511.09 328.345 504.95 328.104 497.726C327.863 490.503 330.247 484.312 335.256 479.154C340.327 473.932 346.453 471.233 353.634 471.055C360.879 470.877 367.102 473.301 372.306 478.326C377.541 483.383 380.22 489.742 380.342 497.403C380.528 505.064 378.116 511.474 373.107 516.632C372.554 517.201 372.016 517.755 371.493 518.293C370.937 518.676 370.536 518.963 370.289 519.154L343.447 493.228C342.876 492.677 342.742 492.087 343.044 491.459C343.346 490.831 343.897 490.106 344.696 489.283C345.034 488.935 345.28 488.682 345.434 488.523C345.833 488.112 346.14 487.796 346.355 487.574C346.939 486.973 347.433 486.591 347.836 486.429C348.271 486.235 348.726 486.368 349.202 486.827L368.048 505.03Z" fill="white"/>
<path d="M408.006 494.44L415.498 502.829L366.46 547.251L358.968 538.861L408.006 494.44Z" fill="white"/>
<path d="M409.933 522.888L417.073 531.58L379.682 563.089L372.542 554.398L409.933 522.888ZM416.066 525.247C414.722 523.611 414.195 521.892 414.484 520.091C414.774 518.289 415.627 516.792 417.044 515.598C418.427 514.432 419.971 513.881 421.678 513.942C423.412 514.038 424.965 514.921 426.337 516.592C427.569 518.091 428.023 519.756 427.7 521.586C427.394 523.228 426.549 524.632 425.166 525.798C423.817 526.935 422.255 527.501 420.482 527.496C418.77 527.496 417.298 526.747 416.066 525.247Z" fill="white"/>
<path d="M386.43 571.287L410.04 553.806C415.181 549.999 420.883 548.631 427.148 549.699C433.473 550.777 438.508 553.963 442.252 559.257C445.919 564.443 447.226 570.225 446.173 576.602C445.119 582.98 442.022 588.071 436.882 591.877L413.272 609.359L406.357 599.581L430.286 581.863C432.697 580.078 434.06 577.614 434.377 574.472C434.754 571.339 434.038 568.494 432.23 565.937C430.498 563.488 428.163 561.98 425.223 561.413C422.344 560.855 419.717 561.456 417.342 563.215L393.307 581.011L386.43 571.287Z" fill="white"/>
<path d="M462.068 635.276C464.609 632.598 466.059 629.551 466.418 626.135C466.798 622.758 466.071 619.434 464.236 616.164C462.208 612.548 459.156 610.172 455.082 609.036C451.067 607.916 447.325 608.409 443.857 610.516C443.253 610.882 442.812 611.176 442.532 611.398C439.037 614.088 436.992 617.471 436.396 621.546C435.855 625.176 436.534 628.684 438.433 632.069C439.512 633.993 440.847 635.606 442.437 636.91C444.065 638.19 445.874 639.026 447.862 639.417L444.879 650.049C441.226 649.122 438.148 647.69 435.646 645.754C433.145 643.817 430.944 641.156 429.045 637.771C425.484 631.423 424.58 624.674 426.331 617.524C428.082 610.374 432.031 604.933 438.176 601.2C444.397 597.422 450.924 596.398 457.757 598.127C464.65 599.872 469.866 603.899 473.406 610.208C476.967 616.556 477.756 623.504 475.773 631.053C473.849 638.617 469.815 644.265 463.67 647.998C462.991 648.41 462.331 648.81 461.69 649.2C461.06 649.428 460.602 649.603 460.317 649.725L442.059 617.178C441.671 616.486 441.705 615.872 442.163 615.336C442.62 614.8 443.339 614.234 444.32 613.639C444.734 613.387 445.036 613.204 445.224 613.089C445.715 612.792 446.092 612.563 446.355 612.402C447.072 611.967 447.643 611.724 448.068 611.671C448.532 611.596 448.925 611.847 449.249 612.424L462.068 635.276Z" fill="white"/>
<path d="M467.922 653.878C472.275 652.924 476.334 652.931 480.099 653.898C483.876 654.917 487.013 656.7 489.512 659.248C492.023 661.848 493.705 664.982 494.558 668.651C495.303 671.854 495.304 674.787 494.561 677.447C493.831 680.16 492.649 682.455 491.016 684.333L497.157 682.988L499.699 693.916L456.635 703.351L454.093 692.422L460.39 691.043C458.044 690.09 455.909 688.522 453.985 686.337C452.125 684.192 450.822 681.518 450.077 678.314C449.236 674.697 449.4 671.186 450.568 667.78C451.749 664.426 453.819 661.502 456.779 659.007C459.803 656.552 463.517 654.843 467.922 653.878ZM475.625 687.705C478.268 687.126 480.402 686.115 482.027 684.673C483.705 683.22 484.831 681.507 485.407 679.534C486.035 677.55 486.115 675.551 485.646 673.536C485.177 671.52 484.252 669.768 482.871 668.279C481.49 666.789 479.715 665.712 477.545 665.047C475.439 664.422 473.09 664.394 470.499 664.961C467.908 665.529 465.748 666.545 464.019 668.01C462.354 669.515 461.202 671.234 460.562 673.166C459.934 675.15 459.849 677.124 460.305 679.087C460.774 681.102 461.705 682.881 463.098 684.422C464.543 685.951 466.318 687.029 468.424 687.653C470.582 688.267 472.982 688.284 475.625 687.705Z" fill="white"/>
</g>
</svg>
