<svg width="404" height="535" viewBox="0 0 404 535" fill="none" xmlns="http://www.w3.org/2000/svg">
<path fill-rule="evenodd" clip-rule="evenodd" d="M574.169 1001.83C381.842 1026.61 198.391 954.095 90.5482 745.887L24.3068 761.155C16.4102 762.593 14.0484 758.82 15.3347 751.572L100.165 554.324L264.999 689.849C271.035 695.855 270.37 700.769 266.262 705.147L212.004 718.293C277.234 824.608 378.35 891.756 546.165 885.961L484.049 959.615L574.169 1001.83Z" fill="#343434"/>
<path fill-rule="evenodd" clip-rule="evenodd" d="M50.7794 622.012C26.0051 429.667 98.5141 246.212 306.729 138.366L291.449 72.1253C290.006 64.2525 293.798 61.8749 301.035 63.1638L498.28 147.999L362.746 312.827C356.742 318.873 351.826 318.198 347.459 314.087L334.312 259.828C227.989 325.061 160.855 426.176 166.64 593.997L92.998 531.876L50.7794 622.012Z" fill="#343434"/>
<path d="M151.179 539.053L149.726 549.867L108.169 543.578C101.465 542.564 96.1644 539.196 92.2669 533.475C88.331 527.703 86.8263 521.368 87.7529 514.469C88.6735 507.616 91.8794 502.13 97.3704 498.011C102.861 493.893 109.026 492.351 115.863 493.385C120.658 494.111 124.642 495.645 127.816 497.987C130.945 500.322 133.506 503.684 135.499 508.072C137.704 512.901 138.505 517.564 137.901 522.058C137.393 525.841 135.874 529.562 133.344 533.221L120.424 531.265C122.145 530.254 123.587 528.792 124.75 526.88C125.919 524.922 126.656 522.809 126.961 520.539C127.487 516.623 126.769 513.199 124.807 510.269C122.582 506.935 119.072 504.905 114.277 504.18C110.459 503.602 107.007 504.51 103.922 506.904C100.837 509.298 99.0319 512.453 98.5058 516.369C97.9678 520.375 98.8868 523.987 101.263 527.208C103.639 530.428 106.825 532.341 110.821 532.945L151.179 539.053Z" fill="#4F4F4F"/>
<path d="M123.063 449.518C119.341 449.615 116.169 450.773 113.546 452.992C110.934 455.168 109.174 458.109 108.268 461.817C107.265 465.917 107.873 469.86 110.09 473.647C112.274 477.379 115.372 479.741 119.382 480.734C120.08 480.906 120.608 481.014 120.967 481.056C125.4 481.644 129.243 480.675 132.495 478.149C135.401 475.908 137.323 472.868 138.262 469.029C138.795 466.848 138.926 464.707 138.654 462.604C138.339 460.491 137.584 458.569 136.389 456.84L145.928 451.29C147.98 454.619 149.259 457.896 149.765 461.12C150.271 464.345 150.054 467.876 149.116 471.714C147.356 478.912 143.362 484.469 137.134 488.386C130.906 492.304 124.24 493.384 117.134 491.626C109.942 489.847 104.426 485.845 100.585 479.622C96.7121 473.344 95.6501 466.629 97.3994 459.475C99.1594 452.278 103.376 446.66 110.05 442.622C116.69 438.528 123.563 437.361 130.668 439.119C131.453 439.313 132.216 439.501 132.957 439.685C133.579 439.977 134.037 440.183 134.331 440.302L125.307 477.204C125.115 477.989 124.666 478.409 123.958 478.466C123.251 478.522 122.331 478.41 121.198 478.13C120.718 478.011 120.369 477.925 120.152 477.871C119.585 477.731 119.149 477.623 118.844 477.547C118.016 477.343 117.427 477.104 117.077 476.833C116.684 476.55 116.567 476.082 116.727 475.428L123.063 449.518Z" fill="#4F4F4F"/>
<path d="M91.9695 424.723L95.5024 413.831L159.718 434.158L156.185 445.049L91.9695 424.723Z" fill="#4F4F4F"/>
<path d="M115.402 410.233L119.38 399.496L166.268 416.206L162.289 426.943L115.402 410.233ZM114.329 403.63C113.58 405.651 112.339 406.996 110.607 407.666C108.874 408.335 107.12 408.353 105.343 407.72C103.609 407.102 102.331 406.027 101.51 404.495C100.705 402.921 100.685 401.103 101.449 399.04C102.136 397.187 103.366 395.933 105.141 395.279C106.742 394.706 108.41 394.728 110.144 395.346C111.836 395.949 113.135 397.031 114.041 398.593C114.919 400.098 115.016 401.777 114.329 403.63Z" fill="#4F4F4F"/>
<path d="M169.258 408.168L141.774 396.377C135.79 393.81 131.661 389.499 129.386 383.443C127.089 377.328 127.307 371.266 130.042 365.258C132.72 359.373 137.133 355.258 143.281 352.912C149.428 350.567 155.494 350.678 161.478 353.245L188.962 365.035L183.912 376.132L156.056 364.182C153.25 362.978 150.385 363.043 147.459 364.377C144.511 365.653 142.377 367.741 141.056 370.643C139.791 373.422 139.664 376.25 140.673 379.125C141.66 381.942 143.536 383.944 146.301 385.13L174.28 397.133L169.258 408.168Z" fill="#4F4F4F"/>
<path d="M184.647 313.291C180.988 312.431 177.565 312.719 174.378 314.156C171.214 315.555 168.664 317.899 166.73 321.19C164.592 324.829 164.068 328.731 165.16 332.896C166.234 337.001 168.588 340.038 172.22 342.007C172.851 342.349 173.336 342.586 173.675 342.719C177.833 344.412 181.857 344.474 185.745 342.907C189.215 341.521 191.951 339.124 193.953 335.718C195.091 333.782 195.824 331.781 196.154 329.714C196.445 327.625 196.252 325.606 195.576 323.657L206.454 320.825C207.514 324.514 207.834 327.954 207.415 331.147C206.995 334.34 205.785 337.64 203.782 341.047C200.028 347.434 194.558 351.692 187.373 353.82C180.188 355.949 173.378 355.269 166.943 351.78C160.43 348.249 156.18 343.036 154.195 336.14C152.193 329.184 153.058 322.532 156.789 316.183C160.544 309.796 166.248 305.537 173.902 303.408C181.54 301.219 188.576 301.868 195.01 305.357C195.721 305.742 196.412 306.116 197.083 306.48C197.607 306.917 197.996 307.23 198.249 307.419L179 340.169C178.59 340.866 178.032 341.151 177.326 341.023C176.621 340.896 175.754 340.554 174.728 339.997C174.294 339.762 173.978 339.591 173.781 339.484C173.267 339.205 172.873 338.991 172.596 338.842C171.846 338.435 171.339 338.058 171.075 337.711C170.771 337.342 170.79 336.867 171.131 336.286L184.647 313.291Z" fill="#4F4F4F"/>
<path d="M195.442 304.851C192.37 301.513 190.294 297.94 189.213 294.134C188.171 290.29 188.129 286.616 189.087 283.112C190.085 279.571 191.978 276.484 194.766 273.852C197.2 271.553 199.778 270.048 202.498 269.336C205.258 268.587 207.882 268.448 210.371 268.92L206.038 264.211L214.343 256.369L244.731 289.393L236.426 297.234L231.983 292.406C232.349 294.957 232.065 297.639 231.131 300.452C230.2 303.188 228.517 305.705 226.082 308.004C223.334 310.599 220.162 312.256 216.568 312.976C213.014 313.659 209.38 313.339 205.668 312.016C201.959 310.617 198.55 308.229 195.442 304.851ZM221.232 280.723C219.367 278.696 217.384 277.338 215.282 276.649C213.144 275.92 211.06 275.808 209.03 276.314C206.963 276.78 205.164 277.736 203.633 279.181C202.101 280.627 201.035 282.34 200.434 284.318C199.833 286.297 199.797 288.41 200.325 290.659C200.856 292.832 202.036 294.911 203.865 296.898C205.693 298.885 207.695 300.263 209.87 301.031C212.047 301.723 214.15 301.855 216.177 301.426C218.243 300.96 220.023 300.023 221.515 298.614C223.046 297.168 224.132 295.437 224.772 293.422C225.376 291.366 225.412 289.253 224.881 287.081C224.314 284.869 223.097 282.749 221.232 280.723Z" fill="#4F4F4F"/>
<path d="M263.825 215.633C268.143 212.213 272.671 210.797 277.408 211.385C282.154 211.897 286.404 214.524 290.16 219.266L306.506 239.904L297.616 246.945L282.225 227.514C280.046 224.762 277.687 223.22 275.15 222.887C272.58 222.512 270.088 223.28 267.675 225.191C265.262 227.102 263.922 229.369 263.657 231.99C263.4 234.536 264.361 237.185 266.54 239.937L281.931 259.368L273.041 266.409L257.65 246.978C255.471 244.226 253.112 242.684 250.575 242.351C248.005 241.976 245.513 242.744 243.1 244.655C240.644 246.6 239.284 248.883 239.018 251.505C238.761 254.051 239.722 256.7 241.902 259.451L257.292 278.883L248.402 285.924L220.538 250.744L229.428 243.703L232.798 247.958C232.768 245.57 233.306 243.25 234.414 240.995C235.563 238.706 237.218 236.707 239.377 234.997C242.129 232.817 245.053 231.465 248.151 230.941C251.216 230.373 254.196 230.7 257.091 231.92C256.625 228.983 256.985 226.045 258.171 223.108C259.4 220.136 261.285 217.645 263.825 215.633Z" fill="#4F4F4F"/>
<path d="M295.02 202.903C295.086 200.402 295.799 197.894 297.16 195.379C298.536 192.79 300.599 190.588 303.349 188.775C306.55 186.663 309.966 185.543 313.596 185.412C317.272 185.252 320.838 186.134 324.296 188.059C327.769 189.908 330.793 192.733 333.369 196.532C335.946 200.331 337.468 204.212 337.935 208.172C338.417 212.059 337.897 215.669 336.373 219.003C334.895 222.306 332.555 225.014 329.354 227.125C326.604 228.939 323.791 229.985 320.914 230.265C318.082 230.516 315.437 230.223 312.978 229.386L328.572 252.383L319.104 258.627L281.916 203.783L291.383 197.54L295.02 202.903ZM323.699 202.91C322.184 200.675 320.407 199.065 318.369 198.08C316.346 197.021 314.28 196.572 312.172 196.734C310.108 196.866 308.197 197.512 306.439 198.671C304.726 199.801 303.406 201.319 302.479 203.223C301.567 205.054 301.199 207.108 301.374 209.386C301.593 211.635 302.461 213.876 303.976 216.111C305.492 218.346 307.261 219.993 309.284 221.052C311.352 222.082 313.433 222.553 315.527 222.466C317.636 222.304 319.547 221.658 321.26 220.528C323.018 219.369 324.338 217.851 325.22 215.976C326.146 214.072 326.5 211.995 326.28 209.746C326.105 207.468 325.245 205.189 323.699 202.91Z" fill="#4F4F4F"/>
</svg>
