<svg width="21" height="21" viewBox="0 0 21 21" fill="none" xmlns="http://www.w3.org/2000/svg">
<path fill-rule="evenodd" clip-rule="evenodd" d="M10.6783 6.25009C8.15004 6.25009 6.11075 8.28937 6.11075 10.8176C6.11075 13.3458 8.15004 15.3851 10.6783 15.3851C13.2065 15.3851 15.2458 13.3458 15.2458 10.8176C15.2458 8.28937 13.2065 6.25009 10.6783 6.25009ZM10.6783 13.7871C9.04446 13.7871 7.70879 12.4554 7.70879 10.8176C7.70879 9.17982 9.04048 7.84812 10.6783 7.84812C12.3161 7.84812 13.6477 9.17982 13.6477 10.8176C13.6477 12.4554 12.3121 13.7871 10.6783 13.7871ZM16.498 6.06326C16.498 6.65556 16.0209 7.12861 15.4326 7.12861C14.8403 7.12861 14.3673 6.65159 14.3673 6.06326C14.3673 5.47492 14.8443 4.9979 15.4326 4.9979C16.0209 4.9979 16.498 5.47492 16.498 6.06326ZM19.5231 7.14451C19.4555 5.71741 19.1296 4.4533 18.0841 3.41179C17.0426 2.37029 15.7785 2.04432 14.3514 1.97277C12.8805 1.88929 8.47203 1.88929 7.0012 1.97277C5.57808 2.04034 4.31396 2.36631 3.26848 3.40782C2.223 4.44932 1.90101 5.71344 1.82946 7.14054C1.74598 8.61136 1.74598 13.0199 1.82946 14.4907C1.89703 15.9178 2.223 17.1819 3.26848 18.2234C4.31396 19.2649 5.5741 19.5909 7.0012 19.6624C8.47203 19.7459 12.8805 19.7459 14.3514 19.6624C15.7785 19.5949 17.0426 19.2689 18.0841 18.2234C19.1256 17.1819 19.4516 15.9178 19.5231 14.4907C19.6066 13.0199 19.6066 8.61534 19.5231 7.14451ZM17.623 16.0689C17.3129 16.848 16.7126 17.4483 15.9295 17.7623C14.7568 18.2274 11.9742 18.1201 10.6783 18.1201C9.38235 18.1201 6.59573 18.2234 5.42702 17.7623C4.64788 17.4522 4.04762 16.852 3.73358 16.0689C3.26848 14.8962 3.37581 12.1135 3.37581 10.8176C3.37581 9.52169 3.27246 6.73507 3.73358 5.56635C4.04365 4.78721 4.6439 4.18696 5.42702 3.87292C6.59971 3.40782 9.38235 3.51515 10.6783 3.51515C11.9742 3.51515 14.7608 3.41179 15.9295 3.87292C16.7087 4.18298 17.3089 4.78324 17.623 5.56635C18.0881 6.73904 17.9807 9.52169 17.9807 10.8176C17.9807 12.1135 18.0881 14.9001 17.623 16.0689Z" fill="white"/>
</svg>
