<svg width="508" height="589" viewBox="0 0 508 589" fill="none" xmlns="http://www.w3.org/2000/svg">
<mask id="mask0_4264_1467" style="mask-type:alpha" maskUnits="userSpaceOnUse" x="0" y="0" width="449" height="589">
<rect y="0.694336" width="448.448" height="588.305" fill="#D9D9D9"/>
</mask>
<g mask="url(#mask0_4264_1467)">
<path fill-rule="evenodd" clip-rule="evenodd" d="M-144.43 46.7421C45.3419 22.2996 226.343 93.8403 332.745 299.262L398.101 284.198C405.879 282.771 408.223 286.501 406.943 293.655L323.244 488.264L160.62 354.541C154.655 348.618 155.321 343.767 159.376 339.458L212.91 326.487C148.549 221.585 48.7869 155.347 -116.787 161.066L-55.5001 88.397L-144.43 46.7421Z" fill="#343434"/>
<path fill-rule="evenodd" clip-rule="evenodd" d="M371.464 419.368C395.917 609.136 324.374 790.137 118.937 896.541L134.012 961.895C135.425 969.665 131.695 972.009 124.554 970.737L-70.0584 887.04L63.6557 724.408C69.579 718.443 74.432 719.119 78.7521 723.172L91.7223 776.705C196.617 712.347 262.867 612.582 257.147 446.998L329.816 508.285L371.464 419.368Z" fill="#343434"/>
<path fill-rule="evenodd" clip-rule="evenodd" d="M-516.499 560.256C-540.942 370.481 -469.402 189.478 -263.97 83.0726L-279.045 17.7172C-280.469 9.94964 -276.728 7.60375 -269.587 8.87549L-74.9777 92.5765L-208.701 255.202C-214.624 261.168 -219.474 260.501 -223.784 256.446L-236.754 202.911C-341.657 267.273 -407.894 367.036 -402.186 532.615L-474.844 471.324L-516.499 560.256Z" fill="#343434"/>
<path d="M-29.975 146.959L-40.6173 144.55L-29.914 103.906C-28.1872 97.3487 -24.2605 92.3941 -18.1338 89.0419C-11.9519 85.6562 -5.46674 84.7318 1.32155 86.2686C8.06605 87.7956 13.2019 91.466 16.7292 97.2799C20.2565 103.094 21.1396 109.344 19.3786 116.032C18.1436 120.721 16.188 124.535 13.5119 127.472C10.8472 130.365 7.21813 132.604 2.62473 134.186C-2.43144 135.94 -7.17119 136.317 -11.5945 135.315C-15.3171 134.473 -18.8701 132.633 -22.2533 129.796L-18.9256 117.16C-18.0996 118.958 -16.7936 120.519 -15.0077 121.843C-13.178 123.178 -11.1464 124.098 -8.91286 124.603C-5.05885 125.476 -1.56447 125.071 1.5703 123.388C5.13548 121.48 7.53557 118.182 8.77057 113.492C9.754 109.757 9.21494 106.254 7.15337 102.98C5.0918 99.7066 2.13402 97.6336 -1.71998 96.761C-5.66157 95.8687 -9.36641 96.4563 -12.8345 98.5239C-16.3026 100.591 -18.5512 103.579 -19.5804 107.487L-29.975 146.959Z" fill="#4F4F4F"/>
<path d="M28.9958 95.3638L39.9485 98.7031L24.1994 145.922L13.2466 142.583L28.9958 95.3638ZM35.6453 93.9419C33.5836 93.3133 32.1931 92.162 31.4738 90.4879C30.7546 88.8138 30.6933 87.0823 31.29 85.2932C31.8725 83.5467 32.9282 82.2261 34.457 81.3312C36.0287 80.4495 37.8669 80.3295 39.9715 80.9711C41.8614 81.5473 43.1589 82.6937 43.8639 84.4104C44.4828 85.96 44.5009 87.608 43.9184 89.3545C43.3501 91.0584 42.2873 92.4003 40.7302 93.3804C39.2301 94.3309 37.5352 94.5181 35.6453 93.9419Z" fill="#4F4F4F"/>
<path d="M36.6018 165.274L26.4266 161.334L42.2564 122.398C44.8101 116.117 49.3238 111.751 55.7974 109.299C62.3298 106.821 68.8412 106.839 75.3316 109.353C81.7801 111.85 86.3647 116.25 89.0855 122.551C91.8062 128.853 91.8644 135.207 89.2599 141.613C87.4334 146.105 85.0106 149.621 81.9916 152.159C78.9895 154.655 75.1221 156.359 70.3895 157.271C65.1786 158.286 60.4586 157.975 56.2293 156.337C52.6701 154.959 49.4077 152.612 46.442 149.297L51.3634 137.192C51.9439 139.102 53.0282 140.846 54.6161 142.424C56.2459 144.018 58.1286 145.228 60.2641 146.055C63.949 147.482 67.4454 147.585 70.7535 146.362C74.515 144.978 77.3089 142.04 79.1354 137.548C80.5899 133.97 80.5139 130.402 78.9075 126.843C77.3012 123.284 74.6555 120.791 70.9707 119.364C67.2021 117.904 63.4745 117.953 59.7879 119.511C56.1014 121.068 53.497 123.718 51.9749 127.462L36.6018 165.274Z" fill="#4F4F4F"/>
<path d="M129.495 158.578C130.271 154.937 129.886 151.582 128.342 148.513C126.837 145.464 124.389 143.066 120.996 141.318C117.244 139.384 113.268 139.053 109.068 140.324C104.928 141.575 101.907 144.034 100.005 147.702C99.6744 148.339 99.4462 148.828 99.3207 149.167C97.713 153.34 97.7568 157.303 99.4523 161.056C100.952 164.405 103.459 166.984 106.971 168.794C108.967 169.823 111.019 170.451 113.127 170.678C115.255 170.866 117.3 170.581 119.261 169.823L122.427 180.396C118.711 181.612 115.225 182.09 111.972 181.828C108.719 181.566 105.336 180.53 101.823 178.72C95.2371 175.326 90.7675 170.144 88.4144 163.172C86.0613 156.201 86.5697 149.467 89.9398 142.97C93.3513 136.393 98.5314 131.965 105.48 129.686C112.49 127.387 119.267 127.925 125.814 131.298C132.4 134.691 136.876 140.105 139.243 147.537C141.67 154.951 141.199 161.906 137.829 168.404C137.456 169.121 137.095 169.819 136.743 170.496C136.313 171.033 136.006 171.43 135.821 171.688L102.052 154.288C101.334 153.917 101.03 153.382 101.14 152.681C101.251 151.98 101.575 151.112 102.112 150.075C102.34 149.637 102.505 149.318 102.609 149.119C102.877 148.601 103.084 148.202 103.229 147.923C103.622 147.166 103.991 146.649 104.337 146.372C104.703 146.056 105.186 146.052 105.785 146.361L129.495 158.578Z" fill="#4F4F4F"/>
<path d="M160.176 133.77L169.94 139.751L135.165 197.435L125.401 191.454L160.176 133.77Z" fill="#4F4F4F"/>
<path d="M168.535 159.784L178.044 166.162L150.836 207.844L141.326 201.465L168.535 159.784ZM175.205 160.284C173.415 159.084 172.397 157.563 172.151 155.722C171.905 153.881 172.298 152.171 173.329 150.591C174.335 149.05 175.679 148.059 177.36 147.619C179.079 147.204 180.852 147.609 182.679 148.835C184.32 149.935 185.251 151.425 185.473 153.304C185.656 154.994 185.244 156.611 184.238 158.152C183.256 159.656 181.9 160.666 180.169 161.181C178.501 161.684 176.846 161.385 175.205 160.284Z" fill="#4F4F4F"/>
<path d="M157.658 212.437L175.547 188.471C179.441 183.253 184.599 180.247 191.019 179.451C197.502 178.646 203.344 180.276 208.546 184.339C213.642 188.319 216.612 193.572 217.455 200.097C218.298 206.623 216.772 212.495 212.878 217.712L194.989 241.678L185.381 234.174L203.511 209.884C205.338 207.438 205.944 204.636 205.331 201.48C204.78 198.315 203.248 195.752 200.736 193.789C198.329 191.91 195.61 191.125 192.578 191.434C189.608 191.735 187.224 193.091 185.424 195.502L167.213 219.9L157.658 212.437Z" fill="#4F4F4F"/>
<path d="M245.705 249.102C247.397 245.746 247.917 242.35 247.264 238.916C246.644 235.512 244.961 232.485 242.214 229.836C239.176 226.905 235.504 225.484 231.199 225.572C226.957 225.657 223.454 227.235 220.69 230.306C220.21 230.84 219.866 231.256 219.658 231.555C217.039 235.202 216.038 239.099 216.653 243.246C217.19 246.944 218.88 250.164 221.724 252.907C223.34 254.466 225.114 255.647 227.047 256.452C229.01 257.222 231.018 257.507 233.071 257.305L233.281 268.544C229.448 268.712 226.027 268.219 223.021 267.065C220.015 265.911 217.089 263.962 214.245 261.219C208.912 256.075 206.051 249.762 205.661 242.278C205.272 234.794 207.525 228.332 212.421 222.891C217.377 217.384 223.439 214.471 230.608 214.153C237.839 213.832 244.105 216.228 249.405 221.34C254.738 226.484 257.545 233.026 257.826 240.966C258.169 248.903 255.893 255.593 250.997 261.033C250.456 261.634 249.931 262.218 249.42 262.786C248.872 263.193 248.477 263.498 248.235 263.7L220.892 237.328C220.31 236.767 220.164 236.158 220.453 235.501C220.742 234.845 221.277 234.083 222.058 233.215C222.388 232.848 222.628 232.581 222.778 232.414C223.169 231.98 223.469 231.646 223.68 231.412C224.25 230.778 224.735 230.373 225.135 230.197C225.565 229.988 226.022 230.118 226.507 230.585L245.705 249.102Z" fill="#4F4F4F"/>
<path d="M250.661 260.859C254.624 258.653 258.583 257.469 262.537 257.308C266.518 257.193 270.1 258.011 273.283 259.762C276.493 261.56 279.051 264.122 280.959 267.448C282.625 270.353 283.486 273.211 283.542 276.022C283.625 278.881 283.146 281.465 282.106 283.775L287.697 280.662L293.38 290.57L254.167 312.396L248.485 302.488L254.218 299.297C251.652 299.056 249.111 298.153 246.594 296.588C244.152 295.042 242.098 292.818 240.432 289.913C238.551 286.634 237.681 283.163 237.821 279.5C237.989 275.885 239.149 272.427 241.303 269.127C243.531 265.847 246.65 263.091 250.661 260.859ZM268.091 291.575C270.498 290.236 272.281 288.625 273.443 286.742C274.651 284.833 275.247 282.833 275.23 280.741C275.261 278.623 274.752 276.651 273.704 274.824C272.656 272.997 271.24 271.56 269.457 270.513C267.674 269.466 265.627 268.937 263.317 268.925C261.081 268.933 258.783 269.594 256.424 270.907C254.065 272.221 252.257 273.845 251.001 275.78C249.82 277.735 249.2 279.749 249.143 281.82C249.113 283.938 249.608 285.887 250.629 287.667C251.677 289.494 253.106 290.955 254.916 292.048C256.773 293.116 258.82 293.645 261.056 293.637C263.34 293.602 265.684 292.915 268.091 291.575Z" fill="#4F4F4F"/>
<path d="M321.049 347.562C323.365 352.56 323.684 357.293 322.004 361.762C320.397 366.256 316.849 369.775 311.361 372.318L287.473 383.386L282.705 373.096L305.196 362.675C308.381 361.199 310.432 359.267 311.349 356.878C312.315 354.466 312.151 351.864 310.856 349.071C309.562 346.278 307.672 344.446 305.185 343.575C302.77 342.729 299.969 343.045 296.784 344.521L274.293 354.942L269.526 344.652L292.017 334.231C295.202 332.755 297.252 330.822 298.169 328.434C299.135 326.022 298.971 323.42 297.677 320.627C296.36 317.785 294.458 315.928 291.971 315.057C289.556 314.211 286.756 314.527 283.571 316.003L261.08 326.424L256.312 316.134L297.031 297.267L301.799 307.557L296.874 309.838C299.202 310.367 301.333 311.433 303.266 313.037C305.223 314.69 306.78 316.766 307.938 319.265C309.414 322.45 310.044 325.61 309.83 328.744C309.665 331.856 308.651 334.677 306.788 337.207C309.753 337.44 312.525 338.477 315.104 340.318C317.705 342.207 319.687 344.622 321.049 347.562Z" fill="#4F4F4F"/>
<path d="M325.692 379.887C328.109 380.535 330.38 381.815 332.507 383.727C334.703 385.67 336.361 388.19 337.482 391.288C338.786 394.894 339.077 398.477 338.355 402.037C337.652 405.648 335.96 408.91 333.281 411.822C330.671 414.766 327.217 417.046 322.921 418.663C318.625 420.28 314.497 420.852 310.536 420.381C306.644 419.941 303.256 418.591 300.371 416.33C297.505 414.12 295.419 411.212 294.115 407.607C292.994 404.509 292.634 401.529 293.034 398.666C293.453 395.855 294.356 393.351 295.744 391.156L269.739 400.941L265.882 390.277L327.9 366.94L331.757 377.605L325.692 379.887ZM318.981 407.77C321.508 406.819 323.489 405.468 324.923 403.717C326.425 401.997 327.345 400.093 327.68 398.005C328.035 395.968 327.853 393.959 327.137 391.979C326.439 390.049 325.272 388.411 323.637 387.065C322.07 385.75 320.159 384.911 317.903 384.549C315.666 384.237 313.283 384.556 310.756 385.507C308.229 386.458 306.214 387.793 304.711 389.513C303.227 391.283 302.282 393.196 301.877 395.252C301.542 397.34 301.723 399.349 302.421 401.279C303.137 403.26 304.304 404.898 305.921 406.193C307.556 407.54 309.493 408.369 311.73 408.681C313.986 409.043 316.403 408.74 318.981 407.77Z" fill="#4F4F4F"/>
</g>
<mask id="mask1_4264_1467" style="mask-type:alpha" maskUnits="userSpaceOnUse" x="0" y="224" width="508" height="365">
<rect y="224.958" width="508" height="364.042" fill="#232323"/>
</mask>
<g mask="url(#mask1_4264_1467)">
<path fill-rule="evenodd" clip-rule="evenodd" d="M-351.829 689.258C-331.546 504.957 -222.87 350.818 -5.12939 297.483L-4.40393 232.494C-3.97284 224.843 0.0751953 223.487 6.52048 226.325L170.701 349.557L7.65604 472.2C0.716583 476.467 -3.69949 474.733 -6.83276 469.93V416.553C-120.314 453.231 -205.459 532.071 -237.853 689.311L-292.307 615.01L-351.829 689.258Z" fill="#FF0000"/>
<path fill-rule="evenodd" clip-rule="evenodd" d="M116.819 291.596C301.119 311.868 455.257 420.547 508.591 638.302L573.58 639.017C581.22 639.459 582.576 643.507 579.749 649.942L456.518 814.126L333.865 651.088C329.599 644.149 331.343 639.733 336.146 636.589H389.522C352.845 523.116 274.005 437.959 116.756 405.563L191.056 351.109L116.819 291.596Z" fill="#FF0000"/>
<path d="M199.687 407.309L190.358 402.031L211.929 366.826C215.409 361.147 220.505 357.598 227.217 356.178C233.991 354.743 240.353 355.709 246.303 359.075C252.216 362.42 256.008 367.327 257.681 373.794C259.354 380.261 258.415 386.391 254.866 392.183C252.377 396.245 249.459 399.279 246.11 401.285C242.785 403.252 238.737 404.331 233.968 404.52C228.716 404.739 224.151 403.752 220.273 401.558C217.01 399.711 214.188 396.975 211.808 393.35L218.515 382.405C218.783 384.329 219.57 386.167 220.875 387.919C222.218 389.692 223.869 391.132 225.827 392.24C229.206 394.152 232.607 394.759 236.033 394.063C239.926 393.278 243.117 390.854 245.606 386.792C247.588 383.557 248.073 380.109 247.06 376.446C246.047 372.783 243.851 369.996 240.473 368.085C237.018 366.13 233.366 365.634 229.519 366.597C225.671 367.561 222.71 369.735 220.636 373.12L199.687 407.309Z" fill="white"/>
<path d="M269.419 375.259L278.777 381.5L250.599 421.461L241.241 415.22L269.419 375.259ZM276.076 375.803C274.315 374.628 273.332 373.152 273.13 371.374C272.927 369.595 273.359 367.949 274.427 366.435C275.469 364.957 276.836 364.013 278.527 363.604C280.255 363.22 282.018 363.627 283.817 364.826C285.431 365.903 286.327 367.349 286.505 369.163C286.648 370.796 286.199 372.351 285.157 373.829C284.14 375.271 282.761 376.233 281.018 376.714C279.338 377.184 277.691 376.88 276.076 375.803Z" fill="white"/>
<path d="M256.618 443.061L248.162 436.474L274.071 404.328C278.251 399.142 283.733 396.312 290.517 395.837C297.363 395.356 303.483 397.215 308.877 401.417C314.236 405.591 317.304 411.027 318.08 417.725C318.856 424.423 317.112 430.416 312.849 435.705C309.86 439.414 306.586 442.035 303.028 443.569C299.497 445.067 295.377 445.576 290.667 445.094C285.478 444.574 281.126 442.946 277.611 440.208C274.653 437.904 272.248 434.773 270.397 430.815L278.452 420.821C278.457 422.782 278.984 424.73 280.031 426.663C281.113 428.624 282.541 430.296 284.316 431.678C287.379 434.063 290.639 435.149 294.097 434.935C298.027 434.698 301.486 432.725 304.476 429.016C306.857 426.062 307.795 422.684 307.291 418.881C306.787 415.079 305.004 411.985 301.942 409.6C298.81 407.16 295.289 406.151 291.381 406.573C287.472 406.995 284.272 408.751 281.781 411.842L256.618 443.061Z" fill="white"/>
<path d="M345.564 462.783C347.324 459.577 347.912 456.312 347.328 452.988C346.775 449.695 345.15 446.746 342.454 444.141C339.471 441.26 335.825 439.823 331.514 439.83C327.266 439.836 323.728 441.294 320.901 444.206C320.41 444.712 320.057 445.107 319.843 445.391C317.149 448.861 316.069 452.601 316.602 456.611C317.065 460.186 318.693 463.322 321.485 466.019C323.071 467.551 324.824 468.723 326.742 469.533C328.691 470.312 330.695 470.622 332.755 470.465L332.741 481.306C328.9 481.399 325.487 480.862 322.501 479.695C319.514 478.527 316.625 476.596 313.833 473.899C308.598 468.842 305.86 462.702 305.62 455.479C305.379 448.255 307.763 442.064 312.772 436.906C317.842 431.685 323.968 428.985 331.15 428.808C338.394 428.629 344.618 431.053 349.821 436.079C355.056 441.135 357.735 447.494 357.858 455.156C358.043 462.817 355.631 469.226 350.622 474.384C350.069 474.954 349.532 475.508 349.009 476.046C348.453 476.428 348.051 476.715 347.805 476.906L320.963 450.981C320.392 450.429 320.257 449.839 320.56 449.211C320.862 448.583 321.413 447.858 322.212 447.035C322.55 446.687 322.795 446.434 322.949 446.276C323.349 445.864 323.656 445.548 323.871 445.326C324.455 444.725 324.949 444.343 325.352 444.181C325.786 443.987 326.241 444.12 326.717 444.58L345.564 462.783Z" fill="white"/>
<path d="M381.155 447.838L388.647 456.227L339.609 500.649L332.117 492.259L381.155 447.838Z" fill="white"/>
<path d="M381.549 474.553L388.689 483.245L351.298 514.754L344.158 506.063L381.549 474.553ZM387.682 476.912C386.338 475.276 385.811 473.557 386.1 471.756C386.39 469.954 387.243 468.457 388.66 467.263C390.043 466.097 391.587 465.546 393.293 465.607C395.028 465.703 396.581 466.586 397.953 468.257C399.185 469.756 399.639 471.421 399.316 473.251C399.01 474.893 398.165 476.297 396.782 477.463C395.433 478.6 393.871 479.166 392.098 479.161C390.386 479.161 388.914 478.412 387.682 476.912Z" fill="white"/>
<path d="M356.286 520.849L379.897 503.367C385.037 499.561 390.739 498.192 397.004 499.26C403.33 500.338 408.364 503.524 412.108 508.819C415.776 514.005 417.082 519.787 416.029 526.164C414.975 532.541 411.878 537.633 406.738 541.439L383.128 558.921L376.213 549.142L400.142 531.424C402.553 529.639 403.916 527.176 404.233 524.033C404.61 520.9 403.895 518.056 402.086 515.498C400.354 513.049 398.019 511.541 395.079 510.974C392.2 510.417 389.574 511.018 387.198 512.776L363.163 530.573L356.286 520.849Z" fill="white"/>
<path d="M428.497 579.913C431.038 577.235 432.488 574.188 432.847 570.772C433.227 567.395 432.5 564.071 430.665 560.801C428.637 557.185 425.585 554.809 421.511 553.673C417.496 552.553 413.754 553.046 410.286 555.153C409.682 555.519 409.241 555.813 408.961 556.035C405.466 558.725 403.421 562.108 402.825 566.183C402.284 569.813 402.963 573.32 404.862 576.706C405.941 578.629 407.276 580.243 408.866 581.546C410.494 582.827 412.303 583.663 414.291 584.054L411.308 594.685C407.655 593.759 404.577 592.327 402.075 590.39C399.574 588.454 397.373 585.793 395.474 582.408C391.913 576.06 391.009 569.311 392.76 562.161C394.511 555.011 398.46 549.57 404.605 545.837C410.826 542.059 417.353 541.034 424.186 542.764C431.079 544.509 436.295 548.536 439.835 554.845C443.396 561.193 444.185 568.141 442.202 575.689C440.278 583.253 436.244 588.902 430.099 592.634C429.42 593.046 428.76 593.447 428.119 593.836C427.489 594.065 427.031 594.24 426.746 594.361L408.488 561.815C408.1 561.122 408.134 560.508 408.592 559.972C409.049 559.437 409.768 558.871 410.749 558.276C411.163 558.024 411.465 557.841 411.653 557.726C412.143 557.428 412.52 557.199 412.784 557.039C413.501 556.604 414.072 556.36 414.497 556.308C414.961 556.233 415.354 556.484 415.678 557.061L428.497 579.913Z" fill="white"/>
<path d="M430.522 591.556C434.875 590.603 438.934 590.61 442.698 591.577C446.475 592.596 449.613 594.379 452.112 596.927C454.623 599.527 456.305 602.661 457.158 606.33C457.903 609.533 457.904 612.465 457.161 615.126C456.431 617.838 455.249 620.134 453.616 622.012L459.757 620.667L462.299 631.595L419.235 641.029L416.693 630.101L422.99 628.721C420.644 627.769 418.509 626.2 416.585 624.015C414.725 621.871 413.422 619.196 412.677 615.993C411.836 612.376 412 608.864 413.168 605.459C414.349 602.105 416.419 599.18 419.379 596.686C422.402 594.231 426.117 592.521 430.522 591.556ZM438.225 625.384C440.868 624.805 443.002 623.794 444.627 622.352C446.304 620.899 447.431 619.186 448.007 617.213C448.635 615.229 448.714 613.23 448.246 611.214C447.777 609.199 446.852 607.447 445.471 605.957C444.09 604.468 442.314 603.391 440.145 602.726C438.039 602.101 435.69 602.072 433.099 602.64C430.508 603.208 428.348 604.224 426.619 605.689C424.954 607.194 423.802 608.913 423.162 610.845C422.534 612.829 422.448 614.802 422.905 616.766C423.374 618.781 424.305 620.559 425.698 622.1C427.143 623.63 428.918 624.707 431.024 625.332C433.182 625.946 435.582 625.963 438.225 625.384Z" fill="white"/>
</g>
</svg>
