<svg width="301" height="668" viewBox="0 0 301 668" fill="none" xmlns="http://www.w3.org/2000/svg">
<mask id="mask0_4264_2358" style="mask-type:alpha" maskUnits="userSpaceOnUse" x="0" y="0" width="301" height="668">
<rect width="300.994" height="668" fill="#D9D9D9"/>
</mask>
<g mask="url(#mask0_4264_2358)">
<path fill-rule="evenodd" clip-rule="evenodd" d="M-96.9401 30.9069C30.4331 14.5014 151.919 62.5188 223.335 200.396L267.202 190.285C272.422 189.327 273.995 191.831 273.136 196.633L216.958 327.252L107.807 237.498C103.803 233.523 104.25 230.267 106.972 227.375L142.903 218.669C99.705 148.26 32.7453 103.802 -78.3865 107.64L-37.2511 58.8653L-96.9401 30.9069Z" fill="#343434"/>
<path fill-rule="evenodd" clip-rule="evenodd" d="M249.323 281.01C265.735 408.38 217.716 529.866 79.8291 601.284L89.9473 645.149C90.8961 650.364 88.3922 651.937 83.5993 651.083L-47.0225 594.906L42.7251 485.75C46.7007 481.746 49.958 482.2 52.8576 484.92L61.5631 520.851C131.967 477.654 176.434 410.693 172.594 299.555L221.369 340.69L249.323 281.01Z" fill="#343434"/>
<path fill-rule="evenodd" clip-rule="evenodd" d="M-346.669 375.572C-363.075 248.197 -315.058 126.71 -177.174 55.2917L-187.292 11.4258C-188.248 6.21227 -185.737 4.63773 -180.944 5.49131L-50.3243 61.6706L-140.078 170.823C-144.054 174.827 -147.309 174.38 -150.202 171.658L-158.907 135.726C-229.317 178.925 -273.775 245.885 -269.943 357.02L-318.711 315.883L-346.669 375.572Z" fill="#343434"/>
<path d="M-6.14467 56.316L-0.465943 57.426L-5.93167 81.978L-11.6104 80.8679L-6.14467 56.316ZM-2.87609 55.2561C-3.94503 55.0472 -4.70371 54.5406 -5.15213 53.7365C-5.60055 52.9323 -5.72122 52.0651 -5.51413 51.1349C-5.31197 50.2268 -4.84989 49.5082 -4.12789 48.979C-3.38362 48.4543 -2.46588 48.2985 -1.37468 48.5118C-0.39482 48.7034 0.316857 49.2123 0.76035 50.0386C1.15183 50.7854 1.24649 51.6128 1.04433 52.5209C0.847096 53.4069 0.382551 54.1366 -0.34931 54.71C-1.05397 55.2656 -1.89623 55.4477 -2.87609 55.2561Z" fill="white"/>
<path d="M2.67887 91.3135L-2.64024 89.8608L3.2959 69.4685C4.25355 66.1787 6.29573 63.7495 9.42246 62.181C12.5774 60.5967 15.8513 60.2679 19.2442 61.1945C22.6151 62.1151 25.1479 64.0886 26.8426 67.115C28.5373 70.1413 28.8963 73.3321 27.9196 76.6872C27.2346 79.0402 26.1993 80.9329 24.8135 82.3654C23.434 83.7761 21.5785 84.8333 19.247 85.5371C16.6804 86.3179 14.2917 86.4063 12.0808 85.8025C10.2203 85.2944 8.45857 84.2841 6.79581 82.7717L8.64134 76.4317C9.03227 77.3617 9.66777 78.182 10.5478 78.8927C11.4498 79.6094 12.459 80.1202 13.5753 80.4251C15.5016 80.9512 17.2644 80.8211 18.8638 80.0349C20.6826 79.1441 21.9346 77.5222 22.6195 75.1692C23.1649 73.2955 22.9415 71.5059 21.9494 69.8003C20.9572 68.0947 19.498 66.9788 17.5717 66.4528C15.6017 65.9147 13.7305 66.1328 11.9583 67.107C10.1861 68.0811 9.01456 69.5486 8.44378 71.5094L2.67887 91.3135Z" fill="white"/>
<path d="M52.0459 83.9757C52.2469 82.1051 51.8796 80.4386 50.944 78.9761C50.0296 77.5219 48.6743 76.4435 46.8781 75.7408C44.8918 74.9637 42.876 75.0035 40.8308 75.8602C38.815 76.7041 37.4242 78.0971 36.6584 80.0391C36.5252 80.3769 36.4359 80.6343 36.3905 80.8114C35.7988 82.9922 36.0265 84.9818 37.0735 86.7802C38.0014 88.3859 39.3952 89.5524 41.2547 90.2799C42.3113 90.6933 43.3752 90.9024 44.4465 90.9073C45.5261 90.8911 46.5392 90.6417 47.4856 90.1592L49.6257 95.3091C47.8206 96.1136 46.0936 96.5344 44.4448 96.5716C42.7959 96.6088 41.0417 96.2636 39.1821 95.5361C35.6954 94.1721 33.1798 91.7991 31.6352 88.4171C30.0906 85.0352 29.9967 81.6238 31.3535 78.183C32.7269 74.7 35.1009 72.2054 38.4754 70.6992C41.8794 69.1801 45.3142 69.0985 48.7798 70.4542C52.2665 71.8183 54.7975 74.307 56.3728 77.9202C57.9776 81.5206 58.1016 85.0413 56.7448 88.482C56.595 88.862 56.4493 89.2314 56.3078 89.5903C56.1196 89.8821 55.9858 90.0978 55.9064 90.2373L38.0292 83.2434C37.6488 83.0946 37.4682 82.8412 37.4874 82.4832C37.5066 82.1253 37.6244 81.6718 37.8408 81.123C37.9324 80.8908 37.999 80.7219 38.0406 80.6164C38.1488 80.342 38.2321 80.1309 38.2903 79.9831C38.4485 79.582 38.6073 79.3031 38.7667 79.1461C38.9345 78.9681 39.1768 78.9411 39.4938 79.0651L52.0459 83.9757Z" fill="white"/>
<path d="M69.1045 71.1109L74.3228 73.6107L59.8367 104.411L54.6183 101.911L69.1045 71.1109Z" fill="white"/>
<path d="M75.7174 84.2675L80.8283 86.9802L69.3153 109.344L64.2044 106.631L75.7174 84.2675ZM79.0964 84.173C78.1343 83.6623 77.5437 82.9507 77.3245 82.0381C77.1054 81.1254 77.2139 80.2455 77.6501 79.3981C78.0759 78.571 78.7 78.0032 79.5223 77.6947C80.3647 77.3969 81.2769 77.5086 82.259 78.0298C83.1409 78.4979 83.6862 79.1984 83.895 80.1312C84.0748 80.9715 83.9518 81.8053 83.526 82.6325C83.1106 83.4394 82.4813 84.0173 81.6382 84.3662C80.8256 84.7054 79.9783 84.641 79.0964 84.173Z" fill="white"/>
<path d="M74.2144 111.937L81.9624 98.9619C83.6493 96.137 86.0856 94.3579 89.2715 93.6247C92.4882 92.8839 95.5094 93.3997 98.3352 95.172C101.103 96.9082 102.869 99.3944 103.631 102.631C104.394 105.867 103.931 108.898 102.244 111.723L94.4965 124.697L89.2774 121.424L97.1301 108.274C97.9212 106.949 98.0807 105.51 97.6087 103.955C97.1675 102.393 96.2645 101.184 94.8997 100.328C93.5925 99.508 92.185 99.2545 90.677 99.5673C89.2 99.8727 88.0717 100.678 87.2922 101.983L79.4046 115.192L74.2144 111.937Z" fill="white"/>
<path d="M122.954 127.441C123.63 125.666 123.715 123.933 123.209 122.24C122.721 120.561 121.718 119.127 120.199 117.938C118.52 116.623 116.601 116.099 114.441 116.366C112.313 116.629 110.634 117.605 109.405 119.292C109.191 119.585 109.04 119.812 108.951 119.973C107.824 121.942 107.523 123.953 108.047 126.005C108.509 127.836 109.525 129.367 111.097 130.598C111.991 131.298 112.944 131.8 113.957 132.104C114.984 132.389 116.008 132.428 117.029 132.22L117.718 137.858C115.8 138.142 114.055 138.071 112.484 137.647C110.913 137.223 109.341 136.396 107.769 135.164C104.822 132.856 103.056 129.831 102.472 126.089C101.888 122.348 102.685 118.982 104.863 115.994C107.069 112.968 109.965 111.189 113.552 110.657C117.17 110.121 120.444 111 123.373 113.295C126.321 115.603 128.071 118.746 128.624 122.722C129.209 126.694 128.412 130.175 126.233 133.164C125.993 133.494 125.759 133.815 125.532 134.126C125.277 134.36 125.095 134.533 124.983 134.648L109.871 122.811C109.549 122.559 109.444 122.26 109.555 121.915C109.666 121.57 109.896 121.159 110.243 120.683C110.39 120.481 110.497 120.334 110.564 120.242C110.738 120.004 110.871 119.821 110.965 119.692C111.219 119.344 111.442 119.115 111.633 119.006C111.838 118.879 112.075 118.92 112.343 119.13L122.954 127.441Z" fill="white"/>
<path d="M129.557 135.25C131.435 133.935 133.364 133.134 135.343 132.848C137.338 132.584 139.18 132.809 140.871 133.524C142.578 134.261 143.997 135.416 145.129 136.989C146.117 138.363 146.698 139.755 146.872 141.165C147.062 142.597 146.956 143.921 146.552 145.136L149.202 143.282L152.572 147.967L133.995 160.973L130.624 156.288L133.34 154.386C132.038 154.398 130.714 154.076 129.368 153.42C128.06 152.77 126.912 151.758 125.924 150.385C124.808 148.834 124.191 147.134 124.071 145.286C123.967 143.46 124.371 141.662 125.283 139.891C126.232 138.127 127.657 136.58 129.557 135.25ZM139.913 149.785C141.053 148.986 141.866 148.084 142.352 147.078C142.86 146.055 143.056 145.019 142.939 143.968C142.844 142.902 142.486 141.937 141.865 141.073C141.243 140.209 140.457 139.56 139.506 139.127C138.556 138.693 137.499 138.533 136.338 138.647C135.214 138.767 134.093 139.219 132.976 140.001C131.858 140.784 131.034 141.694 130.503 142.732C130.01 143.776 129.803 144.82 129.882 145.865C129.977 146.931 130.327 147.885 130.933 148.727C131.554 149.591 132.348 150.25 133.315 150.706C134.304 151.146 135.36 151.306 136.484 151.186C137.63 151.05 138.773 150.583 139.913 149.785Z" fill="white"/>
<path d="M171.193 177.602C172.616 179.994 173.022 182.357 172.41 184.69C171.835 187.033 170.234 188.986 167.608 190.549L156.175 197.352L153.244 192.427L164.009 186.022C165.533 185.114 166.463 184.037 166.8 182.788C167.161 181.526 166.943 180.226 166.148 178.89C165.352 177.553 164.307 176.73 163.011 176.421C161.754 176.122 160.362 176.426 158.838 177.333L148.074 183.738L145.143 178.813L155.907 172.408C157.432 171.501 158.362 170.423 158.699 169.175C159.059 167.912 158.842 166.613 158.046 165.276C157.237 163.916 156.185 163.081 154.889 162.772C153.631 162.473 152.24 162.777 150.716 163.684L139.952 170.089L137.021 165.165L156.509 153.568L159.44 158.493L157.083 159.895C158.281 160.04 159.407 160.465 160.462 161.171C161.531 161.9 162.422 162.863 163.134 164.059C164.041 165.583 164.522 167.139 164.577 168.726C164.655 170.299 164.292 171.769 163.487 173.137C164.989 173.101 166.436 173.478 167.828 174.269C169.234 175.084 170.355 176.195 171.193 177.602Z" fill="white"/>
<path d="M177.383 197.37C178.632 197.571 179.84 198.096 181.008 198.946C182.213 199.809 183.177 200.99 183.901 202.489C184.744 204.234 185.076 206.02 184.898 207.847C184.732 209.698 184.051 211.426 182.855 213.029C181.696 214.644 180.079 215.969 178.003 217.005C175.927 218.04 173.882 218.542 171.867 218.511C169.888 218.492 168.115 217.989 166.547 217.003C164.992 216.041 163.792 214.687 162.95 212.942C162.226 211.443 161.89 209.964 161.943 208.505C162.007 207.07 162.331 205.764 162.915 204.589L150.351 210.857L147.859 205.697L177.821 190.748L180.314 195.908L177.383 197.37ZM175.457 211.734C176.678 211.125 177.604 210.343 178.233 209.388C178.9 208.446 179.263 207.441 179.323 206.374C179.396 205.332 179.2 204.331 178.737 203.373C178.286 202.439 177.615 201.676 176.723 201.085C175.867 200.505 174.863 200.183 173.71 200.118C172.569 200.077 171.388 200.361 170.168 200.97C168.947 201.579 168.003 202.355 167.337 203.297C166.683 204.264 166.307 205.275 166.21 206.33C166.15 207.397 166.345 208.397 166.796 209.331C167.259 210.289 167.931 211.052 168.811 211.619C169.703 212.211 170.719 212.527 171.86 212.568C173.013 212.633 174.212 212.355 175.457 211.734Z" fill="white"/>
<path d="M191.204 360.204L191.814 355.089L211.42 358.124C214.583 358.613 217.101 360.214 218.975 362.926C220.868 365.663 221.619 368.662 221.23 371.925C220.844 375.166 219.372 377.757 216.815 379.697C214.258 381.638 211.367 382.359 208.141 381.86C205.879 381.51 203.993 380.778 202.483 379.666C200.994 378.556 199.765 376.962 198.797 374.883C197.726 372.595 197.317 370.388 197.571 368.263C197.784 366.474 198.474 364.716 199.64 362.988L205.735 363.932C204.932 364.408 204.263 365.097 203.729 366.001C203.192 366.925 202.859 367.924 202.731 368.997C202.51 370.849 202.872 372.47 203.815 373.859C204.886 375.44 206.552 376.405 208.814 376.755C210.615 377.034 212.234 376.609 213.67 375.481C215.106 374.353 215.934 372.863 216.155 371.01C216.381 369.116 215.924 367.406 214.783 365.879C213.643 364.352 212.13 363.442 210.245 363.151L191.204 360.204Z" fill="white"/>
<path d="M217.925 388.252L216.894 393.558L193.954 388.477L194.985 383.171L217.925 388.252ZM218.918 391.305C219.112 390.306 219.585 389.597 220.336 389.177C221.086 388.757 221.896 388.644 222.765 388.836C223.614 389.024 224.286 389.455 224.781 390.129C225.272 390.824 225.418 391.681 225.22 392.7C225.042 393.616 224.567 394.281 223.796 394.696C223.098 395.063 222.326 395.152 221.477 394.964C220.649 394.781 219.967 394.347 219.431 393.664C218.911 393.007 218.74 392.22 218.918 391.305Z" fill="white"/>
<path d="M185.227 396.589L186.578 391.619L205.633 397.144C208.707 398.036 210.978 399.941 212.446 402.86C213.929 405.805 214.24 408.863 213.378 412.034C212.521 415.183 210.68 417.551 207.855 419.137C205.029 420.723 202.049 421.062 198.914 420.153C196.715 419.515 194.946 418.55 193.607 417.257C192.288 415.97 191.298 414.237 190.639 412.06C189.907 409.663 189.822 407.432 190.384 405.366C190.857 403.628 191.799 401.981 193.21 400.427L199.134 402.144C198.265 402.51 197.5 403.105 196.837 403.928C196.168 404.771 195.692 405.714 195.408 406.757C194.919 408.557 195.042 410.204 195.778 411.697C196.612 413.395 198.128 414.563 200.327 415.2C202.078 415.708 203.749 415.497 205.341 414.569C206.934 413.641 207.974 412.276 208.464 410.476C208.965 408.636 208.759 406.888 207.847 405.234C206.936 403.579 205.564 402.486 203.732 401.955L185.227 396.589Z" fill="white"/>
<path d="M192.101 442.781C193.848 442.967 195.405 442.623 196.77 441.747C198.127 440.892 199.134 439.625 199.788 437.946C200.512 436.09 200.473 434.207 199.671 432.297C198.88 430.415 197.578 429.117 195.763 428.404C195.447 428.28 195.207 428.197 195.041 428.154C193.004 427.604 191.145 427.819 189.466 428.798C187.967 429.667 186.879 430.97 186.201 432.708C185.816 433.695 185.622 434.689 185.619 435.69C185.635 436.698 185.869 437.644 186.32 438.528L181.512 440.532C180.759 438.847 180.364 437.234 180.327 435.694C180.291 434.153 180.612 432.514 181.289 430.777C182.56 427.518 184.774 425.166 187.932 423.72C191.09 422.274 194.276 422.183 197.492 423.447C200.746 424.726 203.079 426.941 204.489 430.092C205.912 433.27 205.991 436.479 204.728 439.717C203.458 442.976 201.135 445.342 197.762 446.817C194.4 448.32 191.112 448.439 187.896 447.175C187.541 447.036 187.196 446.9 186.86 446.768C186.588 446.593 186.386 446.468 186.256 446.394L192.771 429.688C192.91 429.332 193.146 429.163 193.481 429.181C193.815 429.198 194.239 429.308 194.752 429.51C194.969 429.595 195.126 429.657 195.225 429.696C195.482 429.796 195.679 429.874 195.817 429.928C196.192 430.076 196.452 430.224 196.599 430.372C196.766 430.529 196.791 430.755 196.676 431.052L192.101 442.781Z" fill="white"/>
<path d="M204.11 458.76L201.78 463.637L172.996 450.136L175.325 445.259L204.11 458.76Z" fill="white"/>
<path d="M191.812 464.982L189.283 469.758L168.382 459.026L170.91 454.249L191.812 464.982ZM191.903 468.138C192.379 467.239 193.044 466.686 193.896 466.481C194.748 466.275 195.57 466.376 196.362 466.782C197.135 467.179 197.666 467.762 197.955 468.529C198.234 469.316 198.131 470.168 197.645 471.086C197.209 471.91 196.555 472.42 195.684 472.616C194.899 472.785 194.12 472.671 193.347 472.274C192.593 471.887 192.052 471.3 191.725 470.512C191.408 469.754 191.467 468.962 191.903 468.138Z" fill="white"/>
<path d="M165.934 463.658L178.062 470.883C180.702 472.456 182.367 474.73 183.055 477.705C183.75 480.709 183.271 483.532 181.618 486.173C179.999 488.761 177.679 490.412 174.656 491.128C171.634 491.843 168.802 491.414 166.162 489.841L154.034 482.617L157.087 477.738L169.378 485.061C170.617 485.798 171.962 485.946 173.413 485.503C174.872 485.09 176.001 484.245 176.799 482.969C177.563 481.747 177.799 480.432 177.505 479.024C177.218 477.645 176.465 476.591 175.245 475.865L162.899 468.51L165.934 463.658Z" fill="white"/>
<path d="M151.451 509.276C153.109 509.906 154.729 509.984 156.31 509.509C157.877 509.051 159.216 508.113 160.325 506.693C161.552 505.123 162.04 503.33 161.788 501.313C161.54 499.326 160.627 497.758 159.05 496.611C158.776 496.412 158.564 496.271 158.414 496.188C156.573 495.137 154.694 494.858 152.777 495.35C151.068 495.783 149.639 496.734 148.49 498.204C147.837 499.039 147.37 499.93 147.087 500.876C146.821 501.836 146.786 502.792 146.981 503.746L141.715 504.395C141.448 502.604 141.512 500.974 141.907 499.506C142.301 498.038 143.073 496.569 144.222 495.099C146.375 492.344 149.199 490.691 152.694 490.142C156.188 489.592 159.332 490.334 162.126 492.366C164.955 494.423 166.619 497.126 167.12 500.476C167.624 503.856 166.806 506.915 164.666 509.654C162.512 512.409 159.578 514.047 155.864 514.568C152.155 515.118 148.903 514.377 146.109 512.345C145.8 512.12 145.5 511.902 145.209 511.69C144.991 511.453 144.828 511.283 144.721 511.179L155.763 497.05C155.998 496.749 156.277 496.651 156.599 496.754C156.922 496.858 157.306 497.072 157.752 497.396C157.94 497.533 158.077 497.633 158.163 497.695C158.386 497.857 158.557 497.982 158.677 498.069C159.003 498.306 159.217 498.514 159.319 498.693C159.438 498.884 159.4 499.105 159.204 499.356L151.451 509.276Z" fill="white"/>
<path d="M143.4 514.91C144.63 516.663 145.379 518.464 145.649 520.312C145.897 522.176 145.689 523.897 145.022 525.477C144.336 527.072 143.258 528.399 141.79 529.458C140.508 530.382 139.208 530.926 137.891 531.09C136.553 531.269 135.317 531.171 134.181 530.796L135.916 533.268L131.543 536.421L119.376 519.081L123.749 515.928L125.528 518.463C125.515 517.247 125.815 516.009 126.427 514.751C127.032 513.529 127.976 512.455 129.258 511.531C130.706 510.488 132.293 509.909 134.019 509.796C135.725 509.697 137.405 510.072 139.06 510.922C140.709 511.807 142.155 513.137 143.4 514.91ZM129.833 524.598C130.579 525.662 131.423 526.421 132.364 526.874C133.319 527.348 134.287 527.53 135.269 527.419C136.264 527.33 137.166 526.994 137.972 526.413C138.778 525.831 139.384 525.096 139.788 524.208C140.192 523.319 140.34 522.333 140.233 521.247C140.119 520.198 139.697 519.152 138.964 518.108C138.232 517.065 137.381 516.296 136.411 515.801C135.435 515.342 134.46 515.15 133.485 515.224C132.489 515.314 131.598 515.642 130.812 516.209C130.006 516.79 129.39 517.532 128.965 518.436C128.555 519.36 128.407 520.347 128.52 521.396C128.648 522.466 129.086 523.534 129.833 524.598Z" fill="white"/>
<path d="M103.876 553.846C101.643 555.178 99.4367 555.559 97.2566 554.99C95.0677 554.455 93.242 552.962 91.7793 550.51L85.4131 539.837L90.0105 537.095L96.0046 547.143C96.8535 548.566 97.8611 549.435 99.0276 549.748C100.207 550.083 101.421 549.879 102.669 549.135C103.917 548.39 104.684 547.413 104.971 546.203C105.25 545.027 104.965 543.728 104.116 542.305L98.1218 532.256L102.719 529.514L108.713 539.563C109.562 540.986 110.57 541.854 111.736 542.167C112.916 542.503 114.13 542.298 115.377 541.554C116.647 540.796 117.426 539.812 117.713 538.602C117.991 537.427 117.706 536.128 116.857 534.705L110.863 524.656L115.461 521.914L126.313 540.106L121.715 542.849L120.403 540.649C120.269 541.767 119.873 542.82 119.214 543.806C118.534 544.806 117.636 545.638 116.519 546.304C115.096 547.153 113.644 547.604 112.162 547.657C110.692 547.732 109.318 547.394 108.039 546.643C108.075 548.047 107.724 549.399 106.986 550.7C106.227 552.014 105.19 553.063 103.876 553.846Z" fill="white"/>
<path d="M85.4147 559.65C85.2286 560.816 84.739 561.945 83.9458 563.037C83.1411 564.163 82.0389 565.065 80.6394 565.743C79.0105 566.532 77.3426 566.844 75.6357 566.68C73.9058 566.526 72.2917 565.892 70.7933 564.777C69.2833 563.695 68.0436 562.186 67.0742 560.248C66.1048 558.31 65.6338 556.4 65.6612 554.517C65.677 552.669 66.1449 551.012 67.065 549.547C67.9622 548.093 69.2252 546.971 70.8542 546.182C72.2537 545.505 73.6352 545.189 74.9986 545.237C76.3391 545.296 77.5587 545.598 78.6574 546.142L72.7897 534.412L77.6076 532.079L91.6012 560.052L86.7833 562.385L85.4147 559.65ZM71.9955 557.864C72.5657 559.004 73.297 559.868 74.1894 560.455C75.0702 561.077 76.009 561.415 77.0057 561.471C77.9795 561.537 78.9138 561.354 79.8086 560.92C80.6804 560.498 81.3923 559.87 81.9443 559.036C82.4847 558.236 82.7848 557.298 82.8446 556.221C82.8815 555.155 82.6148 554.053 82.0446 552.913C81.4744 551.773 80.7488 550.892 79.868 550.271C78.9642 549.661 78.0197 549.311 77.0345 549.222C76.0378 549.166 75.1035 549.35 74.2317 549.772C73.3369 550.205 72.625 550.833 72.096 551.656C71.544 552.49 71.2496 553.439 71.2127 554.505C71.1529 555.582 71.4138 556.702 71.9955 557.864Z" fill="white"/>
</g>
</svg>
