<svg width="19" height="19" viewBox="0 0 19 19" fill="none" xmlns="http://www.w3.org/2000/svg">
<path fill-rule="evenodd" clip-rule="evenodd" d="M16.8088 0.916992H1.54006C0.840427 0.916992 0.271973 1.4934 0.271973 2.20098V17.4419C0.271973 18.1495 0.840427 18.7259 1.54006 18.7259H16.8088C17.5085 18.7259 18.0809 18.1495 18.0809 17.4419V2.20098C18.0809 1.4934 17.5085 0.916992 16.8088 0.916992ZM5.6544 16.1818H3.01487V7.6828H5.65838V16.1818H5.6544ZM4.33464 6.52204C3.48792 6.52204 2.80418 5.83433 2.80418 4.99158C2.80418 4.14884 3.48792 3.46113 4.33464 3.46113C5.17738 3.46113 5.86509 4.14884 5.86509 4.99158C5.86509 5.8383 5.18136 6.52204 4.33464 6.52204V6.52204ZM15.5487 16.1818H12.9092V12.0476C12.9092 11.0617 12.8893 9.79363 11.5377 9.79363C10.1623 9.79363 9.9516 10.8669 9.9516 11.976V16.1818H7.31207V7.6828H9.84427V8.84356H9.88005C10.2338 8.17572 11.0965 7.47211 12.3805 7.47211C15.0518 7.47211 15.5487 9.23313 15.5487 11.5228V16.1818V16.1818Z" fill="white"/>
</svg>
