<svg width="246" height="80" viewBox="0 0 246 80" fill="none" xmlns="http://www.w3.org/2000/svg">
<path fill-rule="evenodd" clip-rule="evenodd" d="M34.2008 11.5159C46.7022 11.5159 56.8481 21.6619 56.8481 34.1632C56.8481 46.6646 46.7022 56.8105 34.2008 56.8105C21.6995 56.8105 11.5535 46.6646 11.5535 34.1632C11.5535 21.6619 21.6995 11.5159 34.2008 11.5159Z" fill="#FF0011"/>
<path fill-rule="evenodd" clip-rule="evenodd" d="M4.36682 31.8807C5.75883 19.2256 13.2175 8.6416 28.1615 4.97938L28.2113 0.516886C28.2409 -0.00845337 28.5187 -0.101547 28.9611 0.0932903L40.2292 8.55501L29.039 16.9763C28.5628 17.2693 28.2597 17.1502 28.0446 16.8205V13.1553C20.2562 15.6738 14.4125 21.0874 12.1892 31.8843L8.45192 26.7824L4.36682 31.8807Z" fill="white"/>
<path fill-rule="evenodd" clip-rule="evenodd" d="M36.5215 4.37566C49.1766 5.76694 59.7606 13.2256 63.4228 28.1704L67.8853 28.2194C68.4099 28.2497 68.503 28.5276 68.3089 28.9692L59.8472 40.2373L51.4252 29.0479C51.1322 28.5716 51.252 28.2685 51.5818 28.0527H55.2469C52.7284 20.265 47.3148 14.4206 36.5172 12.1973L41.6191 8.46003L36.5215 4.37566Z" fill="white"/>
<path fill-rule="evenodd" clip-rule="evenodd" d="M64.0347 36.4452C62.6435 49.0996 55.1848 59.6836 40.2408 63.3458L40.191 67.8083C40.1607 68.3344 39.8836 68.4267 39.4412 68.2326L28.1731 59.7709L39.3625 51.3489C39.8388 51.0566 40.1419 51.1749 40.3577 51.5047V55.1698C48.1454 52.6514 53.9898 47.2378 56.2131 36.4409L59.9504 41.5428L64.0347 36.4452Z" fill="white"/>
<path fill-rule="evenodd" clip-rule="evenodd" d="M31.8808 63.9507C19.2258 62.5587 8.64175 55.1 4.97953 40.1553L0.517028 40.1062C-0.00759023 40.0766 -0.100678 39.7981 0.0934381 39.3564L8.55516 28.0883L16.9765 39.2785C17.2694 39.7548 17.1504 40.0578 16.8206 40.2729H13.1555C15.6739 48.0613 21.0875 53.905 31.8844 56.129L26.7826 59.8656L31.8808 63.9507Z" fill="white"/>
<path d="M78.4203 47.8516V27.1598C78.4203 23.8223 79.6737 21.0087 82.1828 18.7212C84.6912 16.4329 87.6585 15.2892 91.084 15.2892C94.4879 15.2892 97.3946 16.4936 99.8033 18.903C102.213 21.3125 103.417 24.2199 103.417 27.6238C103.417 30.011 102.964 32.0502 102.057 33.7417C101.151 35.4325 99.703 36.9082 97.7142 38.1681C95.5263 39.5609 93.316 40.2565 91.0833 40.2572C89.2049 40.2565 87.2818 39.7593 85.3146 38.7649V32.3331C85.9338 33.106 86.7564 33.7136 87.7847 34.1559C88.8123 34.5976 89.8904 34.8191 91.0176 34.8191C92.9624 34.8191 94.5759 34.244 95.8582 33.0944C97.3166 31.7905 98.0462 29.9438 98.0462 27.5567C98.0462 25.656 97.3498 24.0309 95.9578 22.6822C94.5651 21.3335 92.896 20.6595 90.9519 20.6595C88.9624 20.6595 87.271 21.345 85.879 22.7154C84.4862 24.0857 83.7899 25.7664 83.7899 27.7559V47.8516H78.4203ZM116.314 47.8516V27.1598C116.314 23.8223 117.567 21.0087 120.077 18.7212C122.585 16.4329 125.552 15.2892 128.978 15.2892C132.382 15.2892 135.288 16.4936 137.697 18.903C140.107 21.3125 141.311 24.2199 141.311 27.6238C141.311 30.011 140.858 32.0502 139.951 33.7417C139.045 35.4325 137.597 36.9082 135.608 38.1681C133.42 39.5609 131.21 40.2565 128.977 40.2572C127.099 40.2565 125.176 39.7593 123.208 38.7649V32.3331C123.828 33.106 124.65 33.7136 125.678 34.1559C126.706 34.5976 127.784 34.8191 128.911 34.8191C130.856 34.8191 132.47 34.244 133.752 33.0944C135.21 31.7905 135.94 29.9438 135.94 27.5567C135.94 25.656 135.244 24.0309 133.852 22.6822C132.459 21.3335 130.79 20.6595 128.846 20.6595C126.856 20.6595 125.165 21.345 123.773 22.7154C122.38 24.0857 121.684 25.7664 121.684 27.7559V47.8516H116.314ZM147.882 37.1384C145.275 34.6199 143.972 31.5595 143.972 27.9572C143.972 24.3109 145.237 21.2007 147.767 18.6267C150.298 16.0519 153.375 14.7645 157 14.7645C160.647 14.7645 163.835 16.1183 166.564 18.8251C169.294 21.5312 170.659 24.6854 170.659 28.2877C170.659 28.6846 170.659 29.0714 170.659 29.4481C170.591 29.7786 170.547 30.0218 170.526 30.1762H151.824C151.427 30.1762 151.172 30.0109 151.061 29.679C150.951 29.3478 150.896 28.8939 150.896 28.3187C150.895 28.0763 150.895 27.8995 150.896 27.7884C150.895 27.5012 150.895 27.2796 150.896 27.1252C150.896 26.7052 150.94 26.3906 151.028 26.1799C151.116 25.9699 151.327 25.8652 151.659 25.8652H164.793C164.306 24.098 163.384 22.7175 162.024 21.7231C160.664 20.7295 159.045 20.2323 157.166 20.2323C155.087 20.2323 153.28 20.9777 151.743 22.4693C150.207 23.9609 149.439 25.7224 149.439 27.7559C149.439 28.1088 149.45 28.3736 149.472 28.5511C149.716 30.7383 150.633 32.4623 152.224 33.7208C153.638 34.848 155.318 35.4108 157.262 35.4108C158.367 35.4108 159.406 35.2174 160.378 34.8314C161.35 34.4439 162.179 33.8637 162.864 33.0901L166.643 37.0035C165.295 38.3745 163.881 39.3696 162.4 39.9888C160.92 40.6079 159.207 40.9175 157.262 40.9175C153.616 40.9175 150.489 39.6583 147.882 37.1384ZM223.223 37.1384C220.616 34.6199 219.313 31.5595 219.313 27.9572C219.313 24.3109 220.578 21.2007 223.109 18.6267C225.639 16.0519 228.716 14.7645 232.341 14.7645C235.988 14.7645 239.176 16.1183 241.906 18.8251C244.635 21.5312 246 24.6854 246 28.2877C246 28.6846 246 29.0714 246 29.4481C245.933 29.7786 245.889 30.0218 245.867 30.1762H227.166C226.768 30.1762 226.513 30.0109 226.403 29.679C226.293 29.3478 226.237 28.8939 226.237 28.3187C226.236 28.0763 226.236 27.8995 226.237 27.7884C226.236 27.5012 226.236 27.2796 226.237 27.1252C226.237 26.7052 226.281 26.3906 226.37 26.1799C226.458 25.9699 226.669 25.8652 227 25.8652H240.135C239.648 24.098 238.725 22.7175 237.366 21.7231C236.006 20.7295 234.386 20.2323 232.507 20.2323C230.429 20.2323 228.622 20.9777 227.085 22.4693C225.549 23.9609 224.781 25.7224 224.781 27.7559C224.781 28.1088 224.792 28.3736 224.814 28.5511C225.057 30.7383 225.974 32.4623 227.565 33.7208C228.98 34.848 230.659 35.4108 232.604 35.4108C233.709 35.4108 234.747 35.2174 235.72 34.8314C236.692 34.4439 237.521 33.8637 238.206 33.0901L241.984 37.0035C240.636 38.3745 239.223 39.3696 237.742 39.9888C236.261 40.6079 234.549 40.9175 232.604 40.9175C228.957 40.9175 225.831 39.6583 223.223 37.1384ZM192.83 40.7819V26.0485C192.83 22.8409 193.986 20.1031 196.294 17.8358C198.604 15.5684 201.383 14.4348 204.632 14.4348C207.813 14.4348 210.532 15.5728 212.786 17.848C215.04 20.124 216.167 22.8633 216.167 26.0673V40.7819H210.165V25.8681C210.165 24.365 209.585 23.0892 208.424 22.0399C207.264 20.9907 205.9 20.4661 204.33 20.4653C202.827 20.4661 201.528 20.9799 200.434 22.0089C199.34 23.0379 198.793 24.2935 198.793 25.7765V40.7819H192.83ZM106.738 40.6844V16.1825H112.371V40.6844H106.738ZM173.873 40.6844V7.53969H179.506V40.6844H173.873ZM183.09 40.6844V16.1825H188.723V40.6844H183.09ZM107.137 13.5335C106.541 12.8479 106.243 12.0412 106.243 11.1132C106.243 10.2068 106.536 9.43322 107.121 8.79242C107.706 8.1509 108.54 7.83051 109.622 7.83051C110.594 7.83051 111.377 8.1841 111.973 8.89129C112.504 9.53281 112.769 10.3064 112.769 11.2127C112.769 12.0967 112.487 12.8754 111.924 13.5501C111.361 14.2241 110.594 14.5611 109.622 14.5611C108.562 14.5611 107.734 14.2183 107.137 13.5335ZM183.489 13.5335C182.893 12.8479 182.595 12.0412 182.595 11.1132C182.595 10.2068 182.888 9.43322 183.472 8.79242C184.058 8.1509 184.892 7.83051 185.973 7.83051C186.945 7.83051 187.729 8.1841 188.325 8.89129C188.856 9.53281 189.121 10.3064 189.12 11.2127C189.121 12.0967 188.839 12.8754 188.276 13.5501C187.713 14.2241 186.945 14.5611 185.973 14.5611C184.913 14.5611 184.086 14.2183 183.489 13.5335Z" fill="white"/>
<path d="M153.254 66.5126C151.543 65.441 150.189 63.9299 149.192 61.9815C148.779 61.1733 148.451 60.3146 148.209 59.4061L155.442 59.8831H155.436C155.976 60.6566 156.632 61.2751 157.406 61.7355C158.402 62.3315 159.466 62.6288 160.597 62.6288C161.758 62.6288 162.844 62.3387 163.855 61.7585C164.424 61.4324 164.929 61.0247 165.366 60.5376L166.698 60.6249L166.135 59.489C166.179 59.4133 166.223 59.3368 166.267 59.2581C166.862 58.1728 167.158 56.8717 167.158 55.3534C167.158 55.0677 167.147 54.7884 167.126 54.5178L167.123 54.5185L167.158 54.5128V64.1024C166.355 65.2627 165.246 66.2218 163.833 66.9816C162.42 67.7408 160.79 68.1196 158.946 68.1196C156.863 68.1196 154.965 67.5835 153.254 66.5126ZM229.908 67.004C228.524 66.2593 227.401 65.3226 226.538 64.1911V46.5583C227.341 45.4283 228.451 44.4837 229.863 43.7252C231.277 42.9654 232.891 42.5873 234.707 42.5873C236.82 42.5873 238.731 43.1075 240.442 44.1496C242.154 45.1901 243.508 46.6709 244.503 48.5904C245.502 50.5106 246 52.7347 246 55.264C246 57.794 245.502 60.0317 244.503 61.9815C243.508 63.9299 242.154 65.441 240.442 66.5126C238.731 67.5835 236.82 68.1196 234.707 68.1196C232.891 68.1196 231.292 67.7473 229.908 67.004ZM176.768 67.7177V53.0089L182.654 52.0881L176.768 51.6422L176.768 42.9899H183.018V45.9796C183.822 44.9369 184.856 44.1193 186.121 43.5239C187.385 42.9293 188.777 42.632 190.295 42.632C192.228 42.632 193.955 43.0404 195.471 43.8602C196.989 44.6771 198.164 45.8454 198.998 47.3622C199.803 45.9356 200.97 44.7889 202.504 43.9266C204.036 43.0635 205.695 42.632 207.479 42.632C210.515 42.632 212.963 43.5614 214.822 45.4203C216.682 47.2814 217.611 49.8771 217.611 53.211V67.7177H211.363V54.0589C211.363 52.1242 210.871 50.6434 209.89 49.618C208.908 48.5904 207.569 48.0781 205.871 48.0781C204.175 48.0781 202.829 48.5904 201.832 49.618C200.835 50.6434 200.337 52.1242 200.337 54.0589V67.7177H194.088V54.0589C194.088 52.1242 193.597 50.6434 192.616 49.618C191.633 48.5904 190.294 48.0781 188.599 48.0781C186.87 48.0781 185.511 48.5904 184.513 49.618C183.516 50.6434 183.018 52.1242 183.018 54.0589V67.7177H176.768ZM236.291 61.7355C237.287 61.1408 238.092 60.2944 238.701 59.1917C239.312 58.0905 239.617 56.7823 239.617 55.264C239.617 53.776 239.312 52.4908 238.701 51.4026C238.092 50.3165 237.287 49.4896 236.291 48.9253C235.295 48.3602 234.216 48.0781 233.056 48.0781C231.924 48.0781 230.86 48.3674 229.863 48.9476C228.867 49.5285 228.063 50.3678 227.454 51.469C226.843 52.5716 226.538 53.8655 226.538 55.3534C226.538 56.8407 226.843 58.1353 227.454 59.2372C228.063 60.3369 228.867 61.1784 229.863 61.7585C230.86 62.3387 231.924 62.6288 233.056 62.6288C234.216 62.6288 235.295 62.3315 236.291 61.7355ZM147.697 55.264C147.697 52.765 148.196 50.5467 149.192 48.6142C150.189 46.6788 151.543 45.1901 153.254 44.1496C154.965 43.1075 156.876 42.5873 158.989 42.5873C160.835 42.5873 162.449 42.9596 163.833 43.7022C165.217 44.4461 166.325 45.385 167.158 46.515L167.157 50.914L165.877 50.8166C165.335 50.0329 164.66 49.4109 163.855 48.9476C162.844 48.3674 161.758 48.0781 160.597 48.0781C159.437 48.0781 158.365 48.3602 157.383 48.9253C156.401 49.4896 155.606 50.3165 154.995 51.4026C154.386 52.4908 154.08 53.776 154.08 55.264C154.08 55.4833 154.086 55.6984 154.099 55.9091L147.765 56.7866L147.759 56.7873C147.717 56.2923 147.697 55.7842 147.697 55.264Z" fill="#FF0011"/>
<path fill-rule="evenodd" clip-rule="evenodd" d="M220.383 79.5L220.384 42.5256H226.739V79.5H220.383Z" fill="#FF0011"/>
<path fill-rule="evenodd" clip-rule="evenodd" d="M167.162 67.4961V54.512L173.511 53.519V67.4961H167.162ZM173.511 51.3953L167.162 50.9147L167.162 42.5259H173.511V51.3953Z" fill="#FF0011"/>
<path fill-rule="evenodd" clip-rule="evenodd" d="M139.087 57.9003L165.386 59.5542L163.074 55.104L178.669 52.7775L158.377 51.3111L159.611 55.1884L139.087 57.9003Z" fill="white"/>
<path fill-rule="evenodd" clip-rule="evenodd" d="M36.7077 31.7283H48.4615L25.7925 50.2739L36.7077 31.7283Z" fill="white"/>
<path fill-rule="evenodd" clip-rule="evenodd" d="M32.0323 35.5068H20.2786L42.9475 16.9612L32.0323 35.5068Z" fill="white"/>
</svg>
