<svg width="187" height="236" viewBox="0 0 187 236" fill="none" xmlns="http://www.w3.org/2000/svg">
<ellipse cx="21.25" cy="20.7778" rx="21.25" ry="20.7778" transform="matrix(-1 0 0 1 187 29.2778)" fill="#161616"/>
<circle cx="20.7778" cy="20.7778" r="20.7778" transform="matrix(-1 0 0 1 144.5 0)" fill="#161616"/>
<circle cx="95.4495" cy="94.2293" r="74.396" fill="#161616"/>
<circle cx="95.4497" cy="94.2293" r="64.334" fill="#FF0000"/>
<ellipse cx="94.2407" cy="86.0909" rx="11.1296" ry="26.5023" fill="white"/>
<ellipse cx="94.2407" cy="86.0909" rx="11.1296" ry="26.5023" fill="white"/>
<ellipse cx="59.5" cy="76.9722" rx="8.5" ry="20.3055" fill="white"/>
<ellipse cx="59.5" cy="76.9722" rx="8.5" ry="20.3055" fill="white"/>
<path d="M50.5664 221.877C51.9827 195.981 54.1532 182.165 60.1063 158.583L95.7475 165.699L128.908 156.299C132.434 169.981 134.149 178.984 137.105 195.521C140.273 214.98 141.637 227.522 137.105 232.98C132.229 237.29 128.415 236.792 123.616 232.15C120.784 219.865 112.579 216.101 94.5622 213.161C75.6933 215.862 67.117 229.177 65.8197 232.357C64.5224 235.537 55.4561 235.017 53.1606 233.395C50.8651 231.773 50.9196 228.475 50.5664 221.877Z" fill="#161616"/>
<path fill-rule="evenodd" clip-rule="evenodd" d="M95.3896 171.011C102.639 171.011 108.523 176.895 108.523 184.145C108.523 191.395 102.639 197.279 95.3896 197.279C88.1399 197.279 82.2561 191.395 82.2561 184.145C82.2561 176.895 88.1399 171.011 95.3896 171.011Z" fill="white"/>
<path fill-rule="evenodd" clip-rule="evenodd" d="M78.0879 182.822C78.8951 175.483 83.2205 169.345 91.8868 167.221L91.9157 164.634C91.9328 164.329 92.094 164.275 92.3505 164.388L98.885 169.295L92.3957 174.179C92.1195 174.348 91.9437 174.279 91.819 174.088V171.963C87.3024 173.423 83.9135 176.563 82.6242 182.824L80.4569 179.865L78.0879 182.822Z" fill="white"/>
<path fill-rule="evenodd" clip-rule="evenodd" d="M96.734 166.872C104.073 167.679 110.211 172.004 112.334 180.671L114.922 180.699C115.227 180.717 115.281 180.878 115.168 181.134L110.261 187.668L105.377 181.18C105.207 180.903 105.276 180.728 105.468 180.602H107.593C106.133 176.086 102.993 172.697 96.7314 171.408L99.6901 169.24L96.734 166.872Z" fill="white"/>
<path fill-rule="evenodd" clip-rule="evenodd" d="M112.689 185.469C111.882 192.807 107.557 198.945 98.8908 201.069L98.8619 203.656C98.8443 203.962 98.6837 204.015 98.4271 203.903L91.8926 198.995L98.3815 194.111C98.6577 193.942 98.8335 194.011 98.9586 194.202V196.327C103.475 194.867 106.864 191.727 108.153 185.466L110.321 188.425L112.689 185.469Z" fill="white"/>
<path fill-rule="evenodd" clip-rule="evenodd" d="M94.0436 201.42C86.7047 200.613 80.5669 196.287 78.4431 187.621L75.8553 187.592C75.551 187.575 75.497 187.413 75.6096 187.157L80.5167 180.623L85.4003 187.112C85.5702 187.388 85.5012 187.564 85.3099 187.689H83.1845C84.645 192.205 87.7844 195.594 94.0457 196.884L91.087 199.051L94.0436 201.42Z" fill="white"/>
<path fill-rule="evenodd" clip-rule="evenodd" d="M96.8431 182.733H103.659L90.5132 193.488L96.8431 182.733Z" fill="#232323"/>
<path fill-rule="evenodd" clip-rule="evenodd" d="M94.1306 184.924H87.3145L100.461 174.169L94.1306 184.924Z" fill="#232323"/>
<circle cx="138.74" cy="168.625" r="19.1836" fill="#232323"/>
<circle cx="138.733" cy="168.196" r="14.5887" fill="#FF0000"/>
<circle cx="19.1836" cy="96.1836" r="19.1836" fill="#232323"/>
<circle cx="19.1771" cy="95.7547" r="14.5887" fill="#FF0000"/>
</svg>
