<svg width="141" height="133" viewBox="0 0 141 133" fill="none" xmlns="http://www.w3.org/2000/svg">
<path d="M59.4873 124.334C60.3544 108.481 61.6831 100.023 65.3276 85.5863L87.1468 89.9425L107.447 84.1875C109.606 92.5636 110.656 98.0751 112.466 108.199C114.405 120.112 115.24 127.79 112.466 131.131C109.48 133.77 107.145 133.465 104.208 130.623C102.474 123.102 97.451 120.798 86.4212 118.998C74.8698 120.651 69.6195 128.803 68.8253 130.75C68.0311 132.697 62.4807 132.378 61.0754 131.385C59.6701 130.392 59.7035 128.374 59.4873 124.334Z" fill="#FF0000"/>
<ellipse cx="45.7534" cy="19.8041" rx="13.7534" ry="13.726" fill="#FF0000"/>
<ellipse cx="126.305" cy="19.8041" rx="13.7534" ry="13.726" fill="#FF0000"/>
<circle cx="86.9643" cy="46.1892" r="45.5446" fill="#FF0000"/>
<circle cx="86.9643" cy="46.1889" r="39.3847" fill="#232323"/>
<ellipse cx="69.9538" cy="39.328" rx="6.81344" ry="16.2245" fill="white"/>
<ellipse cx="69.9538" cy="39.328" rx="6.81344" ry="16.2245" fill="white"/>
<ellipse cx="103.975" cy="39.328" rx="6.81344" ry="16.2245" fill="white"/>
<ellipse cx="103.975" cy="39.328" rx="6.81344" ry="16.2245" fill="white"/>
<path fill-rule="evenodd" clip-rule="evenodd" d="M24.4423 42.8742C33.3764 42.8742 40.6273 50.125 40.6273 59.0592C40.6273 67.9933 33.3764 75.2441 24.4423 75.2441C15.5082 75.2441 8.25732 67.9933 8.25732 59.0592C8.25732 50.125 15.5082 42.8742 24.4423 42.8742Z" fill="white"/>
<path fill-rule="evenodd" clip-rule="evenodd" d="M3.12061 57.4286C4.11541 48.3846 9.44577 40.8207 20.1256 38.2035L20.1612 35.0144C20.1823 34.6389 20.3808 34.5724 20.697 34.7116L28.7498 40.7588L20.7527 46.7771C20.4123 46.9865 20.1957 46.9014 20.042 46.6657V44.0465C14.476 45.8463 10.2998 49.7151 8.71088 57.4312L6.04003 53.7851L3.12061 57.4286Z" fill="white"/>
<path fill-rule="evenodd" clip-rule="evenodd" d="M26.0988 37.7727C35.1428 38.767 42.7067 44.0974 45.3239 54.7777L48.513 54.8128C48.8879 54.8344 48.9545 55.033 48.8157 55.3486L42.7685 63.4014L36.7497 55.4048C36.5403 55.0644 36.6259 54.8478 36.8616 54.6936H39.4809C37.6811 49.1281 33.8122 44.9514 26.0957 43.3625L29.7418 40.6916L26.0988 37.7727Z" fill="white"/>
<path fill-rule="evenodd" clip-rule="evenodd" d="M45.7617 60.6903C44.7674 69.7338 39.437 77.2977 28.7572 79.9149L28.7217 83.104C28.7 83.48 28.502 83.546 28.1858 83.4073L20.1331 77.3601L28.1296 71.3412C28.47 71.1324 28.6866 71.2169 28.8408 71.4526V74.0719C34.4063 72.2721 38.583 68.4032 40.1719 60.6872L42.8428 64.3333L45.7617 60.6903Z" fill="white"/>
<path fill-rule="evenodd" clip-rule="evenodd" d="M22.7837 80.3477C13.7397 79.3529 6.17585 74.0225 3.55863 63.3422L0.369495 63.3071C-0.00542438 63.286 -0.0719497 63.0869 0.0667758 62.7713L6.11397 54.7185L12.1323 62.7156C12.3417 63.056 12.2566 63.2726 12.0209 63.4262H9.40161C11.2014 68.9923 15.0703 73.1685 22.7863 74.7579L19.1402 77.4282L22.7837 80.3477Z" fill="white"/>
<path fill-rule="evenodd" clip-rule="evenodd" d="M26.2337 57.319H34.6336L18.4331 70.5728L26.2337 57.319Z" fill="#232323"/>
<path fill-rule="evenodd" clip-rule="evenodd" d="M22.8908 60.019H14.491L30.6914 46.7653L22.8908 60.019Z" fill="#232323"/>
<circle cx="112.744" cy="91.3886" r="11.744" fill="#232323"/>
<circle cx="112.74" cy="91.1259" r="8.93107" fill="#FF0000"/>
<circle cx="46.7759" cy="73.4205" r="11.7759" fill="#232323"/>
<circle cx="46.7761" cy="73.4204" r="9.35005" fill="#FF0000"/>
<path d="M43.9664 66.1195C45.3426 65.5497 48.3296 62.1303 45.7404 65.1112C37.8477 70.4069 38.1762 74.3147 43.3092 82.1809C43.3092 82.1809 36.7263 78.6373 37.3324 73.3168C37.9385 67.9964 40.5533 66.113 44.8962 64.5552C46.8118 62.7388 45.1217 64.9242 43.9664 66.1195Z" fill="#CB0000"/>
</svg>
