<svg width="182" height="139" viewBox="0 0 182 139" fill="none" xmlns="http://www.w3.org/2000/svg">
<path d="M20.9438 65.5384C41.5157 65.1604 52.5509 65.8945 71.4818 68.6347L67.3562 92.5682L76.208 114.023C65.5201 117.049 58.4618 118.64 45.488 121.435C30.2091 124.518 20.3326 126.057 15.8177 123.337C12.1973 120.33 12.4301 117.783 15.9034 114.373C25.5138 111.876 28.1473 106.259 29.7125 94.1937C26.7736 81.8513 15.8632 76.8551 13.2892 76.1586C10.7152 75.462 10.7429 69.4394 11.9307 67.8388C13.1184 66.2382 15.7323 66.1069 20.9438 65.5384Z" fill="#161616"/>
<ellipse cx="80.8414" cy="26.4891" rx="14.8888" ry="14.8592" transform="rotate(82.5019 80.8414 26.4891)" fill="#161616"/>
<ellipse cx="114.818" cy="22.6063" rx="14.8888" ry="14.8592" transform="rotate(82.5019 114.818 22.6063)" fill="#161616"/>
<circle cx="104.772" cy="73.7942" r="49.3048" transform="rotate(82.5019 104.772 73.7942)" fill="#161616"/>
<circle cx="104.772" cy="73.7943" r="42.6363" transform="rotate(82.5019 104.772 73.7943)" fill="#FF0000"/>
<ellipse cx="104.326" cy="60.2195" rx="7.37595" ry="17.5639" transform="rotate(-16.2948 104.326 60.2195)" fill="white"/>
<ellipse cx="104.326" cy="60.2195" rx="7.37595" ry="17.5639" transform="rotate(-16.2948 104.326 60.2195)" fill="white"/>
<ellipse cx="129.428" cy="53.1313" rx="5.21829" ry="12.2783" transform="rotate(-16.2948 129.428 53.1313)" fill="white"/>
<ellipse cx="129.428" cy="53.1313" rx="5.21829" ry="12.2783" transform="rotate(-16.2948 129.428 53.1313)" fill="white"/>
<circle cx="160.653" cy="52.2722" r="12.7482" transform="rotate(82.5019 160.653 52.2722)" fill="#232323"/>
<circle cx="160.652" cy="52.2721" r="10.122" transform="rotate(82.5019 160.652 52.2721)" fill="#FF0000"/>
<path d="M169.351 49.4953C169.258 49.3903 169.655 49.4553 169.655 49.4553C170.689 50.2481 170.689 50.2481 170.137 48.6762C167.852 44.235 165.226 42.0203 159.43 42.1214C153.634 42.2225 150.761 49.7885 150.761 49.7885C158.478 43.1681 162.552 41.7722 169.351 49.4953Z" fill="#CB0000"/>
<path fill-rule="evenodd" clip-rule="evenodd" d="M69.4962 110.065C72.0242 112.436 72.1516 116.412 69.7805 118.94C67.4095 121.468 63.4335 121.595 60.9056 119.224C58.3776 116.853 58.2502 112.877 60.6213 110.349C62.9923 107.821 66.9682 107.694 69.4962 110.065Z" fill="white"/>
<path fill-rule="evenodd" clip-rule="evenodd" d="M59.6005 108.524C62.2822 106.229 65.7978 105.504 69.5143 107.597L70.3708 106.705C70.4764 106.604 70.5502 106.638 70.6027 106.761L71.2764 110.609L67.4164 110.19C67.2645 110.159 67.2258 110.077 67.2449 109.97L67.94 109.229C65.8874 108.261 63.679 108.247 61.1817 110.009L61.3935 108.268L59.6005 108.524Z" fill="white"/>
<path fill-rule="evenodd" clip-rule="evenodd" d="M71.3188 109.061C73.614 111.742 74.3396 115.258 72.2457 118.974L73.1388 119.831C73.2391 119.936 73.2053 120.01 73.0823 120.063L69.234 120.736L69.6532 116.876C69.6843 116.724 69.766 116.686 69.8736 116.705L70.6147 117.4C71.5825 115.347 71.5962 113.139 69.8345 110.641L71.575 110.853L71.3188 109.061Z" fill="white"/>
<path fill-rule="evenodd" clip-rule="evenodd" d="M70.8003 120.764C68.1189 123.059 64.6033 123.784 60.8868 121.691L60.0304 122.584C59.9245 122.684 59.8509 122.65 59.7983 122.527L59.1246 118.679L62.9846 119.098C63.1363 119.129 63.1752 119.211 63.1562 119.318L62.4611 120.059C64.5136 121.027 66.7221 121.041 69.2195 119.279L69.0076 121.02L70.8003 120.764Z" fill="white"/>
<path fill-rule="evenodd" clip-rule="evenodd" d="M59.0818 120.228C56.7868 117.546 56.0611 114.03 58.155 110.314L57.2619 109.457C57.1615 109.352 57.1955 109.278 57.3185 109.226L61.1667 108.552L60.7473 112.412C60.7162 112.564 60.6346 112.602 60.5272 112.583L59.786 111.888C58.8181 113.941 58.8045 116.149 60.566 118.647L58.8256 118.435L59.0818 120.228Z" fill="white"/>
<path fill-rule="evenodd" clip-rule="evenodd" d="M66.1694 114.627L68.5462 116.856L60.4448 116.307L66.1694 114.627Z" fill="#232323"/>
<path fill-rule="evenodd" clip-rule="evenodd" d="M64.5072 114.504L62.1304 112.275L70.2318 112.824L64.5072 114.504Z" fill="#232323"/>
<circle cx="82.906" cy="116.99" r="12.7136" transform="rotate(82.5019 82.906 116.99)" fill="#232323"/>
<circle cx="83.1872" cy="116.948" r="9.66842" transform="rotate(82.5019 83.1872 116.948)" fill="#FF0000"/>
</svg>
