<svg width="109" height="133" viewBox="0 0 109 133" fill="none" xmlns="http://www.w3.org/2000/svg">
<path d="M27.4873 123.866C28.3544 108.013 29.6831 99.5551 33.3276 85.1186L55.1468 89.4749L75.4473 83.7198C77.6062 92.096 78.6557 97.6074 80.4656 107.732C82.4049 119.644 83.24 127.322 80.4656 130.663C77.4803 133.302 75.1454 132.997 72.2077 130.155C70.4739 122.635 65.451 120.331 54.4212 118.531C42.8698 120.184 37.6195 128.335 36.8253 130.282C36.0311 132.229 30.4807 131.911 29.0754 130.918C27.6701 129.924 27.7035 127.906 27.4873 123.866Z" fill="#FF0000"/>
<ellipse cx="13.7534" cy="19.3364" rx="13.7534" ry="13.726" fill="#FF0000"/>
<ellipse cx="94.3052" cy="19.3364" rx="13.7534" ry="13.726" fill="#FF0000"/>
<circle cx="54.9643" cy="45.7216" r="45.5446" fill="#FF0000"/>
<circle cx="54.9643" cy="45.7216" r="39.3847" fill="#232323"/>
<ellipse cx="37.9538" cy="38.8602" rx="6.81344" ry="16.2245" fill="white"/>
<ellipse cx="37.9538" cy="38.8602" rx="6.81344" ry="16.2245" fill="white"/>
<ellipse cx="71.9747" cy="38.8602" rx="6.81344" ry="16.2245" fill="white"/>
<ellipse cx="71.9747" cy="38.8602" rx="6.81344" ry="16.2245" fill="white"/>
<circle cx="25.8795" cy="93.5427" r="11.7759" fill="#232323"/>
<circle cx="25.8795" cy="93.5427" r="9.35005" fill="#FF0000"/>
<path d="M28.9037 74.906C27.9064 78.389 26.5018 79.7712 23.6135 81.9781L30.4072 84.0942L36.6997 88.7718C37.7688 86.5455 38.1323 85.1691 37.4236 81.9781C34.9771 76.5602 33.2165 74.6897 28.9037 74.906Z" fill="#232323"/>
<path d="M30.1639 76.8076C29.248 80.1126 25.394 84.4147 25.5426 84.605C25.6913 84.7954 33.1502 88.7157 33.1502 88.7157C34.8497 87.2714 34.7713 86.1021 34.3034 83.025C33.0964 78.8651 32.3739 77.2382 30.1639 76.8076Z" fill="#FF0000"/>
<path d="M24.8439 85.2332C27.9418 81.6666 30.6475 77.6712 30.0901 76.5862C28.3936 79.6322 26.8183 81.4941 23.7297 84.4228C19.3868 85.9806 17.042 88.1183 16.4359 93.4387C15.8298 98.7592 22.4127 102.303 22.4127 102.303C17.2797 94.4367 16.9512 90.5288 24.8439 85.2332Z" fill="#CB0000"/>
<circle cx="81.4661" cy="91.2661" r="11.744" fill="#232323"/>
<circle cx="81.4622" cy="91.0036" r="8.93107" fill="#FF0000"/>
<path fill-rule="evenodd" clip-rule="evenodd" d="M53.4421 91.1993C59.0865 91.1993 63.6674 95.7802 63.6674 101.425C63.6674 107.069 59.0865 111.65 53.4421 111.65C47.7978 111.65 43.2169 107.069 43.2169 101.425C43.2169 95.7802 47.7978 91.1993 53.4421 91.1993Z" fill="white"/>
<path fill-rule="evenodd" clip-rule="evenodd" d="M39.9716 100.394C40.6 94.6808 43.9676 89.9021 50.7148 88.2486L50.7373 86.2338C50.7507 85.9966 50.8761 85.9546 51.0758 86.0425L56.1633 89.863L51.111 93.6652C50.896 93.7975 50.7591 93.7437 50.662 93.5948V91.94C47.1456 93.0771 44.5072 95.5213 43.5033 100.396L41.816 98.0926L39.9716 100.394Z" fill="white"/>
<path fill-rule="evenodd" clip-rule="evenodd" d="M54.4884 87.9764C60.2021 88.6045 64.9808 91.9721 66.6343 98.7196L68.6491 98.7418C68.886 98.7555 68.928 98.8809 68.8403 99.0803L65.0199 104.168L61.2174 99.1158C61.0851 98.9008 61.1392 98.764 61.2881 98.6665H62.9429C61.8058 95.1504 59.3615 92.5117 54.4865 91.5078L56.7899 89.8205L54.4884 87.9764Z" fill="white"/>
<path fill-rule="evenodd" clip-rule="evenodd" d="M66.9109 102.455C66.2828 108.168 62.9152 112.947 56.168 114.601L56.1455 116.615C56.1318 116.853 56.0067 116.895 55.807 116.807L50.7195 112.986L55.7715 109.184C55.9865 109.052 56.1234 109.105 56.2208 109.254V110.909C59.7369 109.772 62.3757 107.328 63.3795 102.453L65.0669 104.757L66.9109 102.455Z" fill="white"/>
<path fill-rule="evenodd" clip-rule="evenodd" d="M52.3941 114.874C46.6804 114.245 41.9017 110.878 40.2482 104.13L38.2334 104.108C37.9966 104.095 37.9545 103.969 38.0422 103.77L41.8626 98.682L45.6648 103.734C45.7971 103.949 45.7434 104.086 45.5945 104.183H43.9397C45.0768 107.7 47.521 110.338 52.3958 111.342L50.0923 113.029L52.3941 114.874Z" fill="white"/>
<path fill-rule="evenodd" clip-rule="evenodd" d="M54.5735 100.325H59.8803L49.6453 108.698L54.5735 100.325Z" fill="#232323"/>
<path fill-rule="evenodd" clip-rule="evenodd" d="M52.4617 102.031H47.1549L57.3899 93.6574L52.4617 102.031Z" fill="#232323"/>
</svg>
