<svg width="278" height="726" viewBox="0 0 278 726" fill="none" xmlns="http://www.w3.org/2000/svg">
<path fill-rule="evenodd" clip-rule="evenodd" d="M45.5806 356.513C59.6772 228.418 135.21 121.286 286.547 84.2172L287.051 39.0478C287.351 33.7303 290.164 32.788 294.644 34.7601L408.754 120.41L295.433 205.65C290.61 208.616 287.541 207.411 285.363 204.073V166.974C206.49 192.466 147.312 247.263 124.797 356.549L86.9498 304.908L45.5806 356.513Z" fill="#FF0000"/>
<path fill-rule="evenodd" clip-rule="evenodd" d="M322.703 681.494C194.606 667.397 87.4732 591.864 50.4036 440.521L5.23344 440.024C-0.0768296 439.724 -1.01908 436.903 0.945796 432.431L86.5967 318.32L171.839 431.642C174.804 436.465 173.599 439.534 170.261 441.712H133.162C158.654 520.584 213.452 579.763 322.739 602.285L271.098 640.125L322.703 681.494Z" fill="#FF0000"/>
<path d="M123.15 295.166L120.204 301.107L97.7303 288.969C94.1047 287.011 91.7404 283.983 90.6372 279.884C89.5222 275.749 89.9042 271.786 91.7833 267.997C93.6502 264.232 96.553 261.724 100.492 260.472C104.43 259.221 108.248 259.594 111.946 261.591C114.539 262.991 116.511 264.692 117.863 266.693C119.191 268.681 119.993 271.144 120.271 274.084C120.583 277.321 120.127 280.174 118.903 282.644C117.873 284.722 116.278 286.557 114.118 288.149L107.131 284.376C108.311 284.145 109.42 283.597 110.458 282.732C111.508 281.842 112.342 280.774 112.96 279.527C114.027 277.376 114.288 275.254 113.742 273.161C113.126 270.783 111.521 268.893 108.928 267.493C106.863 266.378 104.716 266.195 102.488 266.944C100.26 267.693 98.6119 269.143 97.5451 271.295C96.454 273.495 96.2709 275.767 96.9958 278.111C97.7207 280.455 99.1636 282.211 101.325 283.378L123.15 295.166Z" fill="white"/>
<path d="M102.805 249.668L106.345 243.677L131.979 259.736L128.44 265.727L102.805 249.668ZM102.917 245.537C102.251 246.665 101.372 247.321 100.28 247.507C99.1883 247.692 98.1568 247.48 97.1855 246.872C96.2374 246.278 95.6084 245.465 95.2987 244.434C95.0028 243.38 95.1949 242.277 95.8751 241.126C96.4858 240.092 97.3486 239.49 98.4634 239.319C99.4672 239.175 100.443 239.4 101.391 239.994C102.316 240.574 102.957 241.394 103.313 242.454C103.66 243.476 103.528 244.503 102.917 245.537Z" fill="white"/>
<path d="M146.032 253.708L142.248 259.154L121.518 244.233C118.173 241.826 116.24 238.536 115.718 234.361C115.19 230.148 116.132 226.305 118.546 222.832C120.943 219.38 124.198 217.302 128.309 216.597C132.42 215.892 136.182 216.767 139.592 219.222C141.984 220.943 143.714 222.877 144.781 225.024C145.826 227.154 146.279 229.682 146.14 232.607C145.994 235.83 145.135 238.574 143.562 240.837C142.239 242.742 140.386 244.333 138.003 245.61L131.558 240.971C132.769 240.902 133.955 240.511 135.114 239.799C136.288 239.064 137.273 238.126 138.067 236.983C139.437 235.011 139.998 232.96 139.749 230.831C139.47 228.412 138.134 226.341 135.742 224.62C133.838 223.249 131.719 222.783 129.387 223.222C127.055 223.662 125.204 224.868 123.834 226.84C122.433 228.857 121.929 231.065 122.321 233.466C122.713 235.866 123.906 237.783 125.899 239.218L146.032 253.708Z" fill="white"/>
<path d="M157.564 194.778C155.525 193.799 153.488 193.546 151.455 194.019C149.439 194.471 147.672 195.574 146.154 197.328C144.475 199.268 143.71 201.568 143.86 204.231C144.007 206.855 145.027 208.991 146.921 210.639C147.25 210.926 147.506 211.131 147.689 211.253C149.923 212.8 152.27 213.341 154.729 212.877C156.922 212.47 158.804 211.359 160.375 209.543C161.268 208.511 161.933 207.389 162.369 206.177C162.784 204.947 162.908 203.698 162.742 202.432L169.439 202.075C169.626 204.444 169.409 206.571 168.789 208.455C168.168 210.339 167.073 212.188 165.501 214.004C162.554 217.408 158.854 219.307 154.399 219.699C149.945 220.091 146.041 218.827 142.686 215.907C139.289 212.951 137.415 209.258 137.064 204.827C136.709 200.359 137.996 196.432 140.925 193.049C143.872 189.645 147.71 187.775 152.439 187.441C157.164 187.068 161.205 188.342 164.56 191.262C164.931 191.585 165.291 191.898 165.641 192.203C165.896 192.534 166.087 192.772 166.213 192.918L151.104 210.373C150.782 210.744 150.422 210.847 150.024 210.681C149.626 210.516 149.16 210.2 148.624 209.734C148.398 209.537 148.233 209.394 148.13 209.304C147.863 209.071 147.657 208.892 147.513 208.767C147.122 208.427 146.869 208.134 146.755 207.891C146.621 207.629 146.688 207.343 146.956 207.034L157.564 194.778Z" fill="white"/>
<path d="M149.848 170.259L154.778 165.348L183.872 194.141L178.942 199.052L149.848 170.259Z" fill="white"/>
<path d="M167.427 168.04L172.555 163.337L193.279 185.371L188.151 190.075L167.427 168.04ZM168.677 164.172C167.712 165.058 166.668 165.441 165.545 165.323C164.423 165.205 163.469 164.728 162.683 163.893C161.917 163.078 161.524 162.143 161.505 161.087C161.505 160.012 161.999 159.023 162.984 158.119C163.869 157.308 164.882 156.971 166.023 157.109C167.048 157.243 167.944 157.717 168.71 158.532C169.458 159.327 169.86 160.273 169.917 161.369C169.975 162.426 169.562 163.361 168.677 164.172Z" fill="white"/>
<path d="M198.202 180.846L186.607 166.851C184.083 163.804 183.045 160.328 183.493 156.422C183.946 152.478 185.744 149.261 188.889 146.77C191.969 144.329 195.496 143.327 199.471 143.763C203.446 144.199 206.695 145.94 209.22 148.987L220.814 162.982L215.007 167.583L203.256 153.399C202.072 151.97 200.504 151.211 198.552 151.121C196.604 150.994 194.871 151.532 193.353 152.735C191.898 153.887 191.045 155.381 190.794 157.216C190.547 159.013 191.007 160.615 192.173 162.023L203.977 176.27L198.202 180.846Z" fill="white"/>
<path d="M235.38 131.809C233.64 130.329 231.709 129.537 229.587 129.43C227.488 129.309 225.459 129.871 223.501 131.114C221.336 132.489 219.971 134.454 219.407 137.009C218.85 139.527 219.281 141.822 220.699 143.893C220.946 144.254 221.142 144.517 221.289 144.682C223.068 146.75 225.227 147.899 227.764 148.13C230.025 148.342 232.168 147.804 234.196 146.517C235.347 145.786 236.299 144.907 237.051 143.88C237.787 142.831 238.242 141.686 238.417 140.445L245.085 141.929C244.635 144.217 243.855 146.166 242.743 147.777C241.631 149.387 240.062 150.836 238.034 152.124C234.233 154.537 230.095 155.324 225.619 154.483C221.143 153.642 217.649 151.387 215.136 147.716C212.593 144.001 211.74 140.004 212.578 135.724C213.423 131.408 215.735 128.05 219.513 125.651C223.314 123.237 227.579 122.515 232.309 123.486C237.046 124.419 240.671 126.721 243.184 130.391C243.461 130.796 243.731 131.19 243.993 131.573C244.155 131.954 244.279 132.231 244.364 132.404L224.875 144.779C224.46 145.042 224.08 145.042 223.733 144.777C223.387 144.513 223.013 144.088 222.613 143.502C222.443 143.254 222.32 143.074 222.243 142.962C222.042 142.669 221.888 142.444 221.78 142.286C221.487 141.858 221.317 141.514 221.271 141.253C221.209 140.969 221.351 140.718 221.696 140.498L235.38 131.809Z" fill="white"/>
<path d="M247.033 127.612C246.297 124.955 246.165 122.447 246.635 120.089C247.137 117.722 248.133 115.723 249.623 114.094C251.144 112.455 253.023 111.311 255.261 110.66C257.214 110.092 259.026 109.992 260.694 110.361C262.394 110.721 263.852 111.374 265.067 112.319L264.029 108.571L270.694 106.632L277.974 132.915L271.309 134.854L270.245 131.011C269.735 132.492 268.838 133.864 267.554 135.126C266.291 136.347 264.683 137.242 262.73 137.811C260.524 138.452 258.349 138.469 256.206 137.862C254.094 137.246 252.218 136.066 250.577 134.322C248.959 132.537 247.778 130.3 247.033 127.612ZM267.669 121.712C267.222 120.099 266.526 118.815 265.581 117.86C264.626 116.873 263.53 116.235 262.292 115.946C261.045 115.625 259.808 115.643 258.579 116C257.35 116.358 256.298 116.988 255.425 117.892C254.551 118.795 253.946 119.928 253.608 121.291C253.293 122.613 253.355 124.064 253.793 125.646C254.231 127.227 254.931 128.527 255.895 129.546C256.88 130.523 257.981 131.177 259.196 131.507C260.443 131.828 261.665 131.815 262.862 131.466C264.091 131.109 265.158 130.474 266.063 129.561C266.96 128.617 267.565 127.484 267.88 126.162C268.186 124.809 268.116 123.325 267.669 121.712Z" fill="white"/>
<path d="M283.426 609.167L289.605 611.572L279.944 635.217C278.386 639.031 275.638 641.68 271.701 643.163C267.729 644.662 263.772 644.644 259.83 643.11C255.914 641.585 253.133 638.907 251.486 635.074C249.839 631.242 249.811 627.381 251.4 623.49C252.515 620.762 253.991 618.628 255.828 617.089C257.655 615.575 260.007 614.544 262.884 613.995C266.052 613.383 268.92 613.578 271.489 614.577C273.65 615.419 275.63 616.848 277.429 618.866L274.425 626.217C274.075 625.056 273.418 623.995 272.454 623.034C271.466 622.064 270.323 621.326 269.026 620.821C266.788 619.95 264.663 619.884 262.652 620.624C260.364 621.461 258.663 623.243 257.549 625.972C256.661 628.144 256.703 630.313 257.676 632.477C258.648 634.642 260.253 636.16 262.491 637.031C264.78 637.922 267.045 637.896 269.287 636.953C271.529 636.011 273.115 634.403 274.044 632.129L283.426 609.167Z" fill="white"/>
<path d="M223.433 611.731C222.957 613.943 223.187 615.982 224.123 617.849C225.034 619.703 226.519 621.163 228.579 622.229C230.857 623.408 233.273 623.613 235.827 622.846C238.344 622.089 240.182 620.598 241.342 618.371C241.544 617.984 241.683 617.688 241.76 617.481C242.741 614.947 242.719 612.539 241.692 610.257C240.784 608.22 239.264 606.649 237.131 605.546C235.919 604.919 234.673 604.535 233.392 604.395C232.099 604.278 230.856 604.449 229.664 604.908L227.751 598.479C230.011 597.744 232.129 597.457 234.106 597.62C236.083 597.783 238.137 598.416 240.27 599.52C244.269 601.589 246.98 604.743 248.402 608.982C249.825 613.221 249.509 617.313 247.454 621.258C245.374 625.251 242.221 627.936 237.996 629.314C233.734 630.703 229.615 630.37 225.641 628.313C221.642 626.244 218.927 622.949 217.497 618.43C216.03 613.922 216.324 609.696 218.379 605.751C218.605 605.315 218.826 604.892 219.04 604.48C219.302 604.155 219.489 603.914 219.602 603.757L240.105 614.367C240.541 614.593 240.726 614.918 240.658 615.344C240.59 615.77 240.392 616.297 240.064 616.927C239.925 617.193 239.825 617.386 239.762 617.507C239.598 617.822 239.472 618.064 239.383 618.233C239.144 618.693 238.919 619.007 238.708 619.175C238.485 619.367 238.192 619.368 237.829 619.18L223.433 611.731Z" fill="white"/>
<path d="M201.397 624.965L195.469 621.32L216.664 586.301L222.591 589.947L201.397 624.965Z" fill="white"/>
<path d="M195.13 608.392L189.358 604.506L205.937 579.205L211.709 583.091L195.13 608.392ZM191.077 608.081C192.163 608.813 192.78 609.738 192.928 610.857C193.075 611.976 192.835 613.015 192.207 613.974C191.594 614.909 190.776 615.51 189.754 615.776C188.709 616.026 187.632 615.778 186.523 615.031C185.527 614.361 184.963 613.454 184.83 612.313C184.72 611.285 184.972 610.303 185.585 609.367C186.184 608.454 187.009 607.842 188.061 607.531C189.076 607.227 190.081 607.411 191.077 608.081Z" fill="white"/>
<path d="M200.386 575.476L189.49 590.021C187.118 593.188 183.98 595.01 180.078 595.487C176.137 595.969 172.589 594.973 169.432 592.498C166.339 590.074 164.54 586.878 164.034 582.912C163.529 578.945 164.462 575.379 166.835 572.212L177.731 557.667L183.562 562.237L172.518 576.979C171.406 578.464 171.034 580.166 171.404 582.085C171.735 584.008 172.663 585.568 174.188 586.763C175.649 587.908 177.3 588.388 179.143 588.203C180.948 588.023 182.399 587.202 183.495 585.738L194.588 570.931L200.386 575.476Z" fill="white"/>
<path d="M144.017 550.793C142.985 552.83 142.666 554.893 143.058 556.981C143.431 559.05 144.451 560.892 146.118 562.505C147.961 564.289 150.191 565.156 152.807 565.108C155.385 565.06 157.516 564.105 159.198 562.241C159.491 561.917 159.701 561.665 159.827 561.484C161.422 559.27 162.035 556.903 161.666 554.382C161.343 552.134 160.32 550.176 158.594 548.505C157.614 547.557 156.537 546.837 155.363 546.346C154.171 545.875 152.951 545.7 151.703 545.821L151.587 538.991C153.917 538.893 155.995 539.196 157.821 539.901C159.647 540.605 161.422 541.792 163.148 543.462C166.383 546.594 168.115 550.434 168.344 554.982C168.573 559.53 167.197 563.455 164.216 566.756C161.198 570.098 157.511 571.862 153.154 572.048C148.76 572.235 144.954 570.772 141.739 567.66C138.503 564.528 136.804 560.55 136.642 555.724C136.442 550.9 137.832 546.837 140.813 543.536C141.143 543.172 141.463 542.817 141.773 542.473C142.107 542.226 142.347 542.041 142.495 541.918L159.083 557.974C159.436 558.316 159.524 558.686 159.348 559.085C159.172 559.483 158.846 559.946 158.371 560.472C158.169 560.695 158.023 560.857 157.932 560.958C157.694 561.222 157.511 561.424 157.383 561.566C157.035 561.951 156.74 562.196 156.497 562.303C156.236 562.429 155.958 562.35 155.664 562.066L144.017 550.793Z" fill="white"/>
<path d="M137.211 540.444C134.8 541.78 132.393 542.495 129.99 542.589C127.571 542.654 125.395 542.153 123.463 541.086C121.514 539.99 119.962 538.43 118.806 536.407C117.797 534.64 117.276 532.902 117.245 531.194C117.198 529.457 117.491 527.887 118.126 526.484L114.725 528.37L111.282 522.343L135.135 509.12L138.578 515.147L135.09 517.081C136.649 517.229 138.193 517.781 139.72 518.735C141.203 519.677 142.449 521.031 143.458 522.798C144.598 524.793 145.123 526.903 145.034 529.128C144.928 531.326 144.219 533.426 142.907 535.429C141.55 537.42 139.651 539.091 137.211 540.444ZM126.651 521.759C125.188 522.57 124.102 523.547 123.394 524.69C122.657 525.849 122.293 527.064 122.301 528.335C122.281 529.622 122.588 530.821 123.223 531.933C123.858 533.044 124.716 533.919 125.799 534.557C126.881 535.195 128.125 535.519 129.529 535.529C130.887 535.526 132.285 535.126 133.72 534.331C135.155 533.535 136.255 532.55 137.02 531.376C137.74 530.188 138.119 528.966 138.156 527.707C138.176 526.42 137.877 525.235 137.259 524.152C136.624 523.04 135.757 522.151 134.658 521.485C133.531 520.834 132.288 520.51 130.929 520.513C129.541 520.532 128.115 520.947 126.651 521.759Z" fill="white"/>
<path d="M92.7293 484.551C91.3272 481.512 91.1388 478.635 92.1641 475.921C93.1458 473.191 95.3055 471.057 98.6433 469.517L113.172 462.816L116.058 469.075L102.379 475.384C100.442 476.277 99.1938 477.45 98.6341 478.9C98.0447 480.365 98.1417 481.947 98.9252 483.645C99.7087 485.344 100.856 486.459 102.366 486.991C103.833 487.508 105.535 487.319 107.472 486.425L121.151 480.116L124.038 486.374L110.359 492.684C108.422 493.577 107.173 494.749 106.614 496.2C106.024 497.665 106.121 499.246 106.905 500.945C107.702 502.674 108.856 503.804 110.366 504.336C111.833 504.852 113.535 504.663 115.472 503.77L129.151 497.461L132.038 503.719L107.273 515.142L104.386 508.883L107.381 507.502C105.967 507.178 104.673 506.528 103.5 505.552C102.313 504.545 101.368 503.282 100.667 501.762C99.774 499.825 99.3939 497.904 99.5274 495.999C99.631 494.108 100.25 492.395 101.385 490.859C99.5837 490.714 97.9002 490.081 96.3349 488.96C94.7559 487.809 93.554 486.34 92.7293 484.551Z" fill="white"/>
<path d="M87.8043 460.123C86.3364 459.726 84.9571 458.946 83.6666 457.782C82.3342 456.599 81.3291 455.065 80.6514 453.182C79.8627 450.989 79.6895 448.811 80.1321 446.648C80.5635 444.455 81.5948 442.474 83.2261 440.707C84.8155 438.921 86.9165 437.539 89.5291 436.561C92.1417 435.583 94.6511 435.24 97.0574 435.53C99.4219 435.801 101.48 436.626 103.23 438.003C104.97 439.349 106.234 441.118 107.023 443.311C107.701 445.194 107.917 447.006 107.67 448.745C107.413 450.453 106.861 451.973 106.016 453.306L121.829 447.387L124.162 453.872L86.4489 467.988L84.1159 461.503L87.8043 460.123ZM91.9121 443.185C90.3752 443.76 89.1702 444.579 88.297 445.642C87.382 446.685 86.8213 447.841 86.615 449.11C86.3977 450.348 86.5056 451.569 86.9389 452.773C87.361 453.946 88.0683 454.943 89.0608 455.763C90.0114 456.563 91.172 457.075 92.5425 457.298C93.9019 457.49 95.3501 457.298 96.8869 456.723C98.4237 456.148 99.6496 455.339 100.565 454.295C101.469 453.221 102.045 452.059 102.293 450.81C102.499 449.542 102.391 448.321 101.969 447.147C101.536 445.943 100.828 444.946 99.847 444.157C98.8546 443.337 97.6786 442.831 96.3192 442.639C94.9487 442.416 93.4796 442.598 91.9121 443.185Z" fill="white"/>
</svg>
