<svg width="348" height="1212" viewBox="0 0 348 1212" fill="none" xmlns="http://www.w3.org/2000/svg">
<path fill-rule="evenodd" clip-rule="evenodd" d="M177.222 701.7C120.596 876.202 -15.6249 1003.75 -237.296 1011.74L-251.037 1074.56C-252.99 1081.89 -257.184 1082.39 -262.859 1078.35L-397.213 926.009L-214.632 839.89C-207.052 837.148 -203.121 839.714 -201.049 844.996L-211.758 896.713C-94.4466 883.943 3.86812 824.635 66.8012 678.783L104.655 761.698L177.222 701.7Z" fill="#FF0000"/>
<path fill-rule="evenodd" clip-rule="evenodd" d="M-115.295 168.667C59.2097 225.294 186.756 361.515 194.748 583.196L257.574 596.927C264.89 598.878 265.389 603.082 261.359 608.75L109.019 743.103L22.8977 560.521C20.1558 552.942 22.7219 549.011 28.004 546.939L79.7217 557.647C66.9509 440.336 7.64249 342.021 -138.209 279.078L-55.2954 241.234L-115.295 168.667Z" fill="#FF0000"/>
<path d="M51.6076 765.022L57.4291 757.591L85.2552 780.999C89.7442 784.775 92.1661 789.679 92.521 795.711C92.8817 801.798 91.2054 807.211 87.492 811.952C83.8026 816.661 79.032 819.32 73.1803 819.927C67.3285 820.535 62.1136 818.913 57.5354 815.062C54.3247 812.361 52.0659 809.421 50.759 806.241C49.4819 803.087 49.0741 799.421 49.5357 795.243C50.0346 790.64 51.4938 786.794 53.9135 783.705C55.9499 781.105 58.703 779.007 62.173 777.411L70.824 784.688C69.1127 784.669 67.4088 785.113 65.7122 786.02C63.9916 786.957 62.5204 788.205 61.2986 789.765C59.1904 792.456 58.2145 795.339 58.3708 798.413C58.5437 801.907 60.2354 805.005 63.4461 807.705C66.0028 809.856 68.9425 810.731 72.2652 810.33C75.588 809.929 78.3035 808.382 80.4117 805.691C82.5678 802.939 83.479 799.824 83.1451 796.347C82.8112 792.87 81.3065 790.006 78.6309 787.755L51.6076 765.022Z" fill="white"/>
<path d="M66.8235 834.336L60.1598 841.666L29.0591 811.88L35.7227 804.55L66.8235 834.336ZM65.4754 840.062C66.7297 838.683 68.1446 838.021 69.7199 838.078C71.2952 838.135 72.6721 838.727 73.8504 839.856C75.0008 840.958 75.643 842.272 75.7772 843.799C75.8853 845.354 75.2991 846.836 74.0186 848.244C72.8688 849.509 71.4923 850.1 69.8889 850.016C68.4481 849.927 67.1525 849.331 66.0022 848.23C64.8799 847.155 64.2236 845.827 64.0333 844.247C63.8449 842.722 64.3256 841.327 65.4754 840.062Z" fill="white"/>
<path d="M7.71542 816.239L14.5617 809.74L39.1544 836.524C43.1219 840.845 44.8669 845.991 44.3894 851.96C43.9101 857.986 41.487 863.071 37.12 867.217C32.7812 871.336 27.6444 873.294 21.7095 873.09C15.7746 872.887 10.7841 870.581 6.73786 866.175C3.90023 863.084 2.04743 859.889 1.17945 856.589C0.337736 853.317 0.435894 849.662 1.47392 845.624C2.60787 841.173 4.59763 837.597 7.44321 834.896C9.838 832.622 12.8803 830.939 16.5701 829.846L24.216 838.173C22.5075 837.921 20.7425 838.123 18.921 838.781C17.0714 839.466 15.4281 840.491 13.9912 841.855C11.5119 844.209 10.1383 846.905 9.87049 849.945C9.56119 853.398 10.8253 856.67 13.663 859.761C15.9226 862.222 18.7412 863.483 22.1189 863.543C25.4966 863.603 28.4251 862.457 30.9044 860.103C33.4401 857.696 34.7809 854.762 34.9268 851.303C35.0728 847.844 33.9634 844.827 31.5987 842.251L7.71542 816.239Z" fill="white"/>
<path d="M-25.3929 895.08C-22.8322 897.034 -20.0661 897.974 -17.0947 897.902C-14.154 897.853 -11.3725 896.826 -8.74997 894.819C-5.84978 892.6 -4.11964 889.613 -3.55955 885.858C-3.00678 882.158 -3.8125 878.886 -5.97669 876.041C-6.35308 875.547 -6.65079 875.187 -6.86983 874.964C-9.53808 872.163 -12.6533 870.731 -16.2156 870.668C-19.3899 870.602 -22.3346 871.608 -25.0497 873.686C-26.5924 874.866 -27.8425 876.238 -28.8001 877.803C-29.7342 879.398 -30.2679 881.102 -30.401 882.916L-39.8406 881.481C-39.417 878.124 -38.501 875.222 -37.0925 872.775C-35.684 870.327 -33.6222 868.065 -30.9072 865.987C-25.8164 862.092 -20.1098 860.514 -13.7874 861.253C-7.46505 861.992 -2.38666 864.881 1.44773 869.92C5.32917 875.022 6.87565 880.711 6.08717 886.988C5.29135 893.32 2.36349 898.422 -2.69641 902.294C-7.78717 906.189 -13.6767 907.687 -20.3651 906.788C-27.0608 905.943 -32.3258 903.001 -36.1602 897.962C-36.5837 897.406 -36.9953 896.864 -37.3952 896.339C-37.6555 895.804 -37.8526 895.417 -37.9864 895.177L-11.8847 875.206C-11.3293 874.781 -10.7981 874.741 -10.291 875.087C-9.78385 875.432 -9.22448 876.007 -8.61286 876.811C-8.3541 877.151 -8.1659 877.398 -8.04828 877.553C-7.74247 877.955 -7.50724 878.264 -7.34257 878.48C-6.89561 879.068 -6.62799 879.548 -6.53968 879.921C-6.42786 880.324 -6.60334 880.703 -7.06614 881.057L-25.3929 895.08Z" fill="white"/>
<path d="M3.1451 294.343C4.44629 291.396 4.71436 288.487 3.94931 285.615C3.21442 282.767 1.56494 280.303 -0.999141 278.222C-3.83471 275.921 -7.14335 274.937 -10.925 275.27C-14.652 275.598 -17.6453 277.146 -19.9048 279.916C-20.2978 280.397 -20.5775 280.771 -20.7438 281.036C-22.8434 284.285 -23.5073 287.649 -22.7353 291.127C-22.0573 294.229 -20.391 296.857 -17.7364 299.011C-16.2281 300.235 -14.6016 301.129 -12.8567 301.695C-11.0874 302.23 -9.30531 302.351 -7.51056 302.056L-6.69942 311.569C-10.0623 311.942 -13.0981 311.73 -15.8069 310.933C-18.5157 310.136 -21.1974 308.66 -23.8519 306.506C-28.8293 302.467 -31.6978 297.287 -32.4574 290.967C-33.2171 284.647 -31.5952 279.034 -27.5919 274.128C-23.5394 269.161 -18.3692 266.328 -12.0814 265.627C-5.73874 264.92 -0.0938488 266.574 4.85332 270.589C9.83065 274.628 12.664 280.004 13.3535 286.717C14.0977 293.425 12.4681 299.232 8.46472 304.138C8.02263 304.68 7.59282 305.207 7.1753 305.718C6.71639 306.096 6.3859 306.379 6.18381 306.565L-19.3363 285.855C-19.8793 285.415 -20.042 284.907 -19.8244 284.334C-19.6069 283.76 -19.1788 283.081 -18.5402 282.299C-18.27 281.968 -18.0736 281.727 -17.9508 281.576C-17.6315 281.185 -17.3859 280.884 -17.2139 280.673C-16.7473 280.102 -16.3431 279.729 -16.0014 279.556C-15.6351 279.353 -15.2258 279.435 -14.7733 279.802L3.1451 294.343Z" fill="white"/>
<path d="M37.6989 282.267L44.9099 289.059L5.2559 331.759L-1.955 324.967L37.6989 282.267Z" fill="white"/>
<path d="M41.659 307.186L48.5838 314.27L18.1689 344.756L11.244 337.672L41.659 307.186ZM47.2195 308.79C45.916 307.457 45.323 305.989 45.4403 304.386C45.5577 302.783 46.1926 301.405 47.345 300.249C48.4699 299.122 49.7833 298.52 51.285 298.445C52.8139 298.398 54.2437 299.055 55.5744 300.416C56.7693 301.638 57.2943 303.064 57.1495 304.694C57.0056 306.159 56.3711 307.455 55.2461 308.582C54.1486 309.682 52.8216 310.298 51.2649 310.428C49.7629 310.558 48.4144 310.012 47.2195 308.79Z" fill="white"/>
<path d="M24.8431 351.57L44.2319 334.438C48.4532 330.708 53.3527 329.074 58.9306 329.536C64.5627 330.002 69.2222 332.415 72.9091 336.776C76.5208 341.048 78.1065 346.022 77.6662 351.697C77.2259 357.373 74.8952 362.076 70.6739 365.805L51.2851 382.937L44.4756 374.882L64.1264 357.519C66.106 355.77 67.1153 353.505 67.1543 350.723C67.2475 347.946 66.4037 345.504 64.6229 343.398C62.9174 341.38 60.7535 340.235 58.1311 339.96C55.563 339.69 53.3037 340.416 51.3531 342.14L31.615 359.58L24.8431 351.57Z" fill="white"/>
<path d="M96.3176 402.272C98.344 399.73 99.3849 396.946 99.4401 393.922C99.5172 390.93 98.6269 388.069 96.769 385.339C94.7145 382.32 91.8566 380.467 88.1954 379.779C84.5874 379.101 81.3417 379.818 78.4583 381.93C77.9569 382.297 77.5917 382.589 77.3628 382.805C74.5005 385.43 72.9629 388.554 72.7501 392.175C72.5505 395.401 73.4125 398.427 75.3359 401.253C76.4287 402.859 77.7224 404.173 79.2169 405.196C80.7427 406.196 82.3929 406.792 84.1674 406.985L82.3575 416.539C79.0811 416.004 76.2719 414.981 73.9299 413.472C71.5879 411.963 69.4553 409.795 67.5319 406.969C63.9255 401.67 62.6192 395.817 63.613 389.41C64.6068 383.004 67.6581 377.929 72.7667 374.188C77.938 370.4 83.5873 369.006 89.7146 370.004C95.8951 371.012 100.778 374.149 104.362 379.417C107.968 384.716 109.188 390.752 108.022 397.526C106.908 404.309 103.797 409.571 98.6887 413.313C98.1245 413.726 97.5761 414.128 97.0433 414.518C96.5076 414.766 96.1191 414.954 95.8779 415.083L77.387 387.912C76.9936 387.334 76.9773 386.793 77.3381 386.288C77.6989 385.783 78.2868 385.232 79.1017 384.635C79.4464 384.383 79.6972 384.199 79.8539 384.084C80.2613 383.786 80.5747 383.556 80.7941 383.396C81.3896 382.959 81.8721 382.702 82.2416 382.624C82.6424 382.523 83.0068 382.713 83.3346 383.195L96.3176 402.272Z" fill="white"/>
<path d="M102.457 418.878C106.204 417.71 109.766 417.408 113.143 417.971C116.534 418.578 119.423 419.905 121.809 421.951C124.209 424.041 125.923 426.663 126.95 429.817C127.847 432.572 128.071 435.145 127.621 437.536C127.186 439.971 126.323 442.075 125.033 443.847L130.319 442.2L133.379 451.596L96.3103 463.143L93.2505 453.747L98.6703 452.059C96.54 451.402 94.5477 450.187 92.6935 448.416C90.8984 446.675 89.5523 444.428 88.6553 441.674C87.6426 438.564 87.5196 435.47 88.2864 432.394C89.0676 429.361 90.6621 426.638 93.0697 424.224C95.5363 421.841 98.6655 420.059 102.457 418.878ZM111.785 447.974C114.06 447.265 115.856 446.216 117.172 444.827C118.533 443.425 119.392 441.836 119.747 440.062C120.148 438.273 120.066 436.513 119.501 434.78C118.937 433.048 117.993 431.58 116.668 430.378C115.343 429.176 113.703 428.366 111.749 427.947C109.854 427.559 107.791 427.712 105.56 428.407C103.33 429.102 101.512 430.157 100.106 431.574C98.7595 433.021 97.8788 434.617 97.4641 436.361C97.0638 438.149 97.1386 439.887 97.6883 441.575C98.2526 443.308 99.2044 444.798 100.544 446.044C101.928 447.277 103.567 448.087 105.463 448.475C107.403 448.85 109.51 448.682 111.785 447.974Z" fill="white"/>
<path d="M148.332 509.626C149.409 514.268 148.841 518.333 146.629 521.82C144.472 525.342 140.845 527.694 135.748 528.877L113.56 534.025L111.343 524.467L132.233 519.62C135.191 518.934 137.27 517.66 138.469 515.799C139.714 513.927 140.035 511.695 139.433 509.1C138.831 506.506 137.554 504.62 135.602 503.442C133.706 502.299 131.279 502.071 128.321 502.757L107.43 507.605L105.213 498.047L126.103 493.2C129.061 492.513 131.14 491.24 132.339 489.379C133.583 487.507 133.905 485.274 133.303 482.68C132.69 480.04 131.408 478.132 129.456 476.954C127.56 475.811 125.133 475.583 122.175 476.269L101.284 481.116L99.0667 471.558L136.888 462.783L139.105 472.341L134.531 473.402C136.41 474.261 138.025 475.541 139.379 477.241C140.744 478.987 141.695 481.021 142.234 483.342C142.92 486.3 142.895 489.088 142.159 491.705C141.469 494.311 140.111 496.52 138.086 498.333C140.556 499.055 142.72 500.424 144.578 502.439C146.447 504.499 147.698 506.895 148.332 509.626Z" fill="white"/>
<path d="M148.145 545.093C150.076 546.069 151.774 547.555 153.237 549.55C154.753 551.584 155.712 554.012 156.112 556.834C156.579 560.118 156.192 563.204 154.951 566.091C153.716 569.025 151.707 571.488 148.923 573.48C146.191 575.512 142.863 576.832 138.939 577.441C135.015 578.05 131.417 577.805 128.147 576.705C124.929 575.644 122.298 573.902 120.255 571.477C118.218 569.098 116.966 566.267 116.499 562.982C116.099 560.161 116.321 557.573 117.166 555.22C118.018 552.913 119.226 550.953 120.789 549.339L97.0355 553.026L95.6551 543.312L152.304 534.519L153.685 544.233L148.145 545.093ZM137.529 567.519C139.838 567.161 141.754 566.367 143.278 565.137C144.855 563.947 145.97 562.497 146.624 560.789C147.284 559.126 147.486 557.393 147.229 555.589C146.98 553.831 146.281 552.237 145.134 550.808C144.04 549.417 142.57 548.369 140.724 547.663C138.884 547.003 136.81 546.852 134.502 547.21C132.193 547.569 130.251 548.343 128.674 549.533C127.104 550.77 125.965 552.223 125.259 553.893C124.605 555.602 124.403 557.335 124.653 559.093C124.909 560.897 125.608 562.49 126.748 563.874C127.895 565.303 129.388 566.348 131.228 567.008C133.074 567.714 135.174 567.884 137.529 567.519Z" fill="white"/>
</svg>
